<svg xmlns="http://www.w3.org/2000/svg" width="512" height="512" viewBox="0 0 512 512"><path d="M450.615 321.744h40.209v6.313h-40.209zm45.969 0h15.756v6.313h-15.756z" fill="#D4EEF8"/><g fill="#D4EEF8"><path d="M16.063 148.234h36.704v4.499H16.063z"/><path d="M32.167 132.129h4.479v36.712h-4.479z"/></g><g fill="#FDBA12"><path d="M456.393 127.631h36.695v4.495h-36.695z"/><path d="M472.497 111.526h4.486v36.708h-4.486z"/></g><g fill="#D4EEF8"><path d="M402.976 399.014h36.704v4.494h-36.704z"/><path d="M419.08 382.917h4.486v36.703h-4.486z"/></g><path fill="#FDBA12" d="M31.705 279.808c0 8.665-7.026 15.667-15.674 15.667S.34 288.473.34 279.808c0-8.656 7.042-15.666 15.691-15.666s15.674 7.009 15.674 15.666z"/><path fill="#D4EEF8" d="M72.343 222.996c0 5.399-4.389 9.78-9.792 9.78-5.387 0-9.784-4.381-9.784-9.78 0-5.407 4.397-9.784 9.784-9.784 5.403 0 9.792 4.377 9.792 9.784z"/><path fill="#FDBA12" d="M456.952 366.869c0 5.403-4.381 9.784-9.793 9.784-5.387 0-9.784-4.381-9.784-9.784s4.397-9.776 9.784-9.776c5.412 0 9.793 4.373 9.793 9.776z"/><path fill="#D4EEF8" d="M496.568 357.102c0 2.726-2.215 4.948-4.949 4.948s-4.965-2.223-4.965-4.948c0-2.742 2.23-4.966 4.965-4.966s4.949 2.223 4.949 4.966zM394.992 107.088c0-7.269 5.906-13.175 13.159-13.175 7.278 0 13.185 5.906 13.185 13.175 0 7.273-5.906 13.156-13.185 13.156-7.253 0-13.159-5.882-13.159-13.156zm65.83 89.301c0-3.841 3.115-6.969 6.944-6.969 3.862 0 6.985 3.128 6.985 6.969 0 3.85-3.123 6.957-6.985 6.957-3.828 0-6.944-3.107-6.944-6.957z"/><path fill="#8AD0C0" d="M150.772 369.076c-5.346 5.354-14.027 5.354-19.374 0-5.363-5.354-5.363-14.036 0-19.391l27.495-27.487c5.355-5.354 14.036-5.354 19.382 0 5.354 5.355 5.354 14.02 0 19.374l-27.503 27.504z"/><path fill="#A5D16D" d="M331.548 292.034h-49.871v45.174c21.573-8.567 39.284-24.713 49.871-45.174z"/><path fill="#FEC36F" d="M216.626 256.767v82.404c9.403 3.092 19.415 4.819 29.84 4.819a95.286 95.286 0 0 0 29.134-4.56v-82.664h-58.974z"/><path fill="#D3545A" d="M154.172 273.406c7.967 29.159 29.337 52.776 57.1 63.802v-63.802h-57.1z"/><path fill="#F7B64C" d="M258.596 226.448h-24.94l4.227-9.078 3.691-8.483h9.095l3.675 8.483z"/><path fill="#FFD15D" d="M274.448 226.448h-56.67c-3.115 0-5.646 2.539-5.646 5.655v18.413h67.688v-18.413c.291-3.116-2.257-5.655-5.372-5.655z"/><path fill="#F7B64C" d="M178.138 130.142v11.609c0 28.331 17.573 52.687 42.212 62.88 7.91 3.399 16.705 5.095 25.759 5.095 9.07 0 17.856-1.696 25.783-5.095 24.632-10.194 42.196-34.549 42.196-62.88v-11.609h-135.95zm124.617 11.609c0 13.602-4.803 26.06-13.005 35.97-10.49 12.461-26.084 20.68-43.641 20.68-17.549 0-33.142-7.935-43.616-20.68-7.927-9.622-13.021-22.368-13.021-35.97v-.28h113.023v.28h.26z"/><path fill="#FFD15D" d="M290.302 121.651v30.583c0 28.323-17.573 54.094-44.192 64.292-26.611-10.482-44.167-35.969-44.167-64.576v-30.298h88.359z"/><path fill="#C1DB79" d="M322.592 165.767c-1.721 5.78-3.96 11.569-6.377 17.017 16.096 17.139 26.034 40.123 26.034 65.436 0 52.82-42.967 95.771-95.783 95.771-52.8 0-95.767-42.95-95.767-95.771 0-25.422 10.02-48.5 26.238-65.663-2.848-5.014-5.542-10.572-7.821-15.659-21.524 20.49-35.032 49.332-35.032 81.322 0 61.972 50.415 112.387 112.382 112.387 61.984 0 112.399-50.415 112.399-112.387 0-32.595-14.036-61.903-36.273-82.453z"/></svg>