<svg xmlns="http://www.w3.org/2000/svg" width="512" height="512" viewBox="0 0 512 512"><path fill="#354A60" d="M235.22 392.974v-99.629c0-3.456 3.018-6.271 6.474-6.271 3.473 0 6.482 2.814 6.482 6.271v99.629c0 3.456-3.01 6.255-6.482 6.255-3.456 0-6.474-2.799-6.474-6.255z"/><path fill="#354A60" d="M286.966 405.784l-41.985-99.62c-1.339-3.188.162-6.864 3.342-8.202 3.197-1.355 6.872.146 8.202 3.334l41.986 99.62c1.338 3.197-.146 6.864-3.335 8.211a6.376 6.376 0 0 1-2.442.486 6.251 6.251 0 0 1-5.768-3.829zm-98.607 3.351a6.271 6.271 0 0 1-3.342-8.219l41.985-99.62a6.248 6.248 0 0 1 8.203-3.334c3.196 1.338 4.681 5.014 3.342 8.202l-41.977 99.62a6.281 6.281 0 0 1-5.785 3.829 6.434 6.434 0 0 1-2.426-.478z"/><path fill="#D3545A" d="M354.547 270.036c0 62.292-50.495 112.788-112.779 112.788-62.3 0-112.788-50.496-112.788-112.788s50.488-112.788 112.788-112.788c62.284 0 112.779 50.496 112.779 112.788z"/><path fill="#FFF" d="M334.816 270.036c0 51.389-41.661 93.049-93.049 93.049-51.388 0-93.049-41.66-93.049-93.049 0-51.388 41.661-93.057 93.049-93.057 51.388 0 93.049 41.669 93.049 93.057z"/><path fill="#FEC36F" d="M315.085 270.036c0 40.484-32.842 73.31-73.317 73.31-40.493 0-73.318-32.825-73.318-73.31 0-40.492 32.825-73.31 73.318-73.31 40.475.001 73.317 32.818 73.317 73.31z"/><path fill="#FFF" d="M295.338 270.036c0 29.589-23.982 53.57-53.57 53.57s-53.579-23.981-53.579-53.57c0-29.588 23.991-53.57 53.579-53.57 29.587 0 53.57 23.982 53.57 53.57z"/><path fill="#EA4D36" d="M275.599 270.036c0 18.685-15.139 33.832-33.831 33.832-18.693 0-33.832-15.147-33.832-33.832 0-18.684 15.139-33.832 33.832-33.832 18.692.001 33.831 15.148 33.831 33.832z"/><path fill="#EDF0F1" d="M255.86 270.036c0 7.789-6.304 14.101-14.092 14.101-7.781 0-14.101-6.312-14.101-14.101 0-7.788 6.32-14.092 14.101-14.092 7.788 0 14.092 6.304 14.092 14.092z"/><path opacity=".5" fill="#354A60" d="M240.177 268.332a2.524 2.524 0 0 0 .479 3.521l89.625 68.077a121.909 121.909 0 0 0 3.026-4l-89.617-68.077a2.518 2.518 0 0 0-1.509-.519 2.535 2.535 0 0 0-2.004.998z"/><path fill="#5693CE" d="M334.427 233l8.373-6.36-4.616-4.763 8.234 2.02 12.892-9.784-6.662-6.361 10.759 3.246 20.42-15.529-30.124-8.584-49.391 37.523z"/><path fill="#F0C518" d="M240.177 271.554a2.517 2.517 0 0 1 .479-3.514l110.776-84.148a2.5 2.5 0 0 1 3.505.487 2.491 2.491 0 0 1-.479 3.505L243.69 272.032a2.458 2.458 0 0 1-1.509.511 2.523 2.523 0 0 1-2.004-.989z"/><path fill="#1A4670" d="M303.549 223.411l49.392-37.524-.195-31.332-15.715 11.942 2.629 16.802-6.109-14.157-17.071 12.973.196 15.585-3.838-12.81-9.484 7.196z"/><path d="M450.679 321.278h40.209v6.313h-40.209zm45.968 0h15.756v6.313h-15.756z" fill="#D4EEF8"/><g fill="#D4EEF8"><path d="M16.126 147.772H52.83v4.495H16.126z"/><path d="M32.231 131.66h4.479v36.72h-4.479z"/></g><g fill="#FDBA12"><path d="M456.456 127.165h36.695v4.495h-36.695z"/><path d="M472.561 111.061h4.486v36.712h-4.486z"/></g><g fill="#D4EEF8"><path d="M403.039 398.548h36.704v4.494h-36.704z"/><path d="M419.144 382.451h4.486v36.703h-4.486z"/></g><path fill="#FDBA12" d="M31.769 279.342c0 8.665-7.026 15.666-15.674 15.666S.404 288.007.404 279.342c0-8.656 7.042-15.666 15.691-15.666s15.674 7.01 15.674 15.666z"/><path fill="#D4EEF8" d="M72.407 222.526c0 5.403-4.39 9.785-9.793 9.785-5.387 0-9.784-4.381-9.784-9.785s4.397-9.784 9.784-9.784c5.404 0 9.793 4.381 9.793 9.784z"/><path fill="#FDBA12" d="M457.016 366.403c0 5.403-4.381 9.784-9.793 9.784-5.387 0-9.784-4.381-9.784-9.784s4.397-9.776 9.784-9.776c5.412 0 9.793 4.373 9.793 9.776z"/><path fill="#D4EEF8" d="M496.632 356.635c0 2.727-2.215 4.949-4.949 4.949s-4.965-2.223-4.965-4.949c0-2.742 2.23-4.965 4.965-4.965s4.949 2.223 4.949 4.965zM395.056 106.623c0-7.269 5.906-13.175 13.159-13.175 7.278 0 13.185 5.906 13.185 13.175 0 7.27-5.906 13.16-13.185 13.16-7.253-.001-13.159-5.891-13.159-13.16zm65.83 89.3c0-3.837 3.115-6.969 6.944-6.969 3.862 0 6.985 3.132 6.985 6.969 0 3.854-3.123 6.953-6.985 6.953a6.943 6.943 0 0 1-6.944-6.953z"/></svg>