<svg xmlns="http://www.w3.org/2000/svg" width="512" height="512" viewBox="0 0 512 512"><path d="M450.593 321.523h40.209v6.313h-40.209zm45.969 0h15.756v6.313h-15.756z" fill="#D4EEF8"/><g fill="#D4EEF8"><path d="M16.041 148.013h36.704v4.499H16.041z"/><path d="M32.145 131.909h4.479v36.712h-4.479z"/></g><g fill="#FDBA12"><path d="M456.369 127.41h36.696v4.495h-36.696z"/><path d="M472.474 111.306h4.487v36.708h-4.487z"/></g><g fill="#D4EEF8"><path d="M402.953 398.793h36.703v4.494h-36.703z"/><path d="M419.058 382.696h4.486v36.703h-4.486z"/></g><path fill="#FDBA12" d="M31.683 279.587c0 8.665-7.026 15.667-15.674 15.667-8.649 0-15.691-7.002-15.691-15.667 0-8.656 7.042-15.666 15.691-15.666 8.648 0 15.674 7.01 15.674 15.666z"/><path fill="#D4EEF8" d="M72.321 222.775c0 5.399-4.389 9.78-9.792 9.78-5.387 0-9.784-4.381-9.784-9.78 0-5.408 4.397-9.785 9.784-9.785 5.403.001 9.792 4.378 9.792 9.785z"/><path fill="#FDBA12" d="M456.93 366.648c0 5.403-4.381 9.784-9.793 9.784-5.387 0-9.784-4.381-9.784-9.784s4.397-9.776 9.784-9.776c5.412 0 9.793 4.373 9.793 9.776z"/><path fill="#D4EEF8" d="M496.546 356.881c0 2.726-2.215 4.948-4.949 4.948s-4.965-2.223-4.965-4.948c0-2.743 2.23-4.966 4.965-4.966s4.949 2.223 4.949 4.966zM394.97 106.868c0-7.269 5.906-13.175 13.159-13.175 7.277 0 13.185 5.906 13.185 13.175 0 7.273-5.907 13.155-13.185 13.155-7.253 0-13.159-5.882-13.159-13.155zm65.83 89.3c0-3.841 3.115-6.969 6.944-6.969 3.862 0 6.985 3.128 6.985 6.969 0 3.85-3.123 6.957-6.985 6.957-3.829 0-6.944-3.107-6.944-6.957z"/><path fill="#5D84C3" d="M391.911 211.011h-17.662a5.882 5.882 0 0 1-5.89-5.89 5.884 5.884 0 0 1 5.89-5.89h17.662a5.896 5.896 0 0 1 5.898 5.89 5.898 5.898 0 0 1-5.898 5.89zm-35.332 0h-80.863a5.89 5.89 0 1 1 0-11.78h80.863a5.895 5.895 0 0 1 5.89 5.89 5.893 5.893 0 0 1-5.89 5.89z"/><path fill="#A2D8CB" d="M221.099 299.367h-41.223c-3.253 0-5.898-2.646-5.898-5.891a5.897 5.897 0 0 1 5.898-5.89h41.223a5.885 5.885 0 0 1 5.89 5.89 5.89 5.89 0 0 1-5.89 5.891zm170.812 0h-94.233a5.89 5.89 0 0 1-5.89-5.891 5.884 5.884 0 0 1 5.89-5.89h94.233a5.89 5.89 0 0 1 5.891 5.89 5.895 5.895 0 0 1-5.891 5.891z"/><path fill="#FFD682" d="M391.911 269.916h-47.112a5.892 5.892 0 0 1-5.891-5.897 5.887 5.887 0 0 1 5.891-5.887h47.112c3.254 0 5.898 2.641 5.898 5.887-.007 3.252-2.644 5.897-5.898 5.897z"/><path fill="#A2D8CB" d="M328.11 183.159h-51.048a5.89 5.89 0 0 1-5.89-5.894 5.884 5.884 0 0 1 5.89-5.89h51.048a5.896 5.896 0 0 1 5.897 5.89c-.007 3.249-2.644 5.894-5.897 5.894zm-46.505 116.208h-36.938a5.89 5.89 0 1 1 0-11.781h36.938a5.89 5.89 0 0 1 5.891 5.89 5.895 5.895 0 0 1-5.891 5.891z"/><path fill="#5D84C3" d="M203.428 328.81h-23.552a5.89 5.89 0 0 1-5.89-5.891 5.895 5.895 0 0 1 5.89-5.89h23.552a5.89 5.89 0 1 1 0 11.781z"/><path fill="#FFD682" d="M327.112 269.916h-52.995a5.886 5.886 0 0 1-5.89-5.897 5.887 5.887 0 0 1 5.89-5.887h52.995c3.262 0 5.906 2.641 5.906 5.887-.016 3.26-2.644 5.897-5.906 5.897z"/><path fill="#A2D8CB" d="M391.895 183.159h-44.687a5.885 5.885 0 0 1-5.89-5.894 5.889 5.889 0 0 1 5.89-5.89h44.687c3.262 0 5.907 2.645 5.907 5.89-.017 3.257-2.646 5.894-5.907 5.894z"/><path fill="#5D84C3" d="M391.911 328.81h-23.552a5.886 5.886 0 0 1-5.891-5.891 5.89 5.89 0 0 1 5.891-5.89h23.552c3.254 0 5.898 2.645 5.898 5.89a5.901 5.901 0 0 1-5.898 5.891zm-47.112 0h-117.81a5.895 5.895 0 0 1-5.89-5.891 5.9 5.9 0 0 1 5.89-5.89h117.81a5.9 5.9 0 0 1 5.89 5.89 5.897 5.897 0 0 1-5.89 5.891z"/><path fill="#F15D62" d="M391.911 240.462h-119.4a5.89 5.89 0 1 1 0-11.78h119.4a5.896 5.896 0 0 1 5.898 5.89 5.898 5.898 0 0 1-5.898 5.89z"/><path fill="#FBB040" d="M136.35 163.801a62.51 62.51 0 0 0-5.095 8.872l-11.78.791-3.927 14.681 9.768 6.551c-.105 1.696-.203 3.436-.17 5.124-.032 1.736.065 3.472.195 5.196l-.024-.057-9.776 6.547 3.935 14.676 11.772.787a62.89 62.89 0 0 0 5.104 8.875l-5.201 10.58 10.766 10.746 10.563-5.197a67.511 67.511 0 0 0 8.868 5.148l.779 11.739 14.685 3.927 6.507-9.801c1.712.122 3.44.203 5.176.188 1.712.032 3.432-.065 5.135-.163l6.547 9.776 14.677-3.942.803-11.744c3.034-1.464 5.987-3.136 8.859-5.119l10.571 5.188 10.742-10.746-5.184-10.575c1.988-2.852 3.643-5.821 5.127-8.876l11.756-.791 3.935-14.672-9.784-6.551-.041.057a61.69 61.69 0 0 0 .219-5.196c.008-1.7-.082-3.428-.179-5.124l9.784-6.551-3.942-14.681-11.756-.767a64.701 64.701 0 0 0-5.119-8.892l5.184-10.567-10.742-10.75-10.571 5.184c-2.872-1.959-5.809-3.667-8.868-5.099l-.795-11.772-14.677-3.922-6.555 9.78.049.02c-1.72-.134-3.448-.223-5.176-.211a54.306 54.306 0 0 0-5.192.219l.065-.028-6.563-9.78-14.668 3.922-.779 11.76a64.624 64.624 0 0 0-8.876 5.107l-10.563-5.188-10.766 10.754 5.198 10.567zm18.887 2.763c18.36-18.364 48.151-18.364 66.502 0 18.384 18.372 18.384 48.159.017 66.523-18.368 18.38-48.151 18.38-66.519 0-18.377-18.364-18.377-48.151 0-66.523z"/><path fill="#D3545A" d="M59.113 329.198c10.661 10.652 27.795 10.782 38.27.301 6.442-6.45 8.868-15.423 7.31-23.845l69.569-69.553c13.987 5.468 30.489 2.568 41.782-8.73 10.628-10.624 13.825-25.88 9.59-39.279l-27.268 27.26-20.031-5.371-5.363-20.035 27.26-27.26c-13.427-4.223-28.639-1.03-39.292 9.594-11.285 11.293-14.182 27.804-8.713 41.783l-69.578 69.574c-8.421-1.566-17.378.859-23.82 7.302-10.482 10.48-10.352 27.607.284 38.259zm3.318-18.984l-2.896-7.691 7.48-3.383 3.399-7.473 7.683 2.872 7.683-2.872 3.399 7.473 7.48 3.383-2.888 7.691 2.888 7.691-7.48 3.407-3.399 7.464-7.683-2.888-7.683 2.896-3.399-7.473-7.48-3.407 2.896-7.69z"/></svg>