<svg xmlns="http://www.w3.org/2000/svg" width="512" height="512" viewBox="0 0 512 512"><circle fill="#FFF" cx="255.783" cy="255.912" r="256"/><path fill="#485A93" d="M379.755 347.487c3.001 2.6 3.42 7.026.943 9.89l-6.532 7.535c-2.482 2.866-6.922 3.079-9.917.479l-23.643-20.477c-3.001-2.597-3.42-7.023-.94-9.89l6.529-7.535c2.475-2.86 6.919-3.076 9.917-.477l23.643 20.475z"/><path fill="#8AD7F8" d="M395.939 353.46c3.001 2.6 2.288 8.332-1.59 12.813l-10.207 11.779c-3.882 4.478-9.452 5.999-12.45 3.399l-23.64-20.475c-3.004-2.6-2.291-8.335 1.59-12.813l10.213-11.782c3.861-4.475 9.443-5.996 12.441-3.396l23.643 20.475z"/><path fill="#A2D8CB" d="M166.016 353.957h.602v-81.74H152.23v68.987a123.63 123.63 0 0 0 13.786 12.753z"/><path fill="#5D84C3" d="M193.084 370.31v-86.131h-14.388v78.661c4.601 2.801 9.414 5.283 14.388 7.47z"/><path fill="#F15D62" d="M223.451 379.234v-112.51h-14.388v109.327a122.75 122.75 0 0 0 14.388 3.183z"/><path fill="#FFD682" d="M242.793 380.75c3.279 0 6.517-.168 9.733-.419v-124.56h-14.388v124.861c1.543.058 3.091.118 4.655.118z"/><path fill="#D4EEF8" d="M185.693 263.579l-28.405-19.237 4.268-6.306 24.529 16.61 30.819-17.062 27.743-9.443 25.837 15.068 29.475-37.02 29.075-10.041 3.645 6.686-27.722 9.303-32.621 40.967-28.525-16.634-24.131 8.212z"/><path fill="#D7DF23" d="M338.049 335.879V223.207h-14.388v127.357c5.185-4.496 10.013-9.393 14.388-14.685z"/><path fill="#C49A6C" d="M308.977 361.504V234.161h-14.391v135.206a122.473 122.473 0 0 0 14.391-7.863z"/><path fill="#39B54A" d="M278.607 375.461V266.724h-14.392v112.14c4.901-.86 9.708-1.989 14.392-3.403z"/><path fill="#F7941E" d="M167.36 241.073a7.94 7.94 0 0 1-15.876 0 7.939 7.939 0 0 1 15.876 0z"/><path fill="#8DC63F" d="M193.828 257.207a7.94 7.94 0 0 1-7.94 7.938 7.937 7.937 0 0 1-7.937-7.938 7.937 7.937 0 0 1 7.937-7.938 7.94 7.94 0 0 1 7.94 7.938z"/><path fill="#8BD7F8" d="M224.197 242.099a7.94 7.94 0 0 1-7.94 7.938 7.94 7.94 0 0 1 0-15.876 7.94 7.94 0 0 1 7.94 7.938z"/><path fill="#FFDE17" d="M252.922 233.135a7.939 7.939 0 0 1-7.939 7.937 7.936 7.936 0 0 1-7.934-7.937 7.937 7.937 0 0 1 15.873 0z"/><path fill="#C2B59B" d="M279.35 247.834a7.939 7.939 0 0 1-15.876 0 7.937 7.937 0 0 1 7.937-7.937 7.937 7.937 0 0 1 7.939 7.937z"/><path fill="#BCBEC0" d="M308.977 209.729a7.938 7.938 0 0 1-7.939 7.935 7.938 7.938 0 0 1-7.938-7.935 7.938 7.938 0 1 1 15.877 0z"/><path fill="#662D91" d="M338.792 201.791a7.94 7.94 0 0 1-7.939 7.937 7.937 7.937 0 1 1 0-15.875 7.938 7.938 0 0 1 7.939 7.938z"/><path d="M402.14 233.731h27.2v4.271h-27.2zm31.093 0h10.665v4.271h-10.665zM68.007 325.108h27.204v4.271H68.007zm31.094 0h10.666v4.271H99.101zm40.104-220.275h27.201v4.272h-27.201zm31.094 0h10.665v4.272h-10.665z" fill="#F1F2F2"/><g fill="#F1F2F2"><path d="M86.723 157.375h24.835v3.044H86.723z"/><path d="M97.616 146.479h3.037v24.84h-3.037z"/></g><g fill="#F1F2F2"><path d="M384.67 143.433h24.834v3.042H384.67z"/><path d="M395.563 132.537h3.037v24.838h-3.037z"/></g><g fill="#F1F2F2"><path d="M415.743 283.646h17.419v2.133h-17.419z"/><path d="M423.38 276h2.133v17.422h-2.133z"/></g><g fill="#FFDE17"><path d="M279.35 87.067h17.416v2.134H279.35z"/><path d="M286.99 79.422h2.13v17.422h-2.13z"/></g><path fill="#F1F2F2" d="M88.891 225.2c0 5.863-4.759 10.601-10.608 10.601s-10.614-4.738-10.614-10.601c0-5.858 4.765-10.604 10.614-10.604 5.849 0 10.608 4.745 10.608 10.604z"/><path fill="#8DC63F" d="M113.726 196.146a6.622 6.622 0 0 1-6.625 6.619c-3.645 0-6.622-2.962-6.622-6.619 0-3.658 2.977-6.617 6.622-6.617a6.62 6.62 0 0 1 6.625 6.617z"/><path fill="#F1F2F2" d="M406.419 264.269a6.62 6.62 0 0 1-6.619 6.618c-3.647 0-6.621-2.962-6.621-6.618a6.62 6.62 0 1 1 13.24 0z"/><path fill="#8DC63F" d="M433.225 257.653c0 1.847-1.501 3.351-3.349 3.351s-3.354-1.504-3.354-3.351a3.352 3.352 0 0 1 6.703 0z"/><path fill="#F1F2F2" d="M343.126 129.536c0-4.922 3.992-8.916 8.907-8.916a8.916 8.916 0 0 1 8.916 8.916c0 4.919-3.989 8.903-8.916 8.903-4.915 0-8.907-3.983-8.907-8.903zM207.347 90.561c0-4.919 3.996-8.916 8.907-8.916 4.93 0 8.917 3.997 8.917 8.916s-3.987 8.904-8.917 8.904c-4.912 0-8.907-3.985-8.907-8.904z"/><path fill="#F7941E" d="M395.086 181.351a4.717 4.717 0 0 1 4.708-4.718 4.718 4.718 0 0 1 4.718 4.718 4.707 4.707 0 0 1-4.718 4.706 4.707 4.707 0 0 1-4.708-4.706z"/><path fill="#8DC63F" d="M228.71 76.939a4.717 4.717 0 0 1 4.711-4.717 4.72 4.72 0 0 1 4.717 4.717 4.708 4.708 0 0 1-4.717 4.705 4.706 4.706 0 0 1-4.711-4.705z"/><path fill="#F1F2F2" d="M243.155 99.471a4.72 4.72 0 0 1 4.708-4.717 4.717 4.717 0 0 1 4.717 4.717 4.706 4.706 0 0 1-4.717 4.705 4.709 4.709 0 0 1-4.708-4.705z"/><path fill="#FFDE17" d="M86.723 261.801l2.168 6.915 6.919 2.171-6.919 2.169-2.168 6.918-2.165-6.918-6.919-2.169 6.655-2.171zM402.14 318.16l2.165 6.913 6.919 2.171-6.919 2.169-2.165 6.915-2.169-6.915-6.918-2.169 6.657-2.171z"/><path fill="#F1F2F2" d="M188.242 65.733l2.671 8.526 8.53 2.674-8.53 2.675-2.671 8.525-2.672-8.525-8.529-2.675 8.209-2.674z"/><path d="M259.604 409.131h-56.3l-.393-.267c-11.186-7.644-21.375-.123-21.477-.045l-.412.312H129.45a1.533 1.533 0 1 1 0-3.067h50.587c2.274-1.488 12.797-7.493 24.206 0h55.361a1.534 1.534 0 1 1 0 3.067zm41.549 0H266.84a1.533 1.533 0 1 1 0-3.067h34.313a1.534 1.534 0 1 1 0 3.067zm81.255 0h-55.546a1.533 1.533 0 1 1 0-3.067h55.546a1.533 1.533 0 1 1 0 3.067zm-63.943 0h-11.594a1.533 1.533 0 1 1 0-3.067h11.594a1.533 1.533 0 1 1 0 3.067zm-89.41 23.265h-58.756a1.534 1.534 0 1 1 0-3.067h58.756a1.533 1.533 0 1 1 0 3.067zm117.137 0h-84.726a1.533 1.533 0 1 1 0-3.067h84.726a1.533 1.533 0 1 1 0 3.067zm-96.475 0h-11.594a1.533 1.533 0 1 1 0-3.067h11.594a1.533 1.533 0 1 1 0 3.067z" fill="#D4EEF8"/><path fill="#8AD7F8" d="M247.866 385.83c-70.918 0-128.615-57.702-128.615-128.623 0-70.918 57.696-128.619 128.615-128.619 70.922 0 128.624 57.7 128.624 128.619 0 70.921-57.702 128.623-128.624 128.623zm0-247.089c-65.321 0-118.461 53.144-118.461 118.466 0 65.323 53.141 118.47 118.461 118.47 65.324 0 118.471-53.146 118.471-118.47 0-65.322-53.147-118.466-118.471-118.466z"/></svg>