<svg xmlns="http://www.w3.org/2000/svg" width="512" height="512" viewBox="0 0 512 512"><path d="M450.167 321.494h40.209v6.313h-40.209zm45.969 0h15.756v6.313h-15.756z" fill="#D4EEF8"/><g fill="#D4EEF8"><path d="M15.615 147.988h36.704v4.499H15.615z"/><path d="M31.719 131.884h4.479v36.712h-4.479z"/></g><g fill="#FDBA12"><path d="M455.944 127.385h36.695v4.495h-36.695z"/><path d="M472.049 111.281h4.486v36.708h-4.486z"/></g><g fill="#D4EEF8"><path d="M402.527 398.764h36.704v4.503h-36.704z"/><path d="M418.632 382.667h4.486v36.704h-4.486z"/></g><path fill="#FDBA12" d="M31.257 279.566c0 8.664-7.026 15.658-15.674 15.658-8.649 0-15.691-6.994-15.691-15.658 0-8.665 7.042-15.675 15.691-15.675 8.648.001 15.674 7.01 15.674 15.675z"/><path fill="#D4EEF8" d="M71.895 222.75c0 5.399-4.389 9.78-9.792 9.78-5.387 0-9.784-4.381-9.784-9.78 0-5.408 4.397-9.785 9.784-9.785 5.403.001 9.792 4.378 9.792 9.785z"/><path fill="#FDBA12" d="M456.504 366.619c0 5.412-4.381 9.785-9.793 9.785-5.387 0-9.784-4.373-9.784-9.785 0-5.395 4.397-9.768 9.784-9.768 5.412.001 9.793 4.374 9.793 9.768z"/><path fill="#D4EEF8" d="M496.12 356.852c0 2.726-2.215 4.949-4.949 4.949s-4.965-2.224-4.965-4.949c0-2.742 2.23-4.957 4.965-4.957s4.949 2.214 4.949 4.957zM394.544 106.843c0-7.269 5.906-13.176 13.159-13.176 7.278 0 13.185 5.907 13.185 13.176 0 7.273-5.906 13.155-13.185 13.155-7.253 0-13.159-5.882-13.159-13.155zm65.83 89.301c0-3.842 3.115-6.969 6.944-6.969 3.862 0 6.985 3.127 6.985 6.969 0 3.85-3.123 6.957-6.985 6.957-3.829 0-6.944-3.108-6.944-6.957z"/><path fill="#EBD2AF" d="M106.473 118.384h276.445v261.055H106.473z"/><path d="M140.605 118.384v58.665l18.968-18.964v-39.701zm37.929 0v58.665l-18.961-18.964v-39.701z" fill="#F15A29"/><path fill="#32577E" d="M264.094 302.811v4.973c0 3.943-2.921 7.237-6.701 7.805l-1.201 4.511c-.682 2.45-2.888 4.171-5.436 4.171h-12.153c-2.547 0-4.754-1.721-5.419-4.171l-1.185-4.511c-3.813-.6-6.717-3.861-6.717-7.845v-4.974a4.77 4.77 0 0 1 4.787-4.787h29.223c2.66.033 4.802 2.166 4.802 4.828z"/><path fill="#32577E" d="M286.583 252.051c0 11.306-4.478 21.561-11.747 29.081a38.339 38.339 0 0 0-10.287 20.858 6.944 6.944 0 0 1-6.864 5.842h-26.01c-3.392 0-6.329-2.45-6.832-5.809-1.217-7.805-4.803-15.221-10.352-20.924-7.124-7.424-11.569-17.5-11.683-28.595a41.79 41.79 0 0 1 41.62-42.346c23.268-.174 42.155 18.657 42.155 41.893z"/><path d="M207.457 196.245a4.725 4.725 0 0 0-4.722-4.726h-62.941a4.732 4.732 0 0 0-4.722 4.726c0 2.592 2.109 4.726 4.722 4.726h62.941a4.702 4.702 0 0 0 4.722-4.726zm95.19 0a4.725 4.725 0 0 0-4.722-4.726h-29.11a4.733 4.733 0 0 0-4.722 4.726c0 2.592 2.109 4.726 4.722 4.726h29.11a4.701 4.701 0 0 0 4.722-4.726zm-49.741 0a4.725 4.725 0 0 0-4.722-4.726h-21.402a4.732 4.732 0 0 0-4.722 4.726c0 2.592 2.109 4.726 4.722 4.726h21.402a4.701 4.701 0 0 0 4.722-4.726zm109.178 0a4.725 4.725 0 0 0-4.722-4.726h-41.686a4.732 4.732 0 0 0-4.722 4.726c0 2.592 2.109 4.726 4.722 4.726h41.686a4.702 4.702 0 0 0 4.722-4.726zm-72.385 143.333c0 2.589 2.093 4.73 4.722 4.73h62.941a4.739 4.739 0 0 0 4.722-4.73c0-2.588-2.109-4.729-4.722-4.729h-62.941a4.707 4.707 0 0 0-4.722 4.729zm-95.191 0c0 2.589 2.093 4.73 4.722 4.73h29.11a4.738 4.738 0 0 0 4.722-4.73c0-2.588-2.109-4.729-4.722-4.729h-29.11a4.707 4.707 0 0 0-4.722 4.729zm49.742 0c0 2.589 2.093 4.73 4.722 4.73h21.402a4.74 4.74 0 0 0 4.723-4.73c0-2.588-2.109-4.729-4.723-4.729h-21.402a4.707 4.707 0 0 0-4.722 4.729zm-109.178 0c0 2.589 2.093 4.73 4.722 4.73h41.685a4.738 4.738 0 0 0 4.722-4.73c0-2.588-2.109-4.729-4.722-4.729h-41.685a4.707 4.707 0 0 0-4.722 4.729zm64.572-115.509a4.725 4.725 0 0 0-4.722-4.726h-55.128a4.732 4.732 0 0 0-4.722 4.726c0 2.592 2.109 4.726 4.722 4.726h55.128a4.702 4.702 0 0 0 4.722-4.726zm113.112 0a4.725 4.725 0 0 0-4.722-4.726h-14.928a4.732 4.732 0 0 0-4.722 4.726c0 2.592 2.109 4.726 4.722 4.726h14.928a4.702 4.702 0 0 0 4.722-4.726zm49.328 0a4.725 4.725 0 0 0-4.722-4.726h-33.378a4.732 4.732 0 0 0-4.722 4.726c0 2.592 2.109 4.726 4.722 4.726h33.378a4.703 4.703 0 0 0 4.722-4.726zm-64.572 57.607a4.726 4.726 0 0 0 4.722 4.722h55.129c2.579 0 4.722-2.102 4.722-4.722 0-2.597-2.109-4.73-4.722-4.73h-55.129a4.7 4.7 0 0 0-4.722 4.73zm-121.421 0a4.726 4.726 0 0 0 4.722 4.722h14.928c2.58 0 4.722-2.102 4.722-4.722 0-2.597-2.11-4.73-4.722-4.73h-14.928a4.702 4.702 0 0 0-4.722 4.73zm-41.019 0a4.726 4.726 0 0 0 4.722 4.722h25.069c2.58 0 4.722-2.102 4.722-4.722 0-2.597-2.109-4.73-4.722-4.73h-25.069a4.701 4.701 0 0 0-4.722 4.73zm49.205 29.077a4.726 4.726 0 0 0-4.722-4.722h-39.754c-2.58 0-4.722 2.101-4.722 4.722 0 2.596 2.109 4.729 4.722 4.729h39.754a4.7 4.7 0 0 0 4.722-4.729zm136.803 0a4.726 4.726 0 0 0-4.722-4.722h-32.987c-2.58 0-4.723 2.101-4.723 4.722 0 2.596 2.109 4.729 4.723 4.729h32.987c2.629 0 4.722-2.1 4.722-4.729zm-108.431 0a4.726 4.726 0 0 0-4.722-4.722h-14.928c-2.58 0-4.722 2.101-4.722 4.722 0 2.596 2.109 4.729 4.722 4.729h14.928c2.629 0 4.722-2.1 4.722-4.729zm149.451 0a4.726 4.726 0 0 0-4.722-4.722h-25.069c-2.58 0-4.722 2.101-4.722 4.722 0 2.596 2.109 4.729 4.722 4.729h25.069c2.629 0 4.722-2.1 4.722-4.729zm-202.527-58.958a4.725 4.725 0 0 0-4.722-4.726h-14.904a4.732 4.732 0 0 0-4.722 4.726c0 2.592 2.109 4.726 4.722 4.726h14.904a4.702 4.702 0 0 0 4.722-4.726zm159.844 0a4.725 4.725 0 0 0-4.722-4.726h-14.928a4.733 4.733 0 0 0-4.723 4.726c0 2.592 2.109 4.726 4.723 4.726h14.928a4.702 4.702 0 0 0 4.722-4.726zm-125.314 0a4.725 4.725 0 0 0-4.722-4.726h-19.65a4.732 4.732 0 0 0-4.722 4.726c0 2.592 2.109 4.726 4.722 4.726h19.65a4.702 4.702 0 0 0 4.722-4.726zm168.135 0a4.725 4.725 0 0 0-4.723-4.726h-25.069a4.733 4.733 0 0 0-4.722 4.726c0 2.592 2.109 4.726 4.722 4.726h25.069a4.702 4.702 0 0 0 4.723-4.726z" fill="#FFF"/></svg>