<svg xmlns="http://www.w3.org/2000/svg" width="512" height="512" viewBox="0 0 512 512"><path d="M450.625 321.278h40.209v6.313h-40.209zm45.969 0h15.756v6.313h-15.756z" fill="#D4EEF8"/><g fill="#D4EEF8"><path d="M16.073 147.772h36.704v4.495H16.073z"/><path d="M32.177 131.66h4.479v36.72h-4.479z"/></g><g fill="#FDBA12"><path d="M456.401 127.165h36.696v4.495h-36.696z"/><path d="M472.506 111.061h4.487v36.712h-4.487z"/></g><g fill="#D4EEF8"><path d="M402.985 398.548h36.703v4.494h-36.703z"/><path d="M419.09 382.451h4.486v36.703h-4.486z"/></g><path fill="#FDBA12" d="M31.715 279.342c0 8.665-7.026 15.666-15.675 15.666-8.648 0-15.69-7.001-15.69-15.666 0-8.656 7.042-15.666 15.69-15.666 8.649 0 15.675 7.01 15.675 15.666z"/><path fill="#D4EEF8" d="M72.353 222.526c0 5.403-4.389 9.785-9.792 9.785-5.387 0-9.784-4.381-9.784-9.785s4.397-9.784 9.784-9.784c5.403 0 9.792 4.381 9.792 9.784z"/><path fill="#FDBA12" d="M456.962 366.403c0 5.403-4.382 9.784-9.793 9.784-5.387 0-9.784-4.381-9.784-9.784s4.397-9.776 9.784-9.776c5.411 0 9.793 4.373 9.793 9.776z"/><path fill="#D4EEF8" d="M496.578 356.635c0 2.727-2.215 4.949-4.949 4.949s-4.966-2.223-4.966-4.949c0-2.742 2.231-4.965 4.966-4.965s4.949 2.223 4.949 4.965zM395.002 106.623c0-7.269 5.906-13.175 13.159-13.175 7.277 0 13.184 5.906 13.184 13.175 0 7.27-5.906 13.16-13.184 13.16-7.253-.001-13.159-5.891-13.159-13.16zm65.829 89.3c0-3.837 3.116-6.969 6.945-6.969 3.861 0 6.985 3.132 6.985 6.969 0 3.854-3.124 6.953-6.985 6.953a6.944 6.944 0 0 1-6.945-6.953z"/><path fill="#EBD2AF" d="M120.861 147.772h263.366v214.031H120.861z"/><path fill="#63809D" d="M147.667 193.424h207.427v9.866H147.667z"/><path fill="#27AAE1" d="M218.6 198.69c0 13.313-10.799 24.112-24.121 24.112-13.313 0-24.112-10.798-24.112-24.112 0-13.322 10.798-24.12 24.112-24.12 13.322 0 24.121 10.798 24.121 24.12z"/><path fill="#D4EEF8" d="M147.667 304.784h207.427v9.866H147.667z"/><path fill="#EC008C" d="M242.711 310.05c0 13.313-10.798 24.112-24.12 24.112-13.313 0-24.112-10.799-24.112-24.112 0-13.321 10.799-24.12 24.112-24.12 13.322 0 24.12 10.799 24.12 24.12z"/><path fill="#C0CBD6" d="M147.667 249.526h207.427v9.865H147.667z"/><path fill="#8DC63F" d="M320.37 254.792c0 13.313-10.799 24.112-24.12 24.112-13.313 0-24.112-10.799-24.112-24.112 0-13.322 10.799-24.121 24.112-24.121 13.321 0 24.12 10.799 24.12 24.121z"/></svg>