<svg xmlns="http://www.w3.org/2000/svg" width="512" height="512" viewBox="0 0 512 512"><circle fill="#FFF" cx="255.84" cy="255.912" r="256"/><path fill="#8AD7F8" d="M254.06 385.829c-70.921 0-128.618-57.702-128.618-128.622 0-70.919 57.696-128.619 128.618-128.619 70.919 0 128.621 57.7 128.621 128.619 0 70.92-57.702 128.622-128.621 128.622zm0-247.088c-65.324 0-118.464 53.144-118.464 118.466s53.141 118.469 118.464 118.469c65.321 0 118.468-53.146 118.468-118.469-.001-65.323-53.147-118.466-118.468-118.466z"/><path d="M408.33 233.73h27.2v4.271h-27.2zm31.094 0h10.665v4.271h-10.665zM74.197 325.108h27.204v4.271H74.197zm31.095 0h10.666v4.271h-10.666z" fill="#F1F2F2"/><path d="M145.395 104.833h27.201v4.272h-27.201zm31.094 0h10.665v4.272h-10.665z" fill="#FFDE17"/><g fill="#F1F2F2"><path d="M92.913 157.374h24.835v3.045H92.913z"/><path d="M103.806 146.479h3.037v24.84h-3.037z"/></g><g fill="#F1F2F2"><path d="M390.86 143.433h24.834v3.042H390.86z"/><path d="M401.753 132.537h3.037v24.837h-3.037z"/></g><g fill="#F1F2F2"><path d="M421.934 283.646h17.419v2.132h-17.419z"/><path d="M429.57 275.999h2.133v17.422h-2.133z"/></g><g fill="#F1F2F2"><path d="M285.54 87.066h17.416V89.2H285.54z"/><path d="M293.181 79.422h2.133v17.422h-2.133z"/></g><path fill="#F1F2F2" d="M95.082 225.199c0 5.863-4.759 10.601-10.608 10.601s-10.614-4.738-10.614-10.601c0-5.858 4.765-10.604 10.614-10.604 5.849 0 10.608 4.746 10.608 10.604z"/><path fill="#8DC63F" d="M119.917 196.146a6.622 6.622 0 0 1-6.625 6.619c-3.645 0-6.622-2.962-6.622-6.619 0-3.658 2.977-6.617 6.622-6.617a6.62 6.62 0 0 1 6.625 6.617z"/><path fill="#F1F2F2" d="M412.609 264.268a6.62 6.62 0 0 1-6.615 6.619c-3.651 0-6.625-2.962-6.625-6.619 0-3.66 2.974-6.62 6.625-6.62a6.617 6.617 0 0 1 6.615 6.62z"/><path fill="#8DC63F" d="M439.415 257.653c0 1.847-1.501 3.35-3.349 3.35s-3.354-1.503-3.354-3.35a3.352 3.352 0 0 1 6.703 0zm-90.099-128.117c0-4.922 3.992-8.916 8.907-8.916a8.916 8.916 0 0 1 8.916 8.916c0 4.919-3.989 8.903-8.916 8.903-4.914-.001-8.907-3.984-8.907-8.903z"/><path fill="#F1F2F2" d="M213.537 90.56c0-4.919 3.996-8.916 8.907-8.916 4.93 0 8.917 3.997 8.917 8.916s-3.987 8.904-8.917 8.904c-4.911 0-8.907-3.985-8.907-8.904z"/><path fill="#FFDE17" d="M401.276 181.351a4.717 4.717 0 0 1 4.708-4.718 4.718 4.718 0 0 1 4.718 4.718 4.707 4.707 0 0 1-4.718 4.706 4.71 4.71 0 0 1-4.708-4.706z"/><path fill="#F7941E" d="M234.901 76.939a4.717 4.717 0 0 1 4.711-4.717 4.72 4.72 0 0 1 4.717 4.717 4.708 4.708 0 0 1-4.717 4.705 4.706 4.706 0 0 1-4.711-4.705z"/><path fill="#F1F2F2" d="M249.346 99.47a4.72 4.72 0 0 1 4.708-4.717 4.717 4.717 0 0 1 4.717 4.717 4.706 4.706 0 0 1-4.717 4.705 4.708 4.708 0 0 1-4.708-4.705z"/><path fill="#FFDE17" d="M92.913 261.8l2.169 6.915 6.918 2.172-6.918 2.168-2.169 6.919-2.165-6.919-6.918-2.168 6.654-2.172z"/><path fill="#F7941E" d="M408.33 318.16l2.165 6.912 6.919 2.172-6.919 2.168-2.165 6.915-2.169-6.915-6.918-2.168 6.657-2.172z"/><path fill="#F1F2F2" d="M194.435 65.733l2.669 8.525 8.529 2.675-8.529 2.674-2.669 8.526-2.674-8.526-8.53-2.674 8.209-2.675z"/><path d="M265.794 409.13h-56.3l-.393-.267c-11.186-7.643-21.375-.122-21.477-.045l-.412.312H135.64a1.533 1.533 0 1 1 0-3.066h50.587c2.273-1.488 12.8-7.493 24.206 0h55.361a1.533 1.533 0 1 1 0 3.066zm41.55 0H273.03a1.532 1.532 0 1 1 0-3.066h34.313a1.533 1.533 0 1 1 .001 3.066zm81.255 0h-55.546a1.533 1.533 0 1 1 0-3.066h55.546a1.532 1.532 0 1 1 0 3.066zm-63.944 0h-11.594a1.532 1.532 0 1 1 0-3.066h11.594a1.532 1.532 0 1 1 0 3.066zm-89.41 23.266h-58.756a1.533 1.533 0 1 1 0-3.066h58.756a1.533 1.533 0 1 1 0 3.066zm117.138 0h-84.726a1.532 1.532 0 1 1 0-3.066h84.726a1.532 1.532 0 1 1 0 3.066zm-96.475 0h-11.594a1.532 1.532 0 1 1 0-3.066h11.594a1.533 1.533 0 1 1 0 3.066z" fill="#D4EEF8"/><circle fill="#5D84C3" cx="254.004" cy="181.534" r="8.253"/><path fill="#A2D8CB" d="M233.541 181.534a8.254 8.254 0 0 1-8.257 8.252 8.252 8.252 0 0 1 0-16.505 8.255 8.255 0 0 1 8.257 8.253z"/><path fill="#F15D62" d="M290.971 181.534a8.251 8.251 0 0 1-8.255 8.252 8.253 8.253 0 1 1 8.255-8.252z"/><path fill="#FFD682" d="M319.219 264.202l-10.203-1.729a56.364 56.364 0 0 0-4.089-9.887l6.015-8.413c2.552-3.588 2.15-8.473-.977-11.57l-9.045-9.042c-1.701-1.7-3.947-2.646-6.341-2.646a8.929 8.929 0 0 0-5.199 1.668l-8.428 6.013a56.28 56.28 0 0 0-10.264-4.209l-1.695-10.081a8.968 8.968 0 0 0-8.862-7.497h-12.786a8.968 8.968 0 0 0-8.862 7.497l-1.764 10.321a54.962 54.962 0 0 0-9.854 4.165l-8.356-6.013a8.869 8.869 0 0 0-5.223-1.667c-2.39 0-4.675.933-6.346 2.628l-9.069 9.045c-3.094 3.095-3.516 7.995-.977 11.568l6.083 8.536a54.859 54.859 0 0 0-4.043 9.916l-10.075 1.714a8.954 8.954 0 0 0-7.502 8.847v12.783a8.986 8.986 0 0 0 7.502 8.871l10.318 1.755a56.781 56.781 0 0 0 4.16 9.872l-5.978 8.308c-2.555 3.588-2.166 8.476.961 11.566l9.042 9.045c1.713 1.695 3.953 2.646 6.361 2.646a8.748 8.748 0 0 0 5.178-1.669l8.539-6.067a56.672 56.672 0 0 0 9.581 3.936l1.692 10.2a8.98 8.98 0 0 0 8.871 7.497h12.813a8.974 8.974 0 0 0 8.868-7.497l1.728-10.2a58.061 58.061 0 0 0 9.902-4.086l8.397 6.009a9.004 9.004 0 0 0 5.224 1.665 8.91 8.91 0 0 0 6.343-2.642l9.045-9.045a9.003 9.003 0 0 0 .977-11.567l-6.008-8.445c1.665-3.187 3.064-6.49 4.085-9.884l10.198-1.701a8.965 8.965 0 0 0 7.497-8.862v-12.785c.06-4.405-3.09-8.131-7.434-8.867zm-.692 21.651c0 .39-.267.722-.671.779l-12.744 2.135a4.069 4.069 0 0 0-3.276 3.007c-1.159 4.46-2.917 8.743-5.286 12.711a4.133 4.133 0 0 0 .18 4.46l7.494 10.563c.209.314.183.767-.09 1.036l-9.045 9.045a.765.765 0 0 1-.572.239.687.687 0 0 1-.446-.152l-10.546-7.496a4.06 4.06 0 0 0-4.447-.181 48.715 48.715 0 0 1-12.729 5.29 3.99 3.99 0 0 0-2.998 3.276l-2.175 12.737a.767.767 0 0 1-.778.677h-12.783a.77.77 0 0 1-.779-.677l-2.136-12.737c-.275-1.611-1.443-2.888-3.01-3.276a50.753 50.753 0 0 1-12.438-5.109 4.21 4.21 0 0 0-2.054-.543c-.83 0-1.671.243-2.372.752l-10.626 7.56c-.153.09-.299.149-.449.149a.831.831 0 0 1-.587-.239l-9.048-9.045c-.27-.27-.3-.691-.084-1.024l7.46-10.485a4.097 4.097 0 0 0 .183-4.478c-2.354-3.95-4.19-8.233-5.334-12.693-.434-1.545-1.695-2.737-3.289-3.007l-12.828-2.177a.807.807 0 0 1-.677-.8v-12.783c0-.389.285-.725.677-.778l12.648-2.139a4.105 4.105 0 0 0 3.318-3.031 48.527 48.527 0 0 1 5.185-12.742 4.024 4.024 0 0 0-.213-4.43l-7.55-10.624c-.209-.302-.186-.768.087-1.036l9.039-9.045a.781.781 0 0 1 .578-.243.78.78 0 0 1 .467.15l10.465 7.471a4.147 4.147 0 0 0 4.501.178 47.186 47.186 0 0 1 12.678-5.334c1.542-.436 2.729-1.713 2.998-3.289l2.201-12.832a.788.788 0 0 1 .779-.674h12.786c.393 0 .719.285.782.674l2.126 12.648c.275 1.61 1.462 2.916 3.037 3.31a49.674 49.674 0 0 1 13.017 5.346 4.07 4.07 0 0 0 4.459-.18l10.488-7.525a.858.858 0 0 1 .45-.151c.116 0 .362.03.571.238l9.045 9.046c.267.27.3.69.087 1.036l-7.49 10.535c-.938 1.306-.997 3.062-.186 4.461 2.375 3.967 4.133 8.242 5.289 12.711a4.017 4.017 0 0 0 3.271 3.004l12.744 2.165c.41.058.68.39.68.779v12.785h-.034z"/><path fill="#F1F2F2" d="M254.03 248.096c-17.311 0-31.358 14.045-31.358 31.341 0 17.308 14.047 31.373 31.358 31.373 17.293 0 31.358-14.065 31.358-31.373 0-17.295-14.065-31.341-31.358-31.341zm0 54.508c-12.786 0-23.167-10.381-23.167-23.166 0-12.771 10.381-23.153 23.167-23.153 12.771 0 23.149 10.382 23.149 23.153 0 12.785-10.378 23.166-23.149 23.166z"/><path fill="#F3BA85" d="M238.03 313.021l14.026 7.913v-17.115H238.03z"/><path fill="#FDD29D" d="M252.056 312.377s-16.431-6.568-17.97-14.906l-1.524-8.345s-5.271-3.061-5.271-10.081c0-7.005 2.411-4.813 2.411-4.813l7.018-20.825 15.337 2.2v56.77z"/><path fill="#FFF" d="M238.03 313.021l14.026 54.134v-46.221z"/><path fill="#EF4136" d="M256.743 323.455l-4.687-2.521v45.673l5.1-16.766-3.288-22.028z"/><path fill="#F3C094" d="M266.079 313.021l-14.023 7.913v-17.115h14.023z"/><path fill="#FED9A0" d="M252.056 312.377s16.443-6.568 17.967-14.906l1.539-8.345s5.266-3.061 5.266-10.081c0-7.005-2.417-4.813-2.417-4.813l-7.006-20.825-15.349 2.2v56.77z"/><path fill="#FFF" d="M266.079 313.021l-14.466 54.134v-46.221z"/><path d="M252.056 266.017s-6.73-1.15-10.36-4.612l-3.618-3.441-3.112 14.787.985 7.235-.985 1.318-1.8-3.463s-4.513-3.936-5.876-6.892c-1.372-2.968-3.666-16.376 2.573-23.148 6.253-6.773 10.638-9.301 15.188-10.087 4.538-.795 8.641-.548 8.641-.548s3.798-2.565 8.383-.664c4.612 1.89 15.299 13.73 15.299 13.73s1.965 7.561 1.639 12.493c-.33 4.927-1.968 11.671-3.457 13.315-1.474 1.645-1.474 5.263-1.474 5.263s-4.433-14.143-4.105-17.432c.326-3.288-2.798-3.941-2.798-3.941l-3.618-.164 3.454 4.765s-13.649-4.415-14.958-5.981c-1.324-1.583 5.1 7.623 5.1 7.623l-5.101-.156z"/><path fill="#485A93" d="M266.079 313.021l-14.023 52.107-14.026-52.107-34.616 15.61-1.803 24.918c14.706 13.729 34.389 17.11 56.052 17.11 18.245 0 35.057-4.226 48.731-14.313l-5.685-27.716-34.63-15.609z"/></svg>