<svg xmlns="http://www.w3.org/2000/svg" width="512" height="512" viewBox="0 0 512 512"><circle fill="#FBB040" cx="267.447" cy="258.207" r="166.772"/><path fill="#EF4136" d="M335.653 368.488c11.488 0 20.811-9.314 20.811-20.802v-36.721h9.573c10.961 0 15.909-7.982 10.692-17.832l-20.266-38.894v-16.441c0-39.75-23.577-57.347-57.522-73.257-12.883-6.28-27.414-9.578-42.472-9.578-54.804 0-99.182 44.643-99.393 99.45-7.513 44.188 29.174 85.378 48.914 103.47v55.259c19.033 7.562 39.729 11.837 61.456 11.837 13.622 0 26.798-1.81 39.471-4.893v-55.964l28.736 4.366z"/><g fill="#FFF"><path d="M268.437 289.727v4.283c0 3.399-2.507 6.231-5.769 6.718l-1.038 3.878a4.847 4.847 0 0 1-4.682 3.595H246.49c-2.199 0-4.089-1.478-4.665-3.595l-1.03-3.878a6.817 6.817 0 0 1-5.777-6.75v-4.284a4.114 4.114 0 0 1 4.122-4.129h25.159c2.296.032 4.138 1.873 4.138 4.162z"/><path d="M287.811 246.017c0 9.731-3.861 18.559-10.125 25.041a33.04 33.04 0 0 0-8.859 17.963 5.983 5.983 0 0 1-5.906 5.03h-22.393c-2.92 0-5.46-2.109-5.882-5.006-1.046-6.718-4.146-13.103-8.916-18.011-6.142-6.394-9.971-15.07-10.061-24.628a35.982 35.982 0 0 1 35.835-36.464c20.04-.15 36.307 16.064 36.307 36.075zm-36.079-47.92a4.067 4.067 0 0 0 4.073-4.069v-14.25a4.067 4.067 0 0 0-4.073-4.069 4.05 4.05 0 0 0-4.065 4.069v14.25a4.07 4.07 0 0 0 4.065 4.069zm-47.884 47.887a4.067 4.067 0 0 0-4.064-4.068h-14.255a4.072 4.072 0 0 0-4.064 4.068 4.07 4.07 0 0 0 4.064 4.069h14.255a4.047 4.047 0 0 0 4.064-4.069zm114.087-4.068h-14.247a4.072 4.072 0 0 0-4.064 4.068 4.07 4.07 0 0 0 4.064 4.069h14.247a4.071 4.071 0 0 0 4.081-4.069 4.077 4.077 0 0 0-4.081-4.068zM212.14 279.86l-10.093 10.093a4.047 4.047 0 0 0 2.855 6.929 4.11 4.11 0 0 0 2.872-1.168l10.093-10.101a4.066 4.066 0 0 0 0-5.753 4.022 4.022 0 0 0-5.727 0zm76.336-66.543c1.022 0 2.077-.39 2.856-1.176l10.101-10.093a4.055 4.055 0 0 0 0-5.756 4.05 4.05 0 0 0-5.752 0l-10.102 10.097a4.036 4.036 0 0 0 0 5.752 4.122 4.122 0 0 0 2.897 1.176zm-76.336-1.205a4.045 4.045 0 0 0 2.864 1.172 4.06 4.06 0 0 0 2.864-1.172 4.07 4.07 0 0 0 0-5.756l-10.093-10.097c-1.606-1.594-4.17-1.594-5.752 0a4.045 4.045 0 0 0 0 5.76l10.117 10.093zm79.192 67.748a4.051 4.051 0 0 0-5.753 0 4.037 4.037 0 0 0 0 5.753l10.102 10.101a4.041 4.041 0 0 0 2.855 1.168c1.022 0 2.085-.39 2.864-1.168a4.075 4.075 0 0 0 0-5.761l-10.068-10.093z"/></g><path d="M450.615 315.022h40.209v6.313h-40.209zm45.969 0h15.756v6.313h-15.756z" fill="#D4EEF8"/><g fill="#D4EEF8"><path d="M16.063 141.513h36.704v4.499H16.063z"/><path d="M32.167 125.408h4.479v36.711h-4.479z"/></g><g fill="#FDBA12"><path d="M456.393 120.909h36.695v4.495h-36.695z"/><path d="M472.497 104.805h4.486v36.708h-4.486z"/></g><g fill="#D4EEF8"><path d="M402.976 392.292h36.704v4.494h-36.704z"/><path d="M419.08 376.195h4.486v36.704h-4.486z"/></g><path fill="#FDBA12" d="M31.705 273.086c0 8.665-7.026 15.667-15.674 15.667S.34 281.751.34 273.086c0-8.656 7.042-15.67 15.691-15.67s15.674 7.014 15.674 15.67z"/><path fill="#D4EEF8" d="M72.343 216.274c0 5.399-4.389 9.78-9.792 9.78-5.387 0-9.784-4.381-9.784-9.78 0-5.407 4.397-9.784 9.784-9.784 5.403 0 9.792 4.377 9.792 9.784z"/><path fill="#FDBA12" d="M456.952 360.147c0 5.403-4.381 9.784-9.793 9.784-5.387 0-9.784-4.381-9.784-9.784s4.397-9.776 9.784-9.776c5.412 0 9.793 4.373 9.793 9.776z"/><path fill="#D4EEF8" d="M496.568 350.38c0 2.726-2.215 4.948-4.949 4.948s-4.965-2.223-4.965-4.948c0-2.742 2.23-4.966 4.965-4.966s4.949 2.224 4.949 4.966zM394.992 100.367c0-7.27 5.906-13.176 13.159-13.176 7.278 0 13.185 5.906 13.185 13.176 0 7.273-5.906 13.155-13.185 13.155-7.253 0-13.159-5.881-13.159-13.155zm65.83 89.3c0-3.841 3.115-6.969 6.944-6.969 3.862 0 6.985 3.127 6.985 6.969 0 3.85-3.123 6.957-6.985 6.957-3.828.001-6.944-3.106-6.944-6.957z"/></svg>