<svg xmlns="http://www.w3.org/2000/svg" width="512" height="512" viewBox="0 0 512 512"><circle fill="#FFF" cx="256.289" cy="255.912" r="256"/><path fill="#8AD7F8" d="M248.368 382.919c-70.919 0-128.615-57.702-128.615-128.621s57.696-128.619 128.615-128.619c70.922 0 128.624 57.7 128.624 128.619S319.29 382.919 248.368 382.919zm0-247.087c-65.321 0-118.461 53.144-118.461 118.466 0 65.324 53.14 118.468 118.461 118.468 65.324 0 118.471-53.144 118.471-118.468 0-65.323-53.147-118.466-118.471-118.466z"/><path fill="#E6E7E8" d="M248.371 339.925c-47.216 0-85.624-38.411-85.624-85.627 0-47.213 38.408-85.626 85.624-85.626 47.214 0 85.628 38.413 85.628 85.626 0 47.216-38.414 85.627-85.628 85.627zm0-164.493c-43.487 0-78.864 35.38-78.864 78.866 0 43.487 35.377 78.867 78.864 78.867s78.868-35.38 78.868-78.867c0-43.486-35.381-78.866-78.868-78.866z"/><path fill="#485A93" d="M248.371 306.189c-28.611 0-51.888-23.28-51.888-51.892 0-28.613 23.277-51.892 51.888-51.892 28.614 0 51.892 23.279 51.892 51.892 0 28.612-23.278 51.892-51.892 51.892zm0-99.686c-26.353 0-47.791 21.44-47.791 47.794 0 26.353 21.438 47.797 47.791 47.797 26.356 0 47.798-21.444 47.798-47.797 0-26.354-21.441-47.794-47.798-47.794z"/><path d="M402.645 233.731h27.2v4.271h-27.2zm31.093 0h10.665v4.271h-10.665zM68.515 325.108h27.201v4.271H68.515zm31.091 0h10.666v4.271H99.606zm40.103-220.275h27.201v4.272h-27.201zm31.091 0h10.668v4.272H170.8z" fill="#F1F2F2"/><g fill="#FFDE17"><path d="M87.228 157.375h24.835v3.044H87.228z"/><path d="M98.121 146.479h3.037v24.84h-3.037z"/></g><g fill="#F1F2F2"><path d="M385.175 143.433h24.834v3.042h-24.834z"/><path d="M396.067 132.537h3.037v24.838h-3.037z"/></g><g fill="#F1F2F2"><path d="M416.248 283.646h17.419v2.133h-17.419z"/><path d="M423.885 276h2.133v17.422h-2.133z"/></g><g fill="#8DC63F"><path d="M279.854 87.067h17.416v2.134h-17.416z"/><path d="M287.495 79.422h2.13v17.422h-2.13z"/></g><path fill="#F1F2F2" d="M89.396 225.2c0 5.863-4.759 10.601-10.608 10.601s-10.614-4.738-10.614-10.601c0-5.858 4.765-10.604 10.614-10.604 5.849 0 10.608 4.745 10.608 10.604z"/><path fill="#F7941E" d="M114.231 196.146a6.622 6.622 0 0 1-6.625 6.619c-3.645 0-6.622-2.962-6.622-6.619 0-3.658 2.977-6.617 6.622-6.617a6.62 6.62 0 0 1 6.625 6.617z"/><path fill="#F1F2F2" d="M406.924 264.269a6.62 6.62 0 0 1-13.24 0 6.626 6.626 0 0 1 6.625-6.621 6.619 6.619 0 0 1 6.615 6.621z"/><path fill="#8DC63F" d="M433.729 257.653a3.353 3.353 0 0 1-3.346 3.351 3.358 3.358 0 0 1-3.357-3.351 3.357 3.357 0 0 1 3.357-3.355 3.35 3.35 0 0 1 3.346 3.355z"/><path fill="#F1F2F2" d="M343.631 129.536c0-4.922 3.992-8.916 8.907-8.916a8.914 8.914 0 0 1 8.916 8.916c0 4.919-3.986 8.903-8.916 8.903-4.915 0-8.907-3.983-8.907-8.903zM207.852 90.561c0-4.919 3.996-8.916 8.907-8.916 4.93 0 8.917 3.997 8.917 8.916s-3.986 8.904-8.917 8.904c-4.912 0-8.907-3.985-8.907-8.904z"/><path fill="#FFDE17" d="M395.591 181.351a4.717 4.717 0 0 1 4.708-4.718 4.718 4.718 0 0 1 4.718 4.718 4.707 4.707 0 0 1-4.718 4.706 4.707 4.707 0 0 1-4.708-4.706zM229.215 76.939a4.717 4.717 0 0 1 4.711-4.717 4.72 4.72 0 0 1 4.717 4.717 4.708 4.708 0 0 1-4.717 4.705 4.706 4.706 0 0 1-4.711-4.705z"/><path fill="#F1F2F2" d="M243.66 99.471a4.72 4.72 0 0 1 4.708-4.717 4.717 4.717 0 0 1 4.717 4.717 4.706 4.706 0 0 1-4.717 4.705 4.708 4.708 0 0 1-4.708-4.705zM87.228 261.801l2.168 6.915 6.918 2.171-6.918 2.169-2.168 6.918-2.165-6.918-6.919-2.169 6.655-2.171zm315.417 56.359l2.165 6.913 6.921 2.171-6.921 2.169-2.165 6.915-2.169-6.915-6.918-2.169 6.657-2.171zM188.747 65.733l2.671 8.526 8.53 2.674-8.53 2.675-2.671 8.525-2.672-8.525-8.53-2.675 8.209-2.674z"/><path d="M260.108 409.131h-56.3l-.393-.267c-11.185-7.644-21.374-.123-21.477-.045l-.412.312h-51.573a1.533 1.533 0 1 1 0-3.067h50.587c2.276-1.488 12.796-7.493 24.206 0h55.361a1.534 1.534 0 0 1 .001 3.067zm41.55 0h-34.313a1.533 1.533 0 1 1 0-3.067h34.313a1.534 1.534 0 1 1 0 3.067zm81.255 0h-55.546a1.533 1.533 0 1 1 0-3.067h55.546a1.533 1.533 0 1 1 0 3.067zm-63.943 0h-11.594a1.533 1.533 0 1 1 0-3.067h11.594a1.533 1.533 0 1 1 0 3.067zm-89.41 23.265H170.8a1.533 1.533 0 0 1 0-3.067h58.759a1.533 1.533 0 1 1 .001 3.067zm117.137 0h-84.726a1.533 1.533 0 1 1 0-3.067h84.726a1.533 1.533 0 1 1 0 3.067zm-96.475 0h-11.594a1.533 1.533 0 1 1 0-3.067h11.594a1.533 1.533 0 1 1 0 3.067z" fill="#D4EEF8"/><circle fill="#5D84C3" cx="293.341" cy="186.057" r="16.078"/><circle fill="#FFD682" cx="335.047" cy="339.925" r="16.077"/><path fill="#F15D62" d="M228.131 283.643c0 8.281-6.708 14.996-14.993 14.996-8.281 0-14.993-6.715-14.993-14.996s6.712-14.993 14.993-14.993c8.284-.001 14.993 6.711 14.993 14.993z"/><path fill="#E6E7E8" d="M248.371 395.272a3.067 3.067 0 0 1-3.067-3.066v-3.067a3.067 3.067 0 0 1 6.134 0v3.067a3.067 3.067 0 0 1-3.067 3.066zm0-15.334a3.067 3.067 0 0 1-3.067-3.067v-3.066a3.067 3.067 0 0 1 6.134 0v3.066a3.067 3.067 0 0 1-3.067 3.067zm0-15.334a3.067 3.067 0 0 1-3.067-3.066v-3.066a3.067 3.067 0 0 1 6.134 0v3.066a3.067 3.067 0 0 1-3.067 3.066zm0-15.334a3.067 3.067 0 0 1-3.067-3.066v-3.067a3.067 3.067 0 0 1 6.134 0v3.067a3.067 3.067 0 0 1-3.067 3.066zm0-15.334a3.067 3.067 0 0 1-3.067-3.067v-3.066a3.067 3.067 0 0 1 6.134 0v3.066a3.067 3.067 0 0 1-3.067 3.067zm0-15.335a3.067 3.067 0 0 1-3.067-3.066v-3.067a3.067 3.067 0 0 1 6.134 0v3.067a3.067 3.067 0 0 1-3.067 3.066zm0-15.334a3.067 3.067 0 0 1-3.067-3.067v-3.066a3.067 3.067 0 0 1 6.134 0v3.066a3.067 3.067 0 0 1-3.067 3.067zm0-15.335a3.067 3.067 0 0 1-3.067-3.066v-3.067a3.067 3.067 0 0 1 6.134 0v3.067a3.067 3.067 0 0 1-3.067 3.066zm0-15.334a3.067 3.067 0 0 1-3.067-3.067v-3.066a3.067 3.067 0 0 1 6.134 0v3.066a3.067 3.067 0 0 1-3.067 3.067zm0-15.335a3.066 3.066 0 0 1-3.067-3.067v-3.067a3.067 3.067 0 1 1 6.134 0v3.067a3.066 3.066 0 0 1-3.067 3.067zm0-15.335a3.066 3.066 0 0 1-3.067-3.067v-3.067a3.067 3.067 0 1 1 6.134 0v3.067a3.066 3.066 0 0 1-3.067 3.067zm0-15.334a3.066 3.066 0 0 1-3.067-3.067v-3.067a3.067 3.067 0 1 1 6.134 0v3.067a3.066 3.066 0 0 1-3.067 3.067zm0-15.335a3.066 3.066 0 0 1-3.067-3.067v-3.067a3.067 3.067 0 1 1 6.134 0v3.067a3.066 3.066 0 0 1-3.067 3.067zm0-15.334a3.066 3.066 0 0 1-3.067-3.067v-3.067a3.066 3.066 0 0 1 3.067-3.066 3.066 3.066 0 0 1 3.067 3.066v3.067a3.066 3.066 0 0 1-3.067 3.067zm0-15.334a3.067 3.067 0 0 1-3.067-3.067v-3.066a3.066 3.066 0 1 1 6.134 0v3.066a3.067 3.067 0 0 1-3.067 3.067zm0-15.335a3.067 3.067 0 0 1-3.067-3.067v-3.067a3.066 3.066 0 1 1 6.134 0v3.067a3.066 3.066 0 0 1-3.067 3.067zm0-15.334a3.067 3.067 0 0 1-3.067-3.067v-3.067a3.066 3.066 0 1 1 6.134 0v3.067a3.067 3.067 0 0 1-3.067 3.067zm0-15.335a3.067 3.067 0 0 1-3.067-3.067v-3.067a3.066 3.066 0 1 1 6.134 0v3.067a3.066 3.066 0 0 1-3.067 3.067zm0-15.334a3.067 3.067 0 0 1-3.067-3.067v-3.067a3.066 3.066 0 1 1 6.134 0v3.067a3.067 3.067 0 0 1-3.067 3.067z"/><path d="M111.946 254.145h-1.534a3.066 3.066 0 1 1 0-6.134h1.534a3.066 3.066 0 1 1 0 6.134zm260.589 0h-3.066a3.066 3.066 0 1 1 0-6.134h3.066a3.066 3.066 0 1 1 0 6.134zm-15.328 0h-3.067c-1.694 0-3.066-1.373-3.066-3.067s1.372-3.067 3.066-3.067h3.067c1.695 0 3.066 1.373 3.066 3.067s-1.371 3.067-3.066 3.067zm-15.328 0h-3.067c-1.695 0-3.066-1.373-3.066-3.067s1.371-3.067 3.066-3.067h3.067c1.694 0 3.066 1.373 3.066 3.067s-1.372 3.067-3.066 3.067zm-15.329 0h-3.066a3.066 3.066 0 1 1 0-6.134h3.066a3.066 3.066 0 1 1 0 6.134zm-15.328 0h-3.067c-1.694 0-3.066-1.373-3.066-3.067s1.372-3.067 3.066-3.067h3.067c1.695 0 3.066 1.373 3.066 3.067s-1.371 3.067-3.066 3.067zm-15.328 0h-3.067c-1.695 0-3.066-1.373-3.066-3.067s1.371-3.067 3.066-3.067h3.067c1.694 0 3.066 1.373 3.066 3.067s-1.372 3.067-3.066 3.067zm-15.33 0h-3.066a3.066 3.066 0 1 1 0-6.134h3.066a3.066 3.066 0 1 1 0 6.134zm-15.331 0h-3.064c-1.694 0-3.066-1.373-3.066-3.067s1.372-3.067 3.066-3.067h3.064c1.695 0 3.066 1.373 3.066 3.067s-1.37 3.067-3.066 3.067zm-15.328 0h-3.064a3.066 3.066 0 1 1 0-6.134h3.064a3.066 3.066 0 1 1 0 6.134zm-15.329 0h-3.064a3.066 3.066 0 1 1 0-6.134h3.064a3.066 3.066 0 1 1 0 6.134zm-15.328 0h-3.064a3.066 3.066 0 1 1 0-6.134h3.064c1.695 0 3.066 1.373 3.066 3.067s-1.371 3.067-3.066 3.067zm-15.329 0h-3.067a3.066 3.066 0 1 1 0-6.134h3.067a3.066 3.066 0 1 1 0 6.134zm-15.328 0h-3.067a3.066 3.066 0 1 1 0-6.134h3.067a3.066 3.066 0 1 1 0 6.134zm-15.329 0h-3.067a3.066 3.066 0 1 1 0-6.134h3.067a3.066 3.066 0 1 1 0 6.134zm-15.328 0h-3.067a3.066 3.066 0 1 1 0-6.134h3.067a3.066 3.066 0 1 1 0 6.134zm-15.329 0h-3.067a3.066 3.066 0 1 1 0-6.134h3.067a3.066 3.066 0 1 1 0 6.134zm-15.328 0h-3.067a3.066 3.066 0 1 1 0-6.134h3.067a3.066 3.066 0 1 1 0 6.134zm259.053 0h-1.533c-1.695 0-3.066-1.373-3.066-3.067s1.371-3.067 3.066-3.067h1.533a3.066 3.066 0 1 1 0 6.134z" fill="#E6E7E8"/></svg>