<svg xmlns="http://www.w3.org/2000/svg" width="512" height="512" viewBox="0 0 512 512"><path d="M450.4 323.918h40.209v6.313H450.4zm45.969 0h15.756v6.313h-15.756z" fill="#D4EEF8"/><g fill="#D4EEF8"><path d="M15.848 150.412h36.704v4.495H15.848z"/><path d="M31.953 134.299h4.479v36.72h-4.479z"/></g><g fill="#FDBA12"><path d="M456.177 129.805h36.696v4.495h-36.696z"/><path d="M472.281 113.7h4.487v36.712h-4.487z"/></g><g fill="#D4EEF8"><path d="M402.761 401.188h36.703v4.494h-36.703z"/><path d="M418.865 385.091h4.486v36.703h-4.486z"/></g><path fill="#FDBA12" d="M31.49 281.981c0 8.665-7.026 15.667-15.675 15.667-8.648 0-15.69-7.002-15.69-15.667 0-8.656 7.042-15.666 15.69-15.666 8.649 0 15.675 7.01 15.675 15.666z"/><path fill="#D4EEF8" d="M72.128 225.166c0 5.403-4.389 9.784-9.792 9.784-5.387 0-9.784-4.381-9.784-9.784 0-5.403 4.397-9.785 9.784-9.785 5.403 0 9.792 4.382 9.792 9.785z"/><path fill="#FDBA12" d="M456.737 369.043c0 5.403-4.382 9.784-9.793 9.784-5.387 0-9.784-4.381-9.784-9.784s4.397-9.776 9.784-9.776c5.411 0 9.793 4.373 9.793 9.776z"/><path fill="#D4EEF8" d="M496.354 359.275c0 2.726-2.215 4.948-4.949 4.948s-4.966-2.223-4.966-4.948c0-2.743 2.231-4.966 4.966-4.966s4.949 2.223 4.949 4.966zM394.777 109.262c0-7.269 5.906-13.175 13.159-13.175 7.277 0 13.184 5.906 13.184 13.175 0 7.27-5.906 13.16-13.184 13.16-7.252 0-13.159-5.89-13.159-13.16zm65.829 89.301c0-3.837 3.116-6.969 6.945-6.969 3.861 0 6.985 3.132 6.985 6.969 0 3.854-3.124 6.953-6.985 6.953a6.945 6.945 0 0 1-6.945-6.953z"/><path fill="#E7E9ED" d="M265.139 363.169c-29.954 0-58.13-11.666-79.313-32.857-21.183-21.184-32.858-49.353-32.858-79.313 0-29.97 11.675-58.122 32.858-79.313s49.36-32.858 79.313-32.858c29.953 0 58.122 11.667 79.321 32.858 21.175 21.191 32.85 49.344 32.85 79.313 0 29.961-11.675 58.13-32.85 79.313-21.199 21.191-49.368 32.857-79.321 32.857zm0-215.215c-56.824 0-103.036 46.229-103.036 103.044 0 56.824 46.212 103.036 103.036 103.036 56.815 0 103.036-46.212 103.036-103.036 0-56.816-46.221-103.044-103.036-103.044z"/><path fill="#E7E9ED" d="M265.139 420.229c-45.206 0-87.703-17.605-119.668-49.563-31.965-31.966-49.563-74.462-49.563-119.668s17.598-87.703 49.563-119.668c31.965-31.966 74.462-49.563 119.668-49.563s87.702 17.597 119.659 49.563c31.974 31.965 49.571 74.462 49.571 119.668s-17.598 87.702-49.571 119.668c-31.957 31.957-74.453 49.563-119.659 49.563zm0-329.334c-88.278 0-160.096 71.817-160.096 160.104 0 88.286 71.817 160.095 160.096 160.095 88.286 0 160.104-71.809 160.104-160.095-.001-88.288-71.818-160.104-160.104-160.104z"/><path fill="#E7E9ED" d="M265.139 316.26c-35.981 0-65.262-29.28-65.262-65.262s29.28-65.254 65.262-65.254 65.262 29.272 65.262 65.254c-.001 35.981-29.281 65.262-65.262 65.262zm0-121.388c-30.952 0-56.126 25.175-56.126 56.126 0 30.943 25.175 56.126 56.126 56.126 30.951 0 56.126-25.183 56.126-56.126 0-30.952-25.175-56.126-56.126-56.126z"/><path fill="#E7E9ED" d="M265.139 278.712c-15.285 0-27.723-12.429-27.723-27.714s12.438-27.723 27.723-27.723 27.723 12.438 27.723 27.723-12.438 27.714-27.723 27.714zm0-46.309c-10.255 0-18.595 8.34-18.595 18.595 0 10.255 8.34 18.595 18.595 18.595s18.587-8.34 18.587-18.595c0-10.255-8.332-18.595-18.587-18.595z"/><path fill="#3079BE" d="M432.422 274.964l-167.324-23.763 157.297-61.952c11.228 27.268 14.538 57.035 10.027 85.715z"/><path fill="#F3715B" d="M215.113 122.917c15.885 0 28.753 12.875 28.753 28.753s-12.868 28.753-28.753 28.753-28.753-12.875-28.753-28.753 12.868-28.753 28.753-28.753z"/><path fill="#C4DC7A" d="M321.743 374.154c15.886 0 28.753 12.867 28.753 28.753 0 15.877-12.867 28.753-28.753 28.753-15.885 0-28.761-12.876-28.761-28.753 0-15.886 12.876-28.753 28.761-28.753z"/><path fill="#F8971D" d="M211.706 256.223c9.897 0 17.93 8.032 17.93 17.93 0 9.906-8.032 17.93-17.93 17.93s-17.93-8.023-17.93-17.93c0-9.898 8.032-17.93 17.93-17.93z"/><path fill="#FFF" d="M212.988 168.115v-3.821c-2.71-.13-5.338-.893-6.864-1.736l1.209-4.714c1.695.917 4.073 1.769 6.701 1.769 2.329 0 3.902-.925 3.902-2.499 0-1.533-1.29-2.499-4.3-3.505-4.324-1.46-7.27-3.472-7.27-7.383 0-3.594 2.507-6.369 6.815-7.18v-3.829h3.959v3.545c2.653.081 4.462.689 5.882 1.338l-1.209 4.551c-1.022-.486-2.904-1.412-5.801-1.412-2.628 0-3.464 1.168-3.464 2.304 0 1.282 1.395 2.174 4.868 3.424 4.795 1.696 6.685 3.911 6.685 7.578 0 3.586-2.499 6.653-7.123 7.423v4.146h-3.99zm106.621 252.114V416.4c-2.709-.122-5.338-.885-6.863-1.729l1.209-4.722c1.695.925 4.072 1.769 6.701 1.769 2.328 0 3.902-.925 3.902-2.499 0-1.533-1.298-2.499-4.3-3.505-4.324-1.452-7.27-3.472-7.27-7.374 0-3.595 2.507-6.369 6.815-7.188v-3.821h3.951v3.537c2.661.089 4.47.698 5.882 1.347l-1.201 4.552c-1.022-.487-2.904-1.42-5.801-1.42-2.629 0-3.464 1.168-3.464 2.304 0 1.29 1.396 2.175 4.867 3.424 4.795 1.704 6.686 3.911 6.686 7.586 0 3.586-2.499 6.645-7.123 7.424v4.146h-3.991zM210.311 284.976v-2.516c-1.785-.081-3.513-.584-4.519-1.136l.795-3.107c1.12.608 2.677 1.169 4.405 1.169 1.542 0 2.572-.608 2.572-1.647 0-1.006-.852-1.646-2.831-2.304-2.84-.958-4.779-2.288-4.779-4.852 0-2.369 1.647-4.194 4.486-4.73v-2.522h2.596v2.336c1.752.057 2.937.454 3.87.876l-.795 3.002c-.666-.324-1.907-.925-3.813-.925-1.728 0-2.28.763-2.28 1.51 0 .844.917 1.428 3.197 2.255 3.164 1.111 4.405 2.563 4.405 4.981 0 2.361-1.647 4.381-4.689 4.884v2.727h-2.62z"/></svg>