<svg xmlns="http://www.w3.org/2000/svg" width="512" height="512" viewBox="0 0 512 512"><path d="M450.827 291.376h39.806v6.249h-39.806zm45.509 0h15.598v6.249h-15.598z" fill="#D4EEF8"/><g fill="#D4EEF8"><path d="M15.5 148.738h36.336v4.45H15.5z"/><path d="M31.442 132.787h4.434v36.352h-4.434z"/></g><g fill="#FDBA12"><path d="M451.422 128.337h36.328v4.45h-36.328z"/><path d="M467.364 112.394h4.442v36.344h-4.442z"/></g><g fill="#D4EEF8"><path d="M398.539 397.004h36.337v4.449h-36.337z"/><path d="M414.482 381.068h4.442v36.336h-4.442z"/></g><path fill="#FDBA12" d="M30.985 278.991c0 8.578-6.956 15.51-15.518 15.51s-15.534-6.932-15.534-15.51c0-8.57 6.972-15.51 15.534-15.51s15.518 6.94 15.518 15.51z"/><path fill="#D4EEF8" d="M71.216 222.744c0 5.349-4.345 9.687-9.694 9.687-5.333 0-9.687-4.337-9.687-9.687s4.354-9.687 9.687-9.687c5.349.001 9.694 4.338 9.694 9.687z"/><path fill="#FDBA12" d="M451.976 365.182c0 5.349-4.337 9.687-9.694 9.687-5.333 0-9.687-4.338-9.687-9.687 0-5.35 4.354-9.679 9.687-9.679 5.357 0 9.694 4.329 9.694 9.679z"/><path fill="#D4EEF8" d="M491.195 355.511c0 2.699-2.192 4.899-4.899 4.899s-4.916-2.2-4.916-4.899c0-2.715 2.209-4.915 4.916-4.915s4.899 2.2 4.899 4.915zM390.636 108c0-7.196 5.848-13.043 13.028-13.043 7.204 0 13.052 5.847 13.052 13.043 0 7.197-5.848 13.028-13.052 13.028-7.181 0-13.028-5.831-13.028-13.028zm65.171 88.408c0-3.799 3.084-6.899 6.875-6.899 3.823 0 6.916 3.1 6.916 6.899 0 3.815-3.093 6.883-6.916 6.883a6.874 6.874 0 0 1-6.875-6.883z"/><path fill="#FFD682" d="M245.966 153.574l29.107-17.445c4.233-2.53 4.249-6.667.024-9.213l-29.373-17.798c-4.249-2.554-7.646-.619-7.614 4.313l.145 35.782c.024 4.947 3.486 6.891 7.711 4.361z"/><path fill="#77A9D8" d="M278.117 399.341l.153-35.773c.032-4.94-3.382-6.876-7.622-4.321l-29.381 17.79c-4.225 2.563-4.209 6.683.024 9.221l29.116 17.438c4.24 2.536 7.702.592 7.71-4.355z"/><path fill="#77A9D8" d="M258.19 385.599a4.11 4.11 0 0 1-4.112-4.112 4.11 4.11 0 0 1 4.112-4.112c66.697 0 120.952-54.264 120.952-120.96 0-53.878-36.151-101.74-87.909-116.382a4.116 4.116 0 0 1-2.843-5.076 4.138 4.138 0 0 1 5.076-2.843c55.291 15.646 93.9 66.761 93.9 124.301.001 71.233-57.949 129.184-129.176 129.184z"/><path fill="#FFD682" d="M226.352 381.51c-.345 0-.69-.04-1.044-.136-56.697-14.867-96.302-66.247-96.302-124.96 0-66.504 51.838-123.04 118.012-128.703 2.233-.153 4.249 1.478 4.45 3.743a4.114 4.114 0 0 1-3.743 4.45c-61.958 5.301-110.495 58.239-110.495 120.51 0 54.97 37.075 103.089 90.166 117.008a4.113 4.113 0 1 1-1.044 8.088z"/><path fill="#A2D8CB" d="M348.083 281.69c0 5.349-4.337 9.686-9.687 9.686H185.63c-5.349 0-9.686-4.337-9.686-9.686 0-5.35 4.337-9.687 9.686-9.687h152.766c5.35.001 9.687 4.338 9.687 9.687z"/><path fill="#5D84C3" d="M348.083 316.813c0 5.349-4.337 9.687-9.687 9.687H185.63c-5.349 0-9.686-4.338-9.686-9.687 0-5.35 4.337-9.687 9.686-9.687h152.766c5.35.001 9.687 4.338 9.687 9.687z"/><path d="M279.146 186.279c0 9.461-7.662 17.132-17.14 17.132-9.462 0-17.124-7.67-17.124-17.132 0-9.47 7.662-17.14 17.124-17.14 9.477 0 17.14 7.671 17.14 17.14zm13.991 53.179l-7.292-22.778a3.873 3.873 0 0 0-.724-1.301c-2.104-3.695-6.04-6.217-10.594-6.217H249.5c-4.514 0-8.409 2.466-10.53 6.096-.377.401-.699.859-.875 1.422l-7.293 22.778a3.742 3.742 0 0 0 2.426 4.707l4.04 1.293v.964c0 6.755 5.47 12.232 12.232 12.232h25.027c6.755 0 12.232-5.478 12.232-12.232v-.996l3.952-1.261a3.746 3.746 0 0 0 2.426-4.707z" fill="#F15D62"/></svg>