<svg xmlns="http://www.w3.org/2000/svg" width="512" height="512" viewBox="0 0 512 512"><path d="M450.763 291.172h39.806v6.249h-39.806zm45.508 0h15.598v6.249h-15.598z" fill="#D4EEF8"/><g fill="#D4EEF8"><path d="M15.435 148.534h36.336v4.45H15.435z"/><path d="M31.378 132.583h4.434v36.352h-4.434z"/></g><g fill="#FDBA12"><path d="M451.356 128.133h36.329v4.45h-36.329z"/><path d="M467.3 112.19h4.442v36.344H467.3z"/></g><g fill="#D4EEF8"><path d="M398.475 396.8h36.337v4.449h-36.337z"/><path d="M414.418 380.864h4.442V417.2h-4.442z"/></g><path fill="#FDBA12" d="M30.92 278.787c0 8.578-6.956 15.51-15.518 15.51s-15.534-6.932-15.534-15.51c0-8.57 6.972-15.51 15.534-15.51s15.518 6.94 15.518 15.51z"/><path fill="#D4EEF8" d="M71.152 222.54c0 5.349-4.345 9.687-9.694 9.687-5.333 0-9.687-4.337-9.687-9.687s4.354-9.687 9.687-9.687c5.349.001 9.694 4.338 9.694 9.687z"/><path fill="#FDBA12" d="M451.911 364.978c0 5.349-4.337 9.687-9.694 9.687-5.333 0-9.687-4.338-9.687-9.687 0-5.35 4.354-9.679 9.687-9.679 5.357 0 9.694 4.329 9.694 9.679z"/><path fill="#D4EEF8" d="M491.131 355.307c0 2.699-2.192 4.899-4.899 4.899s-4.916-2.2-4.916-4.899c0-2.715 2.209-4.915 4.916-4.915s4.899 2.2 4.899 4.915zm-100.56-247.511c0-7.196 5.848-13.043 13.028-13.043 7.204 0 13.052 5.847 13.052 13.043 0 7.197-5.848 13.028-13.052 13.028-7.18 0-13.028-5.831-13.028-13.028zm65.171 88.408c0-3.799 3.084-6.899 6.875-6.899 3.823 0 6.916 3.1 6.916 6.899 0 3.815-3.093 6.883-6.916 6.883a6.874 6.874 0 0 1-6.875-6.883z"/><path fill="#D7DF23" d="M285.49 215.881h44.851v118.35H285.49z"/><path fill="#FEC36F" d="M219.107 255.977h44.834v78.255h-44.834z"/><path fill="#A5D16D" d="M152.724 293.951h44.81v40.28h-44.81z"/><path fill="#F3715B" d="M330.261 133.715l-55.661 14.9 16.417 16.409-47.132 47.107h-49.629l-44.657 44.673.257 18.249 49.83-49.726h49.637l50.947-51.051 15.204 15.108z"/><path fill="#F8971D" d="M353.513 153.899h-16.185l-3.341 12.112h19.525c10.04 0 18.2 8.168 18.2 18.2v155.063c0 10.031-8.16 18.2-18.2 18.2H126.419c-10.032 0-18.2-8.169-18.2-18.2V184.212c0-10.032 8.168-18.2 18.2-18.2H275.29L263.941 153.9H126.419c-16.714 0-30.313 13.598-30.313 30.313v155.063c0 16.714 13.598 30.313 30.313 30.313h227.093c16.723 0 30.32-13.599 30.32-30.313V184.212c.001-16.714-13.597-30.313-30.319-30.313z"/></svg>