<svg xmlns="http://www.w3.org/2000/svg" width="512" height="512" viewBox="0 0 512 512"><circle fill="#FFF" cx="256.345" cy="255.912" r="256"/><path fill="#8AD7F8" d="M260.617 385.83c-70.918 0-128.614-57.702-128.614-128.623 0-70.918 57.696-128.619 128.614-128.619 70.922 0 128.624 57.7 128.624 128.619 0 70.921-57.702 128.623-128.624 128.623zm0-247.089c-65.321 0-118.461 53.144-118.461 118.466 0 65.323 53.141 118.47 118.461 118.47 65.324 0 118.471-53.146 118.471-118.47 0-65.322-53.147-118.466-118.471-118.466z"/><path d="M414.891 233.731h27.2v4.271h-27.2zm31.093 0h10.666v4.271h-10.666zM80.761 325.108h27.201v4.271H80.761zm31.092 0h10.665v4.271h-10.665zm40.103-220.275h27.201v4.272h-27.201zm31.091 0h10.668v4.272h-10.668z" fill="#F1F2F2"/><g fill="#F1F2F2"><path d="M99.474 157.375h24.834v3.044H99.474z"/><path d="M110.367 146.479h3.037v24.84h-3.037z"/></g><g fill="#F1F2F2"><path d="M397.421 143.433h24.834v3.042h-24.834z"/><path d="M408.313 132.537h3.037v24.838h-3.037z"/></g><g fill="#F1F2F2"><path d="M428.494 283.646h17.419v2.133h-17.419z"/><path d="M436.131 276h2.133v17.422h-2.133z"/></g><g fill="#FFDE17"><path d="M292.102 87.067h17.416v2.134h-17.416z"/><path d="M299.741 79.422h2.13v17.422h-2.13z"/></g><path fill="#F1F2F2" d="M101.643 225.2c0 5.863-4.759 10.601-10.608 10.601S80.42 231.063 80.42 225.2c0-5.858 4.765-10.604 10.614-10.604s10.609 4.745 10.609 10.604z"/><path fill="#FFDE17" d="M126.477 196.146a6.622 6.622 0 0 1-6.625 6.619c-3.645 0-6.622-2.962-6.622-6.619 0-3.658 2.977-6.617 6.622-6.617a6.62 6.62 0 0 1 6.625 6.617zm292.694 68.123a6.62 6.62 0 0 1-6.616 6.618c-3.651 0-6.625-2.962-6.625-6.618a6.62 6.62 0 1 1 13.241 0z"/><path fill="#F1F2F2" d="M445.979 257.653a3.354 3.354 0 0 1-3.348 3.351 3.358 3.358 0 0 1-3.357-3.351 3.352 3.352 0 1 1 6.705 0zm-90.102-128.117c0-4.922 3.992-8.916 8.907-8.916a8.914 8.914 0 0 1 8.916 8.916c0 4.919-3.986 8.903-8.916 8.903-4.915 0-8.907-3.983-8.907-8.903z"/><path fill="#8DC63F" d="M220.098 90.561c0-4.919 3.995-8.916 8.907-8.916 4.93 0 8.916 3.997 8.916 8.916s-3.986 8.904-8.916 8.904c-4.912 0-8.907-3.985-8.907-8.904z"/><path fill="#F1F2F2" d="M407.837 181.351a4.718 4.718 0 0 1 4.709-4.718 4.718 4.718 0 0 1 4.717 4.718 4.707 4.707 0 0 1-4.717 4.706 4.708 4.708 0 0 1-4.709-4.706zM241.461 76.939a4.718 4.718 0 0 1 4.711-4.717 4.72 4.72 0 0 1 4.717 4.717 4.708 4.708 0 0 1-4.717 4.705 4.706 4.706 0 0 1-4.711-4.705z"/><path fill="#F7941E" d="M255.906 99.471a4.72 4.72 0 0 1 4.708-4.717 4.718 4.718 0 0 1 4.718 4.717 4.706 4.706 0 0 1-4.718 4.705 4.709 4.709 0 0 1-4.708-4.705z"/><path fill="#8DC63F" d="M99.474 261.801l2.169 6.915 6.918 2.171-6.918 2.169-2.169 6.918-2.165-6.918-6.919-2.169 6.655-2.171z"/><path fill="#F7941E" d="M414.891 318.16l2.165 6.913 6.922 2.171-6.922 2.169-2.165 6.915-2.168-6.915-6.919-2.169 6.658-2.171z"/><path fill="#F1F2F2" d="M200.993 65.733l2.672 8.526 8.529 2.674-8.529 2.675-2.672 8.525-2.672-8.525-8.529-2.675 8.209-2.674z"/><path d="M272.355 409.131h-56.301l-.392-.267c-11.187-7.644-21.375-.123-21.477-.045l-.412.312H142.2a1.533 1.533 0 1 1 0-3.067h50.587c2.275-1.488 12.799-7.493 24.206 0h55.362a1.533 1.533 0 1 1 0 3.067zm41.55 0h-34.317a1.533 1.533 0 1 1 0-3.067h34.317a1.533 1.533 0 0 1 0 3.067zm81.254 0h-55.545a1.533 1.533 0 1 1 0-3.067h55.545a1.534 1.534 0 1 1 0 3.067zm-63.943 0h-11.594a1.533 1.533 0 1 1 0-3.067h11.594a1.533 1.533 0 1 1 0 3.067zm-89.41 23.265h-58.759a1.534 1.534 0 1 1 0-3.067h58.759a1.533 1.533 0 1 1 0 3.067zm117.137 0h-84.726a1.533 1.533 0 1 1 0-3.067h84.726a1.533 1.533 0 1 1 0 3.067zm-96.474 0h-11.594a1.534 1.534 0 1 1 0-3.067h11.594a1.533 1.533 0 1 1 0 3.067z" fill="#D4EEF8"/><path fill="#485A93" d="M260.558 377.411c46.44 0 86.706-26.878 106.116-65.882-11.219-4.025-25.409 1.187-30.525 16.239 0 2.684.549 5.235 1.543 7.557a15.002 15.002 0 0 0-5.622 2.099 13.37 13.37 0 0 0-12.198-7.918c-5.28 0-9.848 3.066-12.014 7.518-1.56-4.912-6.154-8.471-11.584-8.471a12.204 12.204 0 0 0-4.056.695c-.063-5.212-3.645-9.572-8.481-10.824a11.01 11.01 0 0 0 1.378-5.354c0-4.05-2.166-7.587-5.406-9.521a9.406 9.406 0 0 0 2.318-6.197 9.408 9.408 0 0 0-1.717-5.433 7.517 7.517 0 0 0 .949-3.666 7.536 7.536 0 0 0-3.678-6.475c.979-1.133 1.572-2.105 1.575-4.218 0-2.114-1.32-6.085-5.028-6.441l-7.922-61.921h-12.243l-9.135 62.492a6.434 6.434 0 0 0-3.816 5.87c0 1.611.596 3.085 1.579 4.218a7.522 7.522 0 0 0-3.678 6.475c0 1.33.348 2.582.95 3.666a9.381 9.381 0 0 0-1.719 5.43c0 2.375.875 4.538 2.321 6.2-3.238 1.938-5.412 5.478-5.406 9.521a10.963 10.963 0 0 0 1.465 5.514c-4.559 1.425-7.88 5.651-7.94 10.668a12.134 12.134 0 0 0-4.055-.692c-5.43 0-10.024 3.559-11.591 8.471-2.163-4.448-6.727-7.518-12.007-7.518-5.445 0-10.117 3.252-12.199 7.919a14.996 14.996 0 0 0-5.625-2.103 19.145 19.145 0 0 0 1.545-7.56c0-10.614-8.608-19.222-19.219-19.222-3.926 0-7.661 1.191-10.866 3.223 19.45 38.872 59.643 65.641 105.991 65.641z"/><path d="M219.2 282.269a2.914 2.914 0 0 1-2.914-2.911v-40.825a2.916 2.916 0 0 1 2.914-2.916 2.917 2.917 0 0 1 2.914 2.916v40.825a2.916 2.916 0 0 1-2.914 2.911zm81.644 0a2.918 2.918 0 0 1-2.914-2.911v-40.825a2.92 2.92 0 0 1 2.914-2.916 2.918 2.918 0 0 1 2.917 2.916v40.825a2.916 2.916 0 0 1-2.917 2.911zm-11.66-32.074a2.917 2.917 0 0 1-2.92-2.916v-32.073a2.919 2.919 0 0 1 2.92-2.916 2.916 2.916 0 0 1 2.915 2.916v32.073a2.915 2.915 0 0 1-2.915 2.916zm-58.319 0a2.917 2.917 0 0 1-2.92-2.916v-32.073a2.919 2.919 0 0 1 2.92-2.916 2.913 2.913 0 0 1 2.911 2.916v32.073a2.911 2.911 0 0 1-2.911 2.916z" fill="#F8ED34"/><path fill="#F15D62" d="M260.024 177.299l-41.553 33.24a5.826 5.826 0 0 0-2.186 4.554v14.692l43.739-8.749 43.736 8.749v-14.692a5.836 5.836 0 0 0-2.187-4.554l-41.549-33.24z"/><path fill="#F8ED34" d="M249.814 247.273c0 9.761 1.183 30.782 8.06 48.014.83 2.082 3.469 2.082 4.295 0 6.877-17.232 8.06-38.253 8.06-48.014h-20.415z"/><path fill="#FFF" d="M254.19 247.273c0 4.68.809 15.282 5.834 23.129 5.02-7.848 5.828-18.45 5.828-23.129H254.19z"/><path fill="#969CB3" d="M274.518 243.657l-3.472-13.873h-22.049l-3.465 13.873a2.893 2.893 0 0 0 .53 2.5 2.91 2.91 0 0 0 2.3 1.122h23.323c.901 0 1.749-.413 2.297-1.122a2.923 2.923 0 0 0 .536-2.5z"/><path fill="#717588" d="M254.277 243.657l3.468-13.873h-8.748l-3.465 13.873a2.893 2.893 0 0 0 .53 2.5 2.91 2.91 0 0 0 2.3 1.122h8.746a2.903 2.903 0 0 1-2.297-1.122 2.905 2.905 0 0 1-.534-2.5z"/><path fill="#E4E9F6" d="M257.593 129.156l-13.577 24.263a11.659 11.659 0 0 0-1.491 5.699v70.667a5.83 5.83 0 0 0 5.834 5.831h23.326a5.83 5.83 0 0 0 5.834-5.831v-70.67a11.68 11.68 0 0 0-1.485-5.696l-13.583-24.263c-1.063-1.901-3.795-1.901-4.858 0z"/><path fill="#C7CFE2" d="M254.19 229.785v-70.667c0-1.996.212-3.958.62-5.698l5.658-24.264c.102-.487.297-.879.521-1.231-1.21-.446-2.681-.049-3.396 1.231l-13.577 24.263a11.656 11.656 0 0 0-1.491 5.696v70.67a5.832 5.832 0 0 0 5.834 5.831h8.26c-1.339 0-2.429-2.611-2.429-5.831z"/><path fill="#F15D62" d="M262.45 129.156c-1.063-1.9-3.794-1.9-4.857 0l-13.577 24.263a11.656 11.656 0 0 0-1.491 5.696v15.267h34.994v-15.267a11.68 11.68 0 0 0-1.485-5.696l-13.584-24.263z"/><path fill="#F15D62" d="M254.19 159.118c0-1.996.212-3.958.62-5.698l5.658-24.264c.102-.487.297-.879.521-1.231a2.865 2.865 0 0 0-1.836-.039c-.042.015-.09.035-.129.051-.228.085-.44.209-.645.354-.063.046-.128.088-.186.141a2.69 2.69 0 0 0-.602.723l-13.577 24.263a11.656 11.656 0 0 0-1.491 5.696v15.267h11.666v-15.263h.001z"/><path fill="#C7CFE2" d="M277.519 174.382h-34.994v5.832h7.479c2.01 3.473 5.717 5.833 10.021 5.833 4.301 0 8.006-2.36 10.019-5.833h7.476v-5.832h-.001z"/><circle fill="#D4EEF8" cx="260.024" cy="174.382" r="5.831"/><path fill="#AFB9D2" d="M254.19 184.45v-10.068h-11.666v5.832h7.479a11.804 11.804 0 0 0 4.187 4.236z"/><path fill="#717588" d="M257.593 129.156l-10.626 18.985h26.111l-10.627-18.985c-1.063-1.901-3.795-1.901-4.858 0z"/><path fill="#5C5E6F" d="M256.041 148.141l4.427-18.985c.102-.487.297-.879.521-1.231a2.858 2.858 0 0 0-1.836-.041c-.009.004-.024.014-.036.017-.03.014-.06.024-.093.036-.228.085-.44.209-.645.354-.021.015-.041.033-.065.048-.039.033-.081.058-.12.093a2.69 2.69 0 0 0-.602.723l-10.626 18.985h9.075v.001z"/><path d="M216.286 229.785l26.239-5.249V212.29l-26.239 6.996zm87.475 0l-26.242-5.249V212.29l26.242 6.996z" fill="#F89521"/><path d="M219.2 215.206a2.914 2.914 0 0 0-2.914 2.916v23.328a2.914 2.914 0 0 0 5.828 0v-23.328a2.916 2.916 0 0 0-2.914-2.916zm11.665-2.916a2.92 2.92 0 0 0-2.92 2.916v14.58a2.92 2.92 0 0 0 2.92 2.916 2.914 2.914 0 0 0 2.911-2.916v-14.58a2.912 2.912 0 0 0-2.911-2.916zm69.979 2.916a2.917 2.917 0 0 1 2.917 2.916v23.328a2.916 2.916 0 0 1-5.831 0v-23.328a2.917 2.917 0 0 1 2.914-2.916zm-11.66-2.916a2.917 2.917 0 0 1 2.915 2.916v14.58a2.917 2.917 0 0 1-2.915 2.916 2.92 2.92 0 0 1-2.92-2.916v-14.58a2.917 2.917 0 0 1 2.92-2.916z" fill="#AFB9D2"/><g fill="#969CB3"><circle cx="219.256" cy="218.066" r="2.972"/><path d="M230.865 212.231a2.973 2.973 0 1 1-2.974 2.973 2.973 2.973 0 0 1 2.974-2.973zm69.925 2.864a2.971 2.971 0 1 1 0 5.944 2.972 2.972 0 1 1 0-5.944z"/><circle cx="289.184" cy="215.205" r="2.973"/></g><path d="M260.024 223.952a2.917 2.917 0 0 0 2.914-2.916v-11.663a2.918 2.918 0 0 0-2.914-2.917 2.917 2.917 0 0 0-2.917 2.917v11.663a2.916 2.916 0 0 0 2.917 2.916zm8.747 0a2.916 2.916 0 0 0 2.914-2.916v-11.663a2.917 2.917 0 0 0-2.914-2.917 2.92 2.92 0 0 0-2.918 2.917v11.663a2.918 2.918 0 0 0 2.918 2.916z" fill="#C7CFE2"/><path fill="#AFB9D2" d="M251.273 223.952a2.916 2.916 0 0 0 2.917-2.916v-11.663a2.916 2.916 0 0 0-5.831 0v11.663a2.915 2.915 0 0 0 2.914 2.916z"/></svg>