<svg xmlns="http://www.w3.org/2000/svg" width="512" height="512" viewBox="0 0 512 512"><path d="M450.558 291.833h39.806v6.249h-39.806zm45.508 0h15.598v6.249h-15.598z" fill="#D4EEF8"/><g fill="#D4EEF8"><path d="M15.23 149.199h36.336v4.45H15.23z"/><path d="M31.173 133.248h4.434V169.6h-4.434z"/></g><g fill="#FDBA12"><path d="M451.152 128.798h36.328v4.45h-36.328z"/><path d="M467.095 112.854h4.442v36.344h-4.442z"/></g><g fill="#D4EEF8"><path d="M398.27 397.468h36.337v4.45H398.27z"/><path d="M414.213 381.533h4.442v36.336h-4.442z"/></g><path fill="#FDBA12" d="M30.715 279.447c0 8.578-6.956 15.518-15.518 15.518S-.337 288.026-.337 279.447c0-8.562 6.972-15.501 15.534-15.501s15.518 6.94 15.518 15.501z"/><path fill="#D4EEF8" d="M70.947 223.205c0 5.349-4.345 9.686-9.694 9.686-5.333 0-9.687-4.337-9.687-9.686 0-5.35 4.354-9.687 9.687-9.687 5.349 0 9.694 4.337 9.694 9.687z"/><path fill="#FDBA12" d="M451.706 365.646c0 5.35-4.337 9.687-9.694 9.687-5.333 0-9.687-4.337-9.687-9.687 0-5.349 4.354-9.687 9.687-9.687 5.357 0 9.694 4.338 9.694 9.687z"/><path fill="#D4EEF8" d="M490.926 355.976c0 2.698-2.192 4.899-4.899 4.899s-4.916-2.201-4.916-4.899c0-2.715 2.209-4.916 4.916-4.916s4.899 2.201 4.899 4.916zm-100.56-247.515c0-7.196 5.848-13.044 13.028-13.044 7.204 0 13.052 5.848 13.052 13.044 0 7.197-5.848 13.028-13.052 13.028-7.18 0-13.028-5.831-13.028-13.028zm65.171 88.407c0-3.799 3.084-6.899 6.875-6.899 3.823 0 6.916 3.101 6.916 6.899 0 3.815-3.093 6.883-6.916 6.883a6.874 6.874 0 0 1-6.875-6.883z"/><g fill="#E7E9ED"><path d="M349.203 184.278H156.968c-17.814 0-32.384-14.494-32.384-32.373 0-17.811 14.505-32.373 32.384-32.373h192.299c4.819 0 8.65-3.903 8.65-8.65 0-4.815-3.903-8.646-8.65-8.646H156.968c-27.373 0-49.669 22.3-49.669 49.669V368.2c0 27.364 22.296 49.669 49.669 49.669h192.299c4.819 0 8.65-3.903 8.65-8.65V192.924c-.063-4.747-3.902-8.646-8.714-8.646zm-8.642 216.29H156.968c-17.814 0-32.384-14.489-32.384-32.368V189.611c8.723 7.474 20.031 12.028 32.384 12.028H340.56v198.929h.001z"/><path d="M159.699 144.038c-4.811 0-8.65 3.904-8.65 8.646 0 4.747 3.903 8.646 8.65 8.646h162.396c4.812 0 8.65-3.9 8.65-8.646 0-4.743-3.903-8.646-8.65-8.646H159.699z"/></g><path fill="#FEDB2B" d="M232.612 383.605c-45.163 0-81.909-36.754-81.909-81.926 0-45.159 36.746-81.905 81.909-81.905 45.155 0 81.901 36.746 81.901 81.905.001 45.173-36.745 81.926-81.901 81.926zm0-147.891c-36.384 0-65.981 29.59-65.981 65.966 0 36.385 29.597 65.974 65.981 65.974 36.377 0 65.966-29.589 65.966-65.974 0-36.376-29.589-65.966-65.966-65.966z"/><path fill="#C4DC7A" d="M226.05 334.482l-30.553-34.939a8.235 8.235 0 0 1 .779-11.613c3.405-2.988 8.594-2.643 11.606.787l19.614 22.425 41.1-36.714c3.381-3.021 8.569-2.739 11.613.65 3.021 3.39 2.731 8.594-.658 11.614l-53.501 47.79z"/></svg>