<svg xmlns="http://www.w3.org/2000/svg" width="512" height="512" viewBox="0 0 512 512"><path d="M450.763 291.673h39.806v6.249h-39.806zm45.508 0h15.598v6.249h-15.598z" fill="#D4EEF8"/><g fill="#D4EEF8"><path d="M15.435 149.035h36.336v4.45H15.435z"/><path d="M31.378 133.084h4.434v36.352h-4.434z"/></g><g fill="#FDBA12"><path d="M451.356 128.634h36.329v4.45h-36.329z"/><path d="M467.3 112.691h4.442v36.344H467.3z"/></g><g fill="#D4EEF8"><path d="M398.475 397.301h36.337v4.449h-36.337z"/><path d="M414.418 381.365h4.442v36.336h-4.442z"/></g><path fill="#FDBA12" d="M30.92 279.288c0 8.578-6.956 15.51-15.518 15.51s-15.534-6.932-15.534-15.51c0-8.57 6.972-15.51 15.534-15.51s15.518 6.94 15.518 15.51z"/><path fill="#D4EEF8" d="M71.152 223.041c0 5.349-4.345 9.687-9.694 9.687-5.333 0-9.687-4.337-9.687-9.687s4.354-9.687 9.687-9.687c5.349 0 9.694 4.338 9.694 9.687z"/><path fill="#FDBA12" d="M451.911 365.479c0 5.349-4.337 9.687-9.694 9.687-5.333 0-9.687-4.338-9.687-9.687 0-5.35 4.354-9.679 9.687-9.679 5.357 0 9.694 4.329 9.694 9.679z"/><path fill="#D4EEF8" d="M491.131 355.808c0 2.699-2.192 4.899-4.899 4.899s-4.916-2.2-4.916-4.899c0-2.715 2.209-4.915 4.916-4.915s4.899 2.2 4.899 4.915zm-100.56-247.511c0-7.196 5.848-13.043 13.028-13.043 7.204 0 13.052 5.847 13.052 13.043 0 7.197-5.848 13.028-13.052 13.028-7.18 0-13.028-5.831-13.028-13.028zm65.171 88.408c0-3.799 3.084-6.899 6.875-6.899 3.823 0 6.916 3.1 6.916 6.899 0 3.815-3.093 6.883-6.916 6.883a6.874 6.874 0 0 1-6.875-6.883z"/><path fill="#A2D8CB" d="M363.295 372.916H136.202c-16.714 0-30.313-13.599-30.313-30.313v-155.06c0-16.718 13.598-30.316 30.313-30.316h227.093c16.723 0 30.32 13.598 30.32 30.316v155.06c0 16.714-13.597 30.313-30.32 30.313zM136.202 169.344c-10.032 0-18.2 8.165-18.2 18.2v155.06c0 10.031 8.168 18.2 18.2 18.2h227.093c10.04 0 18.201-8.169 18.201-18.2v-155.06c0-10.036-8.161-18.2-18.201-18.2H136.202z"/><path d="M196.489 159.184c0 5.61-4.546 10.16-10.16 10.16s-10.16-4.55-10.16-10.16v-12.486c0-5.61 4.546-10.156 10.16-10.156s10.16 4.546 10.16 10.156v12.486zm126.84 0c0 5.61-4.546 10.16-10.161 10.16-5.614 0-10.16-4.55-10.16-10.16v-12.486c0-5.61 4.546-10.156 10.16-10.156 5.615 0 10.161 4.546 10.161 10.156v12.486z" fill="#FFD682"/><path fill="#26B898" d="M280.735 263.778c0 17.478-14.16 31.63-31.629 31.63-17.47 0-31.638-14.152-31.638-31.63 0-17.469 14.168-31.629 31.638-31.629 17.469 0 31.629 14.16 31.629 31.629z"/><path fill="#F15D62" d="M207.124 263.778c0 17.478-14.168 31.63-31.629 31.63-17.478 0-31.638-14.152-31.638-31.63 0-17.469 14.16-31.629 31.638-31.629 17.461 0 31.629 14.16 31.629 31.629z"/><path fill="#5D84C3" d="M355.657 263.778c0 17.478-14.16 31.63-31.638 31.63s-31.63-14.152-31.63-31.63c0-17.469 14.152-31.629 31.63-31.629s31.638 14.16 31.638 31.629z"/><path fill="#FFF" d="M242.11 281.272l-15.935-18.217a4.296 4.296 0 0 1 .401-6.056c1.775-1.558 4.482-1.377 6.056.406l10.232 11.69 21.421-19.136a4.294 4.294 0 0 1 6.057.341 4.295 4.295 0 0 1-.338 6.052l-27.894 24.92z"/></svg>