<svg xmlns="http://www.w3.org/2000/svg" width="512" height="512" viewBox="0 0 512 512"><g fill="#EBF7FE"><path d="M137.551 393.497c-18.387 9.378-40.897 2.079-50.276-16.308-9.377-18.383-2.079-40.894 16.306-50.274l279.763-144.459c18.384-9.379 40.891-2.082 50.269 16.306 9.385 18.384 2.084 40.895-16.303 50.276L137.551 393.497z"/><path d="M166.448 295.304c-18.388 9.381-40.897 2.081-50.276-16.304-9.383-18.389-2.08-40.896 16.306-50.274l157.984-81.536c18.389-9.381 40.896-2.081 50.278 16.306 9.381 18.384 2.082 40.893-16.307 50.274l-157.985 81.534zm67.938 133.163c-18.385 9.381-40.893 2.08-50.272-16.307-9.381-18.383-2.083-40.896 16.306-50.274l157.984-81.535c18.39-9.379 40.896-2.08 50.278 16.306 9.377 18.385 2.076 40.897-16.307 50.276l-157.989 81.534z"/></g><path fill="#2FB44A" d="M365.78 368.871h-52.962a19.5 19.5 0 0 1-18.406-13.043l-29.013-82.615-3.638-10.371 1.092-50.611 32.297-44.486 9.581 27.272 61.049 173.854z"/><path fill="#249C48" d="M304.726 195.017l-39.327 78.196-3.637-10.371 1.092-50.612 32.296-44.485z"/><path fill="#6287C5" d="M295.15 167.745l-33.389 95.097-32.656 92.98a19.5 19.5 0 0 1-18.407 13.049h-52.956l70.618-201.126h66.79z"/><path fill="#D4EEF8" d="M74.354 290.091c-.061-.552-.704-.964-1.257-.964-1.791 0-3.382-1.054-4.049-2.68a4.351 4.351 0 0 1 1.093-4.838 1.085 1.085 0 0 0 .119-1.475 19.282 19.282 0 0 0-3.1-3.129 1.087 1.087 0 0 0-1.485.12c-1.167 1.291-3.261 1.771-4.879 1.095a4.34 4.34 0 0 1-2.641-4.247 1.087 1.087 0 0 0-.96-1.142 19.433 19.433 0 0 0-4.399-.011c-.568.06-.99.552-.969 1.119.062 1.813-1.01 3.49-2.678 4.172-1.598.652-3.679.178-4.843-1.102a1.093 1.093 0 0 0-1.477-.124 19.512 19.512 0 0 0-3.164 3.129 1.09 1.09 0 0 0 .117 1.486 4.334 4.334 0 0 1 1.094 4.879c-.675 1.609-2.344 2.646-4.256 2.646-.621-.019-1.063.397-1.131.96a19.757 19.757 0 0 0-.007 4.449c.063.551.72.962 1.281.962 1.705-.044 3.34 1.01 4.025 2.678s.244 3.613-1.094 4.837a1.089 1.089 0 0 0-.118 1.474 19.499 19.499 0 0 0 3.092 3.133c.451.361 1.102.31 1.49-.119 1.171-1.294 3.265-1.774 4.875-1.096a4.334 4.334 0 0 1 2.647 4.245 1.09 1.09 0 0 0 .96 1.144c.748.086 1.5.13 2.253.13.716 0 1.431-.038 2.148-.119a1.09 1.09 0 0 0 .968-1.12 4.352 4.352 0 0 1 2.676-4.172c1.609-.657 3.681-.176 4.845 1.103a1.09 1.09 0 0 0 1.475.124 19.402 19.402 0 0 0 3.164-3.131 1.08 1.08 0 0 0-.116-1.484 4.332 4.332 0 0 1-1.096-4.879c.666-1.588 2.273-2.652 4.001-2.652l.242.005c.561.048 1.078-.385 1.144-.958.174-1.472.177-2.967.01-4.448zm-19.405 8.738a6.533 6.533 0 0 1-6.525-6.527c0-3.595 2.927-6.521 6.525-6.521 3.596 0 6.523 2.927 6.523 6.521 0 3.599-2.927 6.527-6.523 6.527z"/><g fill="#D4EEF8"><path d="M470.587 177.314a.853.853 0 0 0-.948-.623c-14.824 2.216-28.399-9.33-28.399-24.492 0-13.65 11.104-24.758 24.756-24.758 16.69 0 28.702 16.312 23.585 32.286a.853.853 0 0 0 .59 1.088l5.614 1.503c.288.079.568.178.838.297a.853.853 0 0 0 1.162-.522c6.701-21.524-9.513-43.188-31.789-43.188-18.359 0-33.296 14.935-33.296 33.293 0 21.164 19.273 36.33 38.992 32.829a.856.856 0 0 0 .679-1.063l-1.784-6.65z"/><path d="M466.108 143.273c2.038 0 3.093 1.395 3.07 2.753a2.563 2.563 0 0 0 2.596 2.603c1.457-.021 2.559-1.291 2.524-2.75-.081-3.53-2.486-6.492-5.741-7.423v-1.133c0-1.38-1.062-2.566-2.438-2.63a2.56 2.56 0 0 0-2.686 2.557v1.343c-3.4 1.142-5.814 4.317-5.743 8.025.087 4.491 3.812 8.144 8.304 8.144 1.277 0 2.392.77 2.896 1.868a.84.84 0 0 0 1.148.385 5.962 5.962 0 0 1 2.959-.647c.606.025 1.037-.586.834-1.16-1.139-3.221-4.222-5.55-7.798-5.569-1.417-.005-2.698-.938-3.094-2.298-.617-2.114 1.096-4.068 3.169-4.068zm1.837 25.533a.83.83 0 0 0 .159-.755c-1.186-4.423-1.376-4.799-1.309-6.025.025-.457-.312-.898-.913-.898-2.04 0-3.092-1.397-3.069-2.753a2.565 2.565 0 0 0-2.596-2.603c-1.459.02-2.559 1.292-2.526 2.748.083 3.53 2.489 6.494 5.745 7.425v1.135c-.001 2.444 2.968 3.546 4.509 1.726zm32.303 11.172l-7.136-7.138 2.935-2.937c1.393-1.393.757-3.776-1.147-4.285l-21.476-5.754c-1.9-.509-3.647 1.234-3.138 3.138.048.172 5.591 20.857 5.662 21.116.692 2.597 3.132 2.753 4.379 1.508l2.937-2.938 7.138 7.137a2.558 2.558 0 0 0 3.621 0l6.226-6.227a2.56 2.56 0 0 0-.001-3.62z"/></g><g fill="#D4EEF8"><path d="M340.678 117.17h61.823v6.621h-61.823zM95.167 190.578h26.51v2.779h-26.51zM281.1 109.787h26.497v2.782H281.1zm155.016 208.876h26.51v2.782h-26.51zm-11.658 0h6.943v2.782h-6.943zm0-104.094h26.494v2.781h-26.494zM44.208 333.028h26.508v2.778H44.208zM-.35 288.563h4.861v2.78H-.35zm7.609 0h11.222v2.78H7.259zm112.564-53.992h17.666v2.163h-17.666z"/><path d="M127.583 226.81h2.163v17.668h-2.163zm-15.502-84.787h17.669v2.159h-17.669z"/><path d="M119.823 134.264h2.176v17.672h-2.176zM473.21 283.565h26.491v3.241H473.21z"/><path d="M484.832 271.938h3.246v26.497h-3.246zM226.146 109.559h26.488v3.237h-26.488z"/><path d="M237.764 97.927h3.25v26.501h-3.25zm-62.041 92.651c0 6.073-4.925 10.989-10.989 10.989a10.984 10.984 0 0 1-10.99-10.989c0-6.072 4.916-10.99 10.99-10.99 6.063-.001 10.989 4.917 10.989 10.99zm256.115-94.48a6.894 6.894 0 0 1-6.899 6.899 6.897 6.897 0 0 1-6.904-6.899 6.895 6.895 0 0 1 6.904-6.903 6.892 6.892 0 0 1 6.899 6.903zm-275.321 39.235a2.774 2.774 0 0 1-5.547 0 2.773 2.773 0 1 1 5.547 0zm212.133 19.405a2.773 2.773 0 0 1-5.545 0 2.766 2.766 0 0 1 2.767-2.768 2.768 2.768 0 0 1 2.778 2.768zM95.167 302.168a2.774 2.774 0 0 1-5.547 0 2.77 2.77 0 0 1 2.768-2.772 2.77 2.77 0 0 1 2.779 2.772zm-72.986-60.073a2.773 2.773 0 1 1-5.547 0 2.767 2.767 0 0 1 2.768-2.766 2.769 2.769 0 0 1 2.779 2.766zm471.18 99.225a6.902 6.902 0 0 1-6.903 6.901c-3.807 0-6.908-3.085-6.908-6.901a6.905 6.905 0 1 1 13.811 0zM363.105 84.937c0 3.82-3.092 6.912-6.9 6.912a6.914 6.914 0 0 1-6.912-6.912c0-3.801 3.101-6.89 6.912-6.89 3.809 0 6.9 3.089 6.9 6.89zM54.917 241.402c0 3.811-3.086 6.912-6.896 6.912a6.918 6.918 0 0 1-6.912-6.912c0-3.807 3.098-6.905 6.912-6.905 3.81.001 6.896 3.098 6.896 6.905zm61.751-25.153a2.773 2.773 0 1 1-5.547 0 2.766 2.766 0 0 1 2.766-2.766 2.768 2.768 0 0 1 2.781 2.766zm-21.501 24.264a4.353 4.353 0 0 1-4.346 4.357 4.36 4.36 0 0 1-4.359-4.357 4.351 4.351 0 1 1 8.705 0zm-57.864 95.288c0 3.808-3.089 6.912-6.894 6.912a6.92 6.92 0 0 1-6.914-6.912c0-3.807 3.096-6.898 6.914-6.898 3.805-.001 6.894 3.091 6.894 6.898zm450.453-97.046c0-6.595 5.357-11.945 11.949-11.945 6.597 0 11.945 5.35 11.945 11.945 0 6.595-5.349 11.936-11.945 11.936-6.592 0-11.949-5.341-11.949-11.936z"/></g><path fill="#D4EEF8" d="M192.267 150.24c-4.531 0-8.217-3.684-8.217-8.217 0-4.531 3.686-8.217 8.217-8.217 4.531 0 8.217 3.686 8.217 8.217 0 4.533-3.686 8.217-8.217 8.217zm0-13.802a5.591 5.591 0 0 0-5.585 5.585 5.594 5.594 0 0 0 5.585 5.587 5.593 5.593 0 0 0 5.585-5.587 5.591 5.591 0 0 0-5.585-5.585zm247.336 140.087c-4.531 0-8.219-3.687-8.219-8.218 0-4.53 3.688-8.217 8.219-8.217s8.217 3.687 8.217 8.217c-.001 4.532-3.686 8.218-8.217 8.218zm0-13.803a5.595 5.595 0 0 0-5.587 5.586c0 3.08 2.508 5.586 5.587 5.586s5.585-2.506 5.585-5.586a5.593 5.593 0 0 0-5.585-5.586zM67.576 209.784c-4.531 0-8.219-3.686-8.219-8.217s3.688-8.219 8.219-8.219 8.217 3.688 8.217 8.219-3.686 8.217-8.217 8.217zm0-13.805a5.593 5.593 0 0 0-5.587 5.587 5.592 5.592 0 0 0 5.587 5.585 5.591 5.591 0 0 0 5.585-5.585 5.592 5.592 0 0 0-5.585-5.587z"/></svg>