<svg xmlns="http://www.w3.org/2000/svg" width="512" height="512" viewBox="0 0 512 512"><path fill="#F1F2F2" d="M512.19 255.128c0 43.906-35.588 79.503-79.503 79.503H208.172c-43.915 0-79.502-35.597-79.502-79.503s35.587-79.503 79.502-79.503h224.516c43.915 0 79.502 35.597 79.502 79.503z"/><path fill="#143F6A" d="M91.722 395.674c-6.223 6.232-16.326 6.232-22.548 0-6.241-6.231-6.241-16.335 0-22.557l32-32c6.231-6.231 16.335-6.231 22.557 0 6.232 6.232 6.232 16.326 0 22.548l-32.009 32.009z"/><path fill="#8BD7F8" d="M198.484 385.033c-72.119 0-130.792-58.692-130.792-130.812s58.673-130.793 130.792-130.793c72.138 0 130.812 58.674 130.812 130.793s-58.674 130.812-130.812 130.812zm0-242.266c-61.449 0-111.455 49.986-111.455 111.455 0 61.468 50.006 111.474 111.455 111.474 61.469 0 111.474-50.006 111.474-111.474 0-61.469-50.005-111.455-111.474-111.455z"/><path fill="#3E7ABE" d="M485.232 243.901h-52.649a4.215 4.215 0 0 0-4.211 4.211v16.807a4.204 4.204 0 0 0 4.211 4.212h29.648a39.711 39.711 0 0 1-17.033 19.979l12.634 21.868c20.281-11.728 32.272-32.293 32.272-55.331 0-3.286-.245-5.628-.717-8.271-.377-2.002-2.115-3.475-4.155-3.475z"/><path fill="#20B24B" d="M425.567 294.417c-14.512 0-27.174-7.932-33.981-19.659l-21.888 12.596c11.143 19.319 32.01 32.312 55.869 32.312a64.39 64.39 0 0 0 32.265-8.649v-.037l-12.634-21.868c-5.788 3.341-12.482 5.305-19.631 5.305z"/><path fill="#169A48" d="M457.832 311.016v-.037l-12.634-21.868c-5.788 3.343-12.482 5.307-19.631 5.307v25.248a64.373 64.373 0 0 0 32.265-8.65z"/><path fill="#FED500" d="M386.279 255.119c0-7.139 1.954-13.842 5.307-19.621l-21.888-12.615c-5.514 9.48-8.667 20.508-8.667 32.236 0 11.746 3.153 22.755 8.667 32.235l21.888-12.596c-3.353-5.797-5.307-12.483-5.307-19.639z"/><path fill="#F04F30" d="M425.567 215.839c9.462 0 18.148 3.361 24.938 8.951 1.681 1.378 4.116 1.284 5.646-.246l11.915-11.916c1.747-1.737 1.625-4.589-.235-6.213-11.378-9.858-26.184-15.825-42.264-15.825-23.859 0-44.727 12.992-55.869 32.292l21.888 12.615c6.808-11.726 19.47-19.658 33.981-19.658z"/><path fill="#D84127" d="M450.505 224.791c1.681 1.378 4.116 1.284 5.646-.246l11.915-11.916c1.747-1.737 1.625-4.589-.235-6.213-11.378-9.858-26.184-15.825-42.264-15.825v25.249c9.462-.001 18.149 3.361 24.938 8.951z"/><path fill="#FDBA12" d="M218.681 224.979l12.709 29.224 17.355 6.949-65.774 36.532 28.043-28.705v-63.29l-28.827-11.727v104.515l29.195 17.817 69.221-41.347V246.29z"/><path d="M16.855 199.769h31.14v4.891h-31.14zm-16.665 0h12.209v4.891H.19z" fill="#D4EEF8"/><g fill="#D4EEF8"><path d="M334.423 143.059h28.431v3.484h-28.431z"/><path d="M346.905 130.582h3.475v28.435h-3.475z"/></g><g fill="#D4EEF8"><path d="M.898 326.774h28.431v3.476H.898z"/><path d="M13.381 314.292h3.475v28.44h-3.475z"/></g><g fill="#D4EEF8"><path d="M280.603 383.296h28.431v3.475h-28.431z"/><path d="M293.085 370.813h3.475v28.44h-3.475z"/></g><g fill="#FDBA12"><path d="M56.475 141.317h28.43v3.484h-28.43z"/><path d="M68.957 128.839h3.475v28.435h-3.475z"/></g><path fill="#D4EEF8" d="M296.891 123.429c0-6.713 5.448-12.138 12.143-12.138s12.151 5.424 12.151 12.138c0 6.709-5.457 12.138-12.151 12.138s-12.143-5.429-12.143-12.138z"/><path fill="#FDBA12" d="M321.724 367.508a7.582 7.582 0 0 1 7.582-7.582c4.173 0 7.582 3.391 7.582 7.582 0 4.184-3.409 7.573-7.582 7.573-4.184 0-7.582-3.39-7.582-7.573z"/><path fill="#D4EEF8" d="M43.095 169.7c0-4.188 3.399-7.577 7.582-7.577 4.173 0 7.582 3.39 7.582 7.577s-3.409 7.577-7.582 7.577c-4.183 0-7.582-3.389-7.582-7.577zm-30.687 7.573a3.835 3.835 0 0 1 3.833-3.833 3.844 3.844 0 0 1 3.843 3.833 3.842 3.842 0 0 1-3.843 3.838 3.834 3.834 0 0 1-3.833-3.838z"/><path fill="#FDBA12" d="M54.265 301.716c0 5.627-4.57 10.197-10.198 10.197-5.637 0-10.207-4.57-10.207-10.197 0-5.638 4.57-10.198 10.207-10.198 5.628 0 10.198 4.56 10.198 10.198z"/><path fill="#D4EEF8" d="M25.901 276.986c0 2.975-2.417 5.401-5.392 5.401-2.983 0-5.401-2.427-5.401-5.401s2.417-5.392 5.401-5.392a5.397 5.397 0 0 1 5.392 5.392z"/></svg>