<svg xmlns="http://www.w3.org/2000/svg" width="512" height="512" viewBox="0 0 512 512"><g fill="#FDBA12"><path d="M322.123 366.303c3.97 3.97 10.402 3.97 14.363 0 3.979-3.971 3.979-10.403 0-14.364l-20.384-20.394c-3.971-3.961-10.403-3.971-14.364 0-3.97 3.97-3.97 10.412 0 14.373l20.385 20.385z"/><path d="M167.867 276.712c0-45.938 37.37-83.317 83.327-83.317 45.928 0 83.298 37.379 83.298 83.317 0 45.938-37.37 83.316-83.298 83.316-45.957 0-83.327-37.379-83.327-83.316zm12.314 0c0 39.158 31.854 70.994 71.004 70.994s70.994-31.836 70.994-70.994c0-39.149-31.845-70.995-70.985-70.995-39.159 0-71.013 31.846-71.013 70.995z"/></g><path d="M453.035 302.967h30.881v4.851h-30.881zm35.301 0h12.106v4.851h-12.106z" fill="#FDBA12"/><g fill="#D4EEF8"><path d="M12.104 213.288h28.194v3.455H12.104z"/><path d="M24.474 200.918h3.446v28.199h-3.446z"/></g><g fill="#D4EEF8"><path d="M458.887 117.934h28.194v3.455h-28.194z"/><path d="M471.257 105.564h3.445v28.198h-3.445z"/></g><g fill="#D4EEF8"><path d="M440.132 364.261h28.193v3.465h-28.193z"/><path d="M452.501 351.901h3.446v28.193h-3.446z"/></g><path fill="#D4EEF8" d="M24.118 314.362c0 6.658-5.402 12.032-12.042 12.032-6.639 0-12.051-5.374-12.051-12.032 0-6.657 5.412-12.032 12.051-12.032s12.042 5.375 12.042 12.032z"/><path fill="#FDBA12" d="M55.336 270.719c0 4.157-3.371 7.51-7.519 7.51-4.139 0-7.519-3.353-7.519-7.51s3.38-7.514 7.519-7.514a7.515 7.515 0 0 1 7.519 7.514z"/><path fill="#D4EEF8" d="M481.594 339.579c0 4.147-3.371 7.509-7.519 7.509-4.139 0-7.52-3.361-7.52-7.509 0-4.158 3.381-7.52 7.52-7.52a7.52 7.52 0 0 1 7.519 7.52zm30.431-7.51c0 2.097-1.704 3.802-3.802 3.802s-3.811-1.705-3.811-3.802c0-2.116 1.713-3.812 3.811-3.812s3.802 1.696 3.802 3.812z"/><path fill="#FDBA12" d="M411.723 102.156c0-5.585 4.532-10.122 10.113-10.122 5.59 0 10.122 4.537 10.122 10.122s-4.532 10.108-10.122 10.108c-5.581 0-10.113-4.523-10.113-10.108z"/><path fill="#D4EEF8" d="M462.286 170.758a5.355 5.355 0 0 1 5.347-5.356 5.356 5.356 0 0 1 5.355 5.356 5.345 5.345 0 0 1-5.355 5.342 5.345 5.345 0 0 1-5.347-5.342z"/><path d="M172.175 91.248h29.963v60.283h-29.963zm133.037 0h29.964v60.283h-29.964z" fill="#143F6A"/><path fill="#8BD7F8" d="M427.463 420.639H79.887V142.036h347.576v278.603zM99.064 401.463h309.222V161.212H99.064v240.251z"/></svg>