<svg xmlns="http://www.w3.org/2000/svg" width="512" height="512" viewBox="0 0 512 512"><path fill="#143F6A" d="M108.118 428.16c-8.032 8.045-21.075 8.045-29.107 0-8.057-8.045-8.057-21.087 0-29.12l41.309-41.309c8.045-8.044 21.087-8.044 29.12 0 8.045 8.045 8.045 21.075 0 29.107l-41.322 41.322z"/><path fill="#F3BA85" d="M221 281.429l27.133 15.309v-33.105H221z"/><path fill="#FDD29D" d="M248.133 280.186s-31.789-12.701-34.763-28.839l-2.95-16.138s-10.19-5.924-10.19-19.502c0-13.554 4.656-9.313 4.656-9.313l13.578-40.285 29.668 4.254v109.823z"/><path fill="#FFF" d="M221 281.429l27.133 104.727v-89.418z"/><path fill="#EF4136" d="M257.202 301.613l-9.069-4.875v88.359l9.873-32.436-6.362-42.612z"/><path fill="#F3C094" d="M275.266 281.429l-27.133 15.309v-33.105h27.133z"/><path fill="#FED9A0" d="M248.133 280.186s31.813-12.701 34.763-28.839l2.974-16.138s10.19-5.924 10.19-19.502c0-13.554-4.681-9.313-4.681-9.313l-13.555-40.285-29.692 4.254v109.823z"/><path fill="#FFF" d="M275.266 281.429L247.28 386.156v-89.418z"/><path d="M248.133 190.499s-13.018-2.218-20.039-8.922l-6.996-6.655-6.021 28.607 1.901 13.993-1.901 2.547-3.486-6.691s-8.727-7.618-11.36-13.335c-2.657-5.741-7.094-31.679 4.973-44.783 12.091-13.103 20.575-17.991 29.375-19.515 8.776-1.536 16.723-1.06 16.723-1.06s7.337-4.961 16.211-1.28c8.923 3.657 29.595 26.56 29.595 26.56s3.804 14.627 3.169 24.171c-.634 9.532-3.803 22.574-6.679 25.755-2.853 3.182-2.853 10.178-2.853 10.178s-8.581-27.352-7.947-33.715c.634-6.362-5.412-7.63-5.412-7.63l-6.996-.317 6.68 9.215s-26.402-8.533-28.937-11.567c-2.56-3.06 9.873 14.749 9.873 14.749l-9.873-.305z"/><path fill="#FDBA12" d="M275.266 281.429l-27.132 100.803L221 281.429l-66.967 30.204-3.486 38.347c28.449 26.56 66.528 42.954 108.434 42.954 35.3 0 67.819-11.689 94.27-31.204l-10.994-50.097-66.991-30.204z"/><path fill="#8BD7F8" d="M251.887 415.447c-93.1 0-168.842-75.755-168.842-168.855S158.788 77.738 251.887 77.738c93.125 0 168.867 75.755 168.867 168.854 0 93.1-75.742 168.855-168.867 168.855zm0-312.746c-79.326 0-143.879 64.541-143.879 143.892s64.553 143.891 143.879 143.891c79.351 0 143.904-64.54 143.904-143.891 0-79.351-64.553-143.892-143.904-143.892z"/><path d="M450.044 305.563h40.2v6.314h-40.2zm45.953 0h15.761v6.314h-15.761z" fill="#D4EEF8"/><g fill="#D4EEF8"><path d="M15.481 132.058h36.701v4.498H15.481z"/><path d="M31.583 115.957h4.485v36.707h-4.485z"/></g><g fill="#FDBA12"><path d="M455.81 111.453h36.701v4.498H455.81z"/><path d="M471.911 95.351h4.486v36.707h-4.486z"/></g><g fill="#D4EEF8"><path d="M402.397 382.841h36.701v4.498h-36.701z"/><path d="M418.499 366.739h4.485v36.701h-4.485z"/></g><path fill="#FDBA12" d="M31.12 263.633c0 8.666-7.033 15.675-15.675 15.675S-.243 272.299-.243 263.633c0-8.661 7.045-15.669 15.688-15.669s15.675 7.008 15.675 15.669z"/><path fill="#D4EEF8" d="M71.758 206.819c0 5.406-4.388 9.782-9.788 9.782-5.388 0-9.788-4.375-9.788-9.782 0-5.406 4.4-9.781 9.788-9.781 5.4 0 9.788 4.376 9.788 9.781z"/><path fill="#FDBA12" d="M456.37 350.699c0 5.399-4.388 9.787-9.787 9.787-5.388 0-9.788-4.388-9.788-9.787 0-5.4 4.4-9.788 9.788-9.788 5.399 0 9.787 4.388 9.787 9.788z"/><path fill="#D4EEF8" d="M495.984 340.923c0 2.73-2.218 4.949-4.948 4.949s-4.961-2.219-4.961-4.949c0-2.742 2.23-4.961 4.961-4.961s4.948 2.219 4.948 4.961zM394.414 90.914c0-7.271 5.899-13.176 13.164-13.176 7.276 0 13.176 5.906 13.176 13.176 0 7.271-5.899 13.158-13.176 13.158-7.265 0-13.164-5.887-13.164-13.158zm65.82 89.303c0-3.845 3.12-6.972 6.96-6.972a6.974 6.974 0 0 1 6.972 6.972c0 3.846-3.12 6.954-6.972 6.954a6.956 6.956 0 0 1-6.96-6.954z"/></svg>