<svg xmlns="http://www.w3.org/2000/svg" width="512" height="512" viewBox="0 0 512 512"><path fill="#143F6A" d="M256.943 256.061c11.178 2.027 17.54 11.167 21.246 13.255 11.178 6.323-45.679 19.589 10.269 60.423-1.418 20.317-.579 39.256-2.736 42.673-4.915 7.821-2.298 12.846 0 15.322-13.346 3.427 2.687 31.835 13.345 25.362 6.563-3.996 0-12.286 5.714-20.158-5.714-13.784 41.803-51.512 50.563-58.064 0 0-.3-16.572 12.955-27.011 6.573-5.174-9.929-15.672-21.186-12.046 0 0-.67-21.326-31.565-18.659-11.827 1.019-19.708-6.403-19.708-6.403s-10.099-19.188-21.156-19.188c-1.788 0 1.378-7.112-5.514-10.718-5.414-2.837-20.458-3.006-20.458-8.72 0-5.713 14.594-3.426 23.664-10.648 2.737-2.168 6.753 8.48 9.609 6.073 3.257-2.737-3.566-7.751 6.513-16.342 1.838-1.548 11.737-12.197 20.147-19.119 3.026-2.498 9-.56 9.919-3.077 3.506-9.52-12.756-1.519-7.281-13.595 1.968-4.325 32.074 7.602 33.802 5.874 4.176-4.185-22.285-5.614-11.317-12.146 4.645-2.787-31.625-31.545-42.213-28.628-10.608 2.907 1.599 30.965-9.589 28.628-11.088-2.327-24.373-13.235-31.615-19.478-8.521-7.362 14.494-6.763 18.779-12.816 5.145-7.262.669-14.184-3.546-15.553-16.063-5.134-38.338 6.893-48.866 4.255-18.62-4.665-10.019-9.22-30.067-12.017-9.989-1.389-20.907 5.833-37.498 2.557-20.237-3.985-20.068 33.992-27.629 42.872 18.969-16.542 57.276-4.455 53.521 10.199-4.905 19.149 30.097 49.195 35.67 62.96 2.917 7.212 14.943-7.801 24.702 19.438 1.778 8.47 12.386 2.846 21.526 4.495z"/><path fill="#8BD7F8" d="M429.002 256.37c0-100.269-81.29-181.558-181.558-181.558-100.269 0-181.558 81.29-181.558 181.558s81.29 181.558 181.558 181.558c100.268 0 181.558-81.289 181.558-181.558zm-346.614 0c0-91.159 73.897-165.056 165.056-165.056S412.5 165.211 412.5 256.37c0 91.158-73.897 165.056-165.056 165.056S82.388 347.528 82.388 256.37z"/><path fill="#FDBA12" d="M371.735 148c-30.256-34.681-74.657-56.687-124.292-56.687-4.745 0-9.419.319-14.054.709l12.266 164.347L371.735 148z"/><path d="M461.785 323.565h32.943v5.174h-32.943zm37.658 0h12.916v5.174h-12.916z" fill="#D4EEF8"/><g fill="#D4EEF8"><path d="M13.245 181.378h30.077v3.686H13.245z"/><path d="M26.44 168.183h3.676v30.082H26.44z"/></g><g fill="#D4EEF8"><path d="M466.51 164.492h30.077v3.686H466.51z"/><path d="M479.705 151.297h3.676v30.082h-3.676z"/></g><g fill="#D4EEF8"><path d="M422.738 386.895h30.077v3.687h-30.077z"/><path d="M435.934 373.699h3.677v30.077h-3.677z"/></g><path fill="#FDBA12" d="M26.06 289.203c0 7.103-5.763 12.846-12.846 12.846-7.082 0-12.855-5.743-12.855-12.846 0-7.092 5.773-12.846 12.855-12.846 7.083 0 12.846 5.754 12.846 12.846z"/><path fill="#D4EEF8" d="M51.342 328.739a8.02 8.02 0 1 1-16.042 0c0-4.425 3.606-8.011 8.021-8.011 4.425.001 8.021 3.586 8.021 8.011z"/><path fill="#FDBA12" d="M466.97 360.554c0 4.426-3.597 8.021-8.021 8.021-4.415 0-8.021-3.596-8.021-8.021 0-4.425 3.605-8.021 8.021-8.021 4.424 0 8.021 3.596 8.021 8.021z"/><path fill="#D4EEF8" d="M499.434 352.543a4.06 4.06 0 1 1-4.056-4.065 4.061 4.061 0 0 1 4.056 4.065z"/><path fill="#FDBA12" d="M416.196 147.661c0-5.958 4.834-10.798 10.788-10.798 5.963 0 10.798 4.839 10.798 10.798s-4.835 10.783-10.798 10.783c-5.954 0-10.788-4.824-10.788-10.783z"/><path fill="#D4EEF8" d="M470.136 220.845c0-3.152 2.558-5.714 5.704-5.714a5.715 5.715 0 0 1 5.713 5.714c0 3.151-2.557 5.698-5.713 5.698a5.7 5.7 0 0 1-5.704-5.698z"/></svg>