<svg xmlns="http://www.w3.org/2000/svg" width="512" height="512" viewBox="0 0 512 512"><path fill="#485A93" d="M434.218 435.109H90.302c-9.664 0-17.635-7.972-17.635-17.616v-229.01c0-9.645 7.971-17.606 17.635-17.606h343.916c9.636 0 17.606 7.961 17.606 17.606v229.01c0 10.061-7.97 17.616-17.606 17.616z"/><path fill="#19335E" d="M49.855 417.909c5.146 15.227 19.367 26.419 36.238 26.419h351.888c16.929 0 31.469-10.97 36.432-26.419H49.855z"/><path fill="#FFF" d="M91.124 194.365h341.827v210.126H91.124zM327.67 417.909H196.821l16.359 9.229h98.141z"/><path fill="#485A93" d="M253.936 362.507v-14.675c-10.361-.465-20.402-3.405-26.284-6.656l4.644-18.09c6.5 3.55 15.613 6.801 25.674 6.801 8.958 0 14.994-3.551 14.994-9.577 0-5.882-4.953-9.597-16.542-13.457-16.542-5.571-27.841-13.301-27.841-28.286 0-13.766 9.596-24.436 26.139-27.522V236.35h15.14v13.611c10.215.3 17.161 2.622 22.578 5.098l-4.634 17.471c-3.859-1.857-11.135-5.408-22.269-5.408-10.052 0-13.292 4.479-13.292 8.813 0 4.943 5.408 8.339 18.7 13.137 18.409 6.501 25.675 14.994 25.675 29.07 0 13.756-9.597 25.51-27.368 28.451v15.913h-15.314z"/><path fill="#8BD7F8" d="M181.285 342.83v-10.1c-7.139-.319-14.046-2.341-18.09-4.575l3.192-12.45c4.479 2.447 10.748 4.682 17.665 4.682 6.172 0 10.322-2.447 10.322-6.588 0-4.054-3.415-6.607-11.386-9.258-11.376-3.841-19.154-9.151-19.154-19.464 0-9.471 6.607-16.813 17.984-18.941v-10.109h10.419v9.364c7.023.213 11.802 1.81 15.536 3.512l-3.192 12.024c-2.651-1.286-7.662-3.725-15.324-3.725-6.907 0-9.142 3.086-9.142 6.065 0 3.396 3.725 5.737 12.866 9.036 12.663 4.479 17.665 10.321 17.665 20.005 0 9.462-6.607 17.549-18.835 19.57v10.951h-10.526zm164.475 0v-10.1c-7.139-.319-14.046-2.341-18.09-4.575l3.192-12.45c4.479 2.447 10.748 4.682 17.665 4.682 6.172 0 10.321-2.447 10.321-6.588 0-4.054-3.415-6.607-11.386-9.258-11.377-3.841-19.154-9.151-19.154-19.464 0-9.471 6.607-16.813 17.983-18.941v-10.109h10.419v9.364c7.023.213 11.802 1.81 15.536 3.512l-3.192 12.024c-2.65-1.286-7.661-3.725-15.323-3.725-6.907 0-9.142 3.086-9.142 6.065 0 3.396 3.725 5.737 12.866 9.036 12.663 4.479 17.664 10.321 17.664 20.005 0 9.462-6.607 17.549-18.835 19.57v10.951H345.76z"/><g fill="#D4EEF8"><path d="M402.11 144.661h31.904v5.011H402.11zm36.471 0h12.509v5.011h-12.509zM58.098 124.752h29.128v3.56H58.098z"/><path d="M70.877 111.963h3.56v29.138h-3.56zm412.214-16.349h29.128v3.569h-29.128z"/><path d="M495.87 82.835h3.56v29.138h-3.56zM.219 181.286h25.742v3.163H.219z"/><path d="M11.508 169.997h3.153v25.742h-3.153zm15.595 66.353c0 6.878-5.582 12.441-12.441 12.441-6.858 0-12.45-5.563-12.45-12.441 0-6.868 5.592-12.44 12.45-12.44 6.859-.001 12.441 5.571 12.441 12.44zm38.763-59.553a7.773 7.773 0 0 1-7.768 7.768c-4.276 0-7.768-3.482-7.768-7.768s3.492-7.768 7.768-7.768c4.285 0 7.768 3.483 7.768 7.768zm441.332 132.804c0 4.285-3.482 7.768-7.769 7.768-4.275 0-7.768-3.482-7.768-7.768s3.492-7.769 7.768-7.769a7.774 7.774 0 0 1 7.769 7.769zm-11.135-38.977c0 2.167-1.761 3.928-3.928 3.928s-3.938-1.761-3.938-3.928c0-2.177 1.771-3.937 3.938-3.937s3.928 1.76 3.928 3.937zm-61.7-191.311c0-5.766 4.683-10.458 10.448-10.458 5.774 0 10.457 4.692 10.457 10.458s-4.683 10.448-10.457 10.448c-5.765 0-10.448-4.682-10.448-10.448zm52.24 70.872c0-3.047 2.477-5.534 5.523-5.534a5.538 5.538 0 0 1 5.533 5.534 5.524 5.524 0 0 1-5.533 5.523 5.521 5.521 0 0 1-5.523-5.523z"/></g></svg>