<svg xmlns="http://www.w3.org/2000/svg" width="512" height="512" viewBox="0 0 512 512"><g fill="none" stroke-width="2" stroke-miterlimit="10"><circle stroke="#485A93" cx="960.114" cy="724.81" r="13.87"/><path stroke="#8BD7F8" stroke-linecap="round" d="M959.367 717.555v7.14l7.781 4.303"/></g><g fill="#D4EEF8"><path d="M976.68 729.034h3.221v.506h-3.221zm3.681 0h1.263v.506h-1.263zm-38.498-13.9h2.94v.359h-2.94z"/><path d="M943.153 713.843h.359v2.941h-.359zm33.989-.361h2.94v.36h-2.94z"/><path d="M978.432 712.192h.359v2.941h-.359zm-5.57 23.034h2.94v.36h-2.94z"/><path d="M974.152 733.936h.359v2.94h-.359z"/><circle cx="941.86" cy="725.675" r="1.256"/><circle cx="941.588" cy="721.123" r=".784"/><circle cx="976.402" cy="732.65" r=".784"/><circle cx="979.963" cy="731.867" r=".397"/><circle cx="973.278" cy="711.837" r="1.055"/><circle cx="978.054" cy="718.991" r=".558"/></g><path fill="#485A93" d="M243.626 442.405c-102.333 0-185.59-83.251-185.59-185.59s83.257-185.602 185.59-185.602c102.339 0 185.603 83.263 185.603 185.602s-83.264 185.59-185.603 185.59zm0-346.229c-88.571 0-160.627 72.062-160.627 160.639 0 88.566 72.056 160.627 160.627 160.627 88.578 0 160.64-72.062 160.64-160.627 0-88.578-72.062-160.639-160.64-160.639z"/><path fill="#8BD7F8" d="M331.424 321.575c-2.048 0-4.107-.499-6.033-1.56L221.832 262.75v-96.488c0-6.893 5.589-12.481 12.482-12.481 6.893 0 12.481 5.589 12.481 12.481v81.764l90.686 50.146c6.021 3.34 8.216 10.934 4.876 16.967a12.486 12.486 0 0 1-10.933 6.436z"/><g fill="#D4EEF8"><path d="M450.4 309.545h40.2v6.313h-40.2zm45.954 0h15.761v6.313h-15.761zM15.838 136.046h36.701v4.485H15.838z"/><path d="M31.939 119.933h4.485v36.713h-4.485zm424.227-4.498h36.701v4.498h-36.701z"/><path d="M472.268 99.333h4.486v36.713h-4.486zm-69.514 287.49h36.701v4.498h-36.701z"/><path d="M418.855 370.722h4.485v36.701h-4.485zM31.476 267.614c0 8.667-7.033 15.676-15.675 15.676S.113 276.281.113 267.614c0-8.654 7.045-15.675 15.688-15.675s15.675 7.021 15.675 15.675zm-9.288-56.812c0 5.399-4.388 9.788-9.788 9.788-5.388 0-9.788-4.388-9.788-9.788s4.4-9.788 9.788-9.788c5.4 0 9.788 4.388 9.788 9.788zm434.539 143.879c0 5.399-4.388 9.788-9.787 9.788-5.388 0-9.788-4.389-9.788-9.788s4.4-9.788 9.788-9.788c5.399 0 9.787 4.388 9.787 9.788zm39.614-9.776c0 2.73-2.218 4.948-4.948 4.948s-4.961-2.218-4.961-4.948c0-2.742 2.23-4.961 4.961-4.961s4.948 2.219 4.948 4.961zM394.771 94.896c0-7.265 5.899-13.176 13.164-13.176 7.276 0 13.176 5.912 13.176 13.176s-5.899 13.164-13.176 13.164c-7.265 0-13.164-5.899-13.164-13.164zm65.82 89.297c0-3.839 3.12-6.972 6.96-6.972 3.852 0 6.972 3.133 6.972 6.972a6.96 6.96 0 0 1-6.972 6.96 6.957 6.957 0 0 1-6.96-6.96z"/></g></svg>