<svg xmlns="http://www.w3.org/2000/svg" width="512" height="512" viewBox="0 0 512 512"><path fill="#8BD7F8" d="M312.378 3.237c4.99 2.66-6.459 5.674-6.231 10.36 8.841 17.124 27.104 18.061 35.26 35.272 9.828 20.657-5.015 61.236 9.348 78.853-2.989 22.405-8.132 40.047-16.592 59.121-4.509 10.145-12.665 22.734-8.309 41.491 2.331 10.018 13.273 16.667 13.501 31.118 35.159 21.568 84.021 29.408 113.074 57.044-.531 5.712 1.723 114.847-.456 118.874H101.327c0-6.218-.583-113.669-.583-119.9 30.928-22.671 70.798-36.387 107.907-52.902 4.61-24.443 25.33-32.347 20.72-58.095-1.14-6.586-8.84-12.475-11.399-18.668-3.065-7.384-5.218-18.833-8.283-29.054-4.408-14.628-11.551-31.688 0-40.452 1.95-24.697-3.167-47.798 2.052-65.365 9.322-31.182 59.222-44.759 100.637-47.697z"/><path fill="#485A93" d="M376.628 410.129c0 55.094-44.683 99.775-99.775 99.775-55.119 0-99.801-44.682-99.801-99.775s44.683-99.775 99.801-99.775c55.092 0 99.775 44.682 99.775 99.775z"/><path fill="#FFF" d="M325.728 423.11l-97.775-.013c-7.162 0-12.969-5.813-12.969-12.969 0-7.168 5.807-12.969 12.969-12.969l97.775.013c7.168 0 12.969 5.813 12.969 12.969-.001 7.17-5.814 12.969-12.969 12.969z"/><path fill="#FFF" d="M276.827 471.985c-7.169 0-12.969-5.813-12.969-12.969l.013-97.775c0-7.168 5.813-12.969 12.969-12.969 7.168 0 12.969 5.813 12.969 12.969l-.013 97.775c0 7.169-5.814 12.969-12.969 12.969z"/><g fill="#D4EEF8"><path d="M368.168 186.07h41.77v6.561h-41.77zm47.747 0h16.376v6.561h-16.376zM16.66 143.275h38.135v4.661H16.66z"/><path d="M33.391 126.532h4.661v38.147h-4.661zm440.797-4.674h38.135v4.673h-38.135z"/><path d="M490.918 105.127h4.661v38.147h-4.661zM124.048 218.62h38.135v4.673h-38.135z"/><path d="M140.778 201.889h4.661v38.135h-4.661zM32.91 279.982c0 9.005-7.308 16.287-16.287 16.287-8.98 0-16.3-7.282-16.3-16.287 0-8.992 7.32-16.287 16.3-16.287 8.979 0 16.287 7.295 16.287 16.287zm42.225-59.032c0 5.61-4.56 10.17-10.17 10.17-5.598 0-10.17-4.56-10.17-10.17 0-5.611 4.572-10.17 10.17-10.17 5.611 0 10.17 4.559 10.17 10.17zm430.614 181.061c0 5.61-4.56 10.17-10.17 10.17-5.598 0-10.17-4.56-10.17-10.17s4.572-10.17 10.17-10.17c5.61 0 10.17 4.559 10.17 10.17zm-14.577-51.029c0 2.838-2.306 5.143-5.143 5.143s-5.154-2.305-5.154-5.143c0-2.85 2.317-5.154 5.154-5.154s5.143 2.305 5.143 5.154zm-80.778-250.464c0-7.548 6.13-13.691 13.679-13.691 7.561 0 13.69 6.143 13.69 13.691s-6.13 13.678-13.69 13.678c-7.55 0-13.679-6.13-13.679-13.678zm68.391 92.784c0-3.99 3.242-7.245 7.231-7.245 4.003 0 7.245 3.255 7.245 7.245 0 4.002-3.242 7.231-7.245 7.231a7.228 7.228 0 0 1-7.231-7.231z"/></g></svg>