<svg xmlns="http://www.w3.org/2000/svg" width="512" height="512" viewBox="0 0 512 512"><path fill="#8BD7F8" d="M315.466 76.951c3.082 1.635-4.012 3.521-3.886 6.439 5.509 10.602 16.802 11.193 21.857 21.871 6.112 12.803-3.081 37.981 5.823 48.91-1.861 13.872-5.043 24.838-10.3 36.673-2.792 6.289-7.86 14.098-5.156 25.731 1.459 6.213 8.237 10.338 8.376 19.305 21.808 13.381 52.104 18.223 70.139 35.377-.327 3.521 1.044 43.25-.289 45.74H184.532c0-3.86-.352-42.521-.352-46.382 19.191-14.073 43.917-22.575 66.932-32.812 2.88-15.167 15.708-20.059 12.854-36.044-.692-4.087-5.483-7.722-7.068-11.57-1.912-4.578-3.245-11.684-5.144-18.022-2.729-9.08-7.156-19.645 0-25.065 1.22-15.331-1.975-29.668 1.27-40.584 5.786-19.318 36.736-27.731 62.442-29.567z"/><path fill="#485A93" d="M356.704 491.822c-.893 0-1.622-.024-2.15-.063H132.755c-15.947 0-25.096-6.414-29.963-11.797-9.571-10.589-9.476-24.146-9.25-27.869V59.985c0-28.523 23.248-38.874 38.874-38.874h221.66c26.511 0 37.39 19.789 39.427 30.259l.239 2.465v42.194c0 7.112-5.76 12.878-12.879 12.878-7.118 0-12.878-5.766-12.878-12.878V55.464c-.993-3.019-4.175-8.596-13.909-8.596h-221.66c-5.905.151-13.117 2.547-13.117 13.117l-.063 393.87c.006 0-.271 5.685 2.735 8.917 2 2.138 5.628 3.231 10.784 3.231l223.597.063c-.025 0-.063.012.339.012 1.245 0 5.584-.176 8.2-2.615 2.05-1.912 3.094-5.421 3.094-10.413V348.929c0-7.118 5.76-12.878 12.878-12.878 7.119 0 12.879 5.76 12.879 12.878V453.05c0 15.758-6.352 24.801-11.671 29.604-8.955 8.087-20.034 9.168-25.367 9.168z"/><path fill="#485A93" d="M290.062 418.464c0 5.924-4.804 10.716-10.715 10.716h-71.459c-5.911 0-10.715-4.792-10.715-10.716 0-5.923 4.804-10.715 10.715-10.715h71.459c5.911 0 10.715 4.792 10.715 10.715z"/><g fill="#D4EEF8"><path d="M418.669 200.552h41.477v6.515h-41.477zm47.413 0h16.261v6.515h-16.261zM15.807 91.149h37.868v4.628H15.807z"/><path d="M32.42 74.523h4.628v37.88H32.42zm437.712-4.64h37.867v4.641h-37.867z"/><path d="M486.745 53.269h4.628v37.88h-4.628zm-71.724 227.018h37.867v4.641h-37.867z"/><path d="M431.635 263.673h4.628v37.868h-4.628zM31.942 226.899c0 8.942-7.256 16.173-16.173 16.173-8.917 0-16.186-7.231-16.186-16.173 0-8.929 7.269-16.173 16.186-16.173s16.173 7.244 16.173 16.173zm41.931-58.618c0 5.571-4.527 10.099-10.099 10.099-5.559 0-10.099-4.528-10.099-10.099s4.54-10.099 10.099-10.099c5.571 0 10.099 4.527 10.099 10.099zm396.837 78.842c0 5.571-4.527 10.099-10.099 10.099-5.559 0-10.1-4.528-10.1-10.099s4.541-10.099 10.1-10.099c5.572-.001 10.099 4.527 10.099 10.099zm40.873-10.087c0 2.817-2.288 5.106-5.105 5.106s-5.119-2.289-5.119-5.106c0-2.83 2.302-5.119 5.119-5.119s5.105 2.29 5.105 5.119zM406.784 48.691c0-7.496 6.087-13.595 13.582-13.595 7.509 0 13.596 6.1 13.596 13.595s-6.087 13.583-13.596 13.583c-7.495 0-13.582-6.087-13.582-13.583zm67.912 92.135c0-3.961 3.22-7.193 7.182-7.193 3.974 0 7.193 3.232 7.193 7.193 0 3.975-3.22 7.181-7.193 7.181a7.179 7.179 0 0 1-7.182-7.181z"/></g></svg>