<svg xmlns="http://www.w3.org/2000/svg" width="512" height="512" viewBox="0 0 512 512"><path fill="#8BD7F8" d="M311.252 3.237c4.99 2.66-6.459 5.674-6.231 10.36 8.841 17.124 27.104 18.061 35.26 35.272 9.828 20.657-5.016 61.236 9.347 78.853-2.988 22.405-8.131 40.047-16.591 59.121-4.509 10.145-12.665 22.734-8.309 41.491 2.33 10.018 13.273 16.667 13.501 31.118 35.158 21.568 84.021 29.408 113.074 57.044-.532 5.712 1.723 114.847-.456 118.874H100.201c0-6.218-.583-113.669-.583-119.9 30.928-22.671 70.798-36.387 107.907-52.902 4.61-24.443 25.331-32.347 20.72-58.095-1.14-6.586-8.84-12.475-11.398-18.668-3.065-7.384-5.218-18.833-8.283-29.054-4.407-14.628-11.55-31.688 0-40.452 1.951-24.697-3.166-47.798 2.052-65.365 9.321-31.182 59.221-44.759 100.636-47.697z"/><path fill="#485A93" d="M375.502 410.129c0 55.094-44.683 99.775-99.775 99.775-55.119 0-99.801-44.682-99.801-99.775s44.682-99.775 99.801-99.775c55.092 0 99.775 44.682 99.775 99.775z"/><path fill="#FFF" d="M252.353 457.927l-39.04-41.034c-4.933-5.193-4.73-13.4.456-18.34 5.205-4.914 13.406-4.711 18.339.456l22.994 24.165 68.436-52.307c5.712-4.307 13.83-3.255 18.188 2.432 4.344 5.699 3.255 13.83-2.433 18.188l-86.94 66.44z"/><g fill="#D4EEF8"><path d="M368.194 194.188h41.77v6.561h-41.77zm47.747 0h16.376v6.561h-16.376zM16.687 151.393h38.135v4.661H16.687z"/><path d="M33.417 134.65h4.661v38.147h-4.661zm440.797-4.673h38.135v4.673h-38.135z"/><path d="M490.944 113.246h4.661v38.147h-4.661zm-366.87 113.492h38.135v4.673h-38.135z"/><path d="M140.805 210.007h4.661v38.135h-4.661zM32.936 288.101c0 9.005-7.308 16.287-16.288 16.287s-16.3-7.282-16.3-16.287c0-8.992 7.32-16.287 16.3-16.287s16.288 7.294 16.288 16.287zm42.226-59.033c0 5.611-4.56 10.17-10.17 10.17-5.598 0-10.17-4.559-10.17-10.17 0-5.61 4.572-10.17 10.17-10.17 5.61 0 10.17 4.56 10.17 10.17zm430.613 181.061c0 5.61-4.56 10.17-10.17 10.17-5.598 0-10.17-4.56-10.17-10.17s4.572-10.17 10.17-10.17c5.611 0 10.17 4.56 10.17 10.17zm-14.577-51.027c0 2.837-2.306 5.142-5.143 5.142s-5.154-2.305-5.154-5.142c0-2.85 2.317-5.155 5.154-5.155s5.143 2.305 5.143 5.155zM410.42 108.636c0-7.548 6.13-13.691 13.678-13.691 7.562 0 13.691 6.143 13.691 13.691s-6.13 13.678-13.691 13.678c-7.548 0-13.678-6.13-13.678-13.678zm68.392 92.784c0-3.989 3.242-7.244 7.231-7.244 4.002 0 7.244 3.255 7.244 7.244 0 4.002-3.242 7.232-7.244 7.232a7.229 7.229 0 0 1-7.231-7.232z"/></g></svg>