<svg xmlns="http://www.w3.org/2000/svg" width="512" height="512" viewBox="0 0 512 512"><path fill="#485A93" d="M383.962.799L317.57.704c-74.587 0-122.81 49.458-122.81 125.999v58.101h-66.745c-5.767 0-10.448 4.681-10.448 10.448v84.167c0 5.767 4.681 10.435 10.448 10.435h66.745V502.27c0 5.767 4.681 10.435 10.448 10.435h87.097c5.767 0 10.448-4.668 10.448-10.435V289.853H380.8c5.767 0 10.447-4.668 10.447-10.435l.027-84.167a10.5 10.5 0 0 0-3.053-7.395 10.469 10.469 0 0 0-7.382-3.053h-78.087v-49.254c0-23.69 5.645-35.699 36.459-35.699h44.749c5.753 0 10.435-4.695 10.435-10.448V11.247c.001-5.78-4.68-10.448-10.433-10.448z"/></svg>