<svg xmlns="http://www.w3.org/2000/svg" width="512" height="512" viewBox="0 0 512 512"><g fill="#EBF7FE"><path d="M137.827 393.497c-18.387 9.378-40.895 2.079-50.274-16.308-9.379-18.383-2.081-40.894 16.304-50.274L383.62 182.456c18.384-9.379 40.891-2.082 50.271 16.306 9.383 18.384 2.082 40.895-16.303 50.276L137.827 393.497z"/><path d="M166.723 295.304c-18.388 9.381-40.897 2.081-50.274-16.304-9.383-18.389-2.082-40.896 16.306-50.274l157.982-81.536c18.39-9.381 40.896-2.081 50.278 16.306 9.383 18.384 2.082 40.893-16.307 50.274l-157.985 81.534zm67.939 133.163c-18.385 9.381-40.892 2.08-50.271-16.307-9.383-18.383-2.084-40.896 16.306-50.274l157.983-81.535c18.39-9.379 40.896-2.08 50.279 16.306 9.378 18.385 2.075 40.897-16.308 50.276l-157.989 81.534z"/></g><path fill="#D4EEF8" d="M74.632 290.091c-.063-.552-.704-.964-1.259-.964-1.791 0-3.382-1.054-4.049-2.68a4.357 4.357 0 0 1 1.094-4.838c.42-.385.471-1.027.118-1.475a19.35 19.35 0 0 0-3.098-3.129 1.089 1.089 0 0 0-1.487.12c-1.166 1.291-3.259 1.771-4.879 1.095a4.342 4.342 0 0 1-2.641-4.247 1.086 1.086 0 0 0-.958-1.142 19.45 19.45 0 0 0-4.401-.011c-.568.06-.988.552-.97 1.119a4.348 4.348 0 0 1-2.678 4.172c-1.598.652-3.679.178-4.843-1.102a1.09 1.09 0 0 0-1.475-.124 19.353 19.353 0 0 0-3.164 3.129c-.361.448-.31 1.1.116 1.486a4.33 4.33 0 0 1 1.094 4.879c-.675 1.609-2.344 2.646-4.254 2.646-.623-.019-1.063.397-1.131.96a19.64 19.64 0 0 0-.009 4.449c.063.551.722.962 1.281.962 1.705-.044 3.342 1.01 4.025 2.678a4.343 4.343 0 0 1-1.093 4.837 1.088 1.088 0 0 0-.119 1.474 19.429 19.429 0 0 0 3.094 3.133c.449.361 1.102.31 1.488-.119 1.171-1.294 3.265-1.774 4.877-1.096a4.334 4.334 0 0 1 2.645 4.245 1.092 1.092 0 0 0 .962 1.144 19.666 19.666 0 0 0 4.398.011 1.09 1.09 0 0 0 .968-1.12 4.352 4.352 0 0 1 2.676-4.172c1.609-.657 3.681-.176 4.845 1.103a1.093 1.093 0 0 0 1.477.124 19.481 19.481 0 0 0 3.164-3.131c.361-.447.31-1.1-.117-1.484a4.328 4.328 0 0 1-1.094-4.879c.664-1.588 2.271-2.652 4-2.652l.242.005c.561.048 1.078-.385 1.146-.958a19.69 19.69 0 0 0 .009-4.448zm-19.408 8.738c-3.596 0-6.525-2.928-6.525-6.527 0-3.595 2.929-6.521 6.525-6.521s6.525 2.927 6.525 6.521a6.534 6.534 0 0 1-6.525 6.527z"/><g fill="#D4EEF8"><path d="M470.864 177.314a.854.854 0 0 0-.95-.623c-14.824 2.216-28.399-9.33-28.399-24.492 0-13.65 11.105-24.758 24.758-24.758 16.688 0 28.7 16.312 23.583 32.286a.853.853 0 0 0 .59 1.088l5.614 1.503c.29.079.57.178.84.297a.854.854 0 0 0 1.162-.522c6.699-21.524-9.515-43.188-31.789-43.188-18.361 0-33.296 14.935-33.296 33.293 0 21.164 19.271 36.33 38.992 32.829a.856.856 0 0 0 .677-1.063l-1.782-6.65z"/><path d="M466.384 143.273c2.038 0 3.093 1.395 3.07 2.753a2.564 2.564 0 0 0 2.596 2.603c1.457-.021 2.559-1.291 2.525-2.75-.082-3.53-2.487-6.492-5.742-7.423v-1.133c0-1.38-1.062-2.566-2.438-2.63a2.562 2.562 0 0 0-2.686 2.557v1.343c-3.4 1.142-5.814 4.317-5.741 8.025.085 4.491 3.81 8.144 8.304 8.144 1.275 0 2.39.77 2.895 1.868a.842.842 0 0 0 1.15.385 5.958 5.958 0 0 1 2.959-.647c.606.025 1.035-.586.832-1.16-1.139-3.221-4.222-5.55-7.798-5.569-1.417-.005-2.696-.938-3.094-2.298-.618-2.114 1.095-4.068 3.168-4.068zm1.837 25.533a.83.83 0 0 0 .159-.755c-1.186-4.423-1.376-4.799-1.309-6.025.025-.457-.312-.898-.913-.898-2.04 0-3.092-1.397-3.069-2.753a2.563 2.563 0 0 0-2.596-2.603c-1.457.02-2.559 1.292-2.524 2.748.081 3.53 2.487 6.494 5.743 7.425v1.135c-.002 2.444 2.968 3.546 4.509 1.726zm32.303 11.172l-7.137-7.138 2.936-2.937c1.394-1.393.756-3.776-1.148-4.285l-21.476-5.754c-1.9-.509-3.647 1.234-3.136 3.138.046.172 5.589 20.857 5.66 21.116.692 2.597 3.132 2.753 4.379 1.508l2.938-2.938 7.136 7.137a2.558 2.558 0 0 0 3.621 0l6.227-6.227a2.56 2.56 0 0 0 0-3.62z"/></g><g fill="#D4EEF8"><path d="M340.953 117.17h61.823v6.621h-61.823zm-245.51 73.408h26.51v2.779h-26.51zm185.933-80.791h26.496v2.782h-26.496zm155.016 208.876h26.51v2.782h-26.51zm-11.659 0h6.943v2.782h-6.943zm0-104.094h26.494v2.781h-26.494zM44.483 333.028h26.51v2.778h-26.51zM-.074 288.563h4.863v2.78H-.074zm7.608 0h11.222v2.78H7.534zM120.1 234.571h17.664v2.163H120.1z"/><path d="M127.859 226.81h2.163v17.668h-2.163zm-15.503-84.787h17.671v2.159h-17.671z"/><path d="M120.1 134.264h2.174v17.672H120.1zm353.385 149.301h26.493v3.241h-26.493z"/><path d="M485.107 271.938h3.246v26.497h-3.246zM226.421 109.559h26.488v3.237h-26.488z"/><path d="M238.04 97.927h3.25v26.501h-3.25zm-62.042 92.651c0 6.073-4.923 10.989-10.989 10.989a10.984 10.984 0 0 1-10.989-10.989c0-6.072 4.916-10.99 10.989-10.99 6.066-.001 10.989 4.917 10.989 10.99zm256.115-94.48a6.894 6.894 0 0 1-6.899 6.899 6.895 6.895 0 0 1-6.902-6.899 6.893 6.893 0 0 1 6.902-6.903 6.892 6.892 0 0 1 6.899 6.903zm-275.319 39.235a2.775 2.775 0 0 1-5.547 0 2.773 2.773 0 1 1 5.547 0zm212.134 19.405a2.775 2.775 0 0 1-2.779 2.773 2.772 2.772 0 0 1-2.768-2.773 2.766 2.766 0 0 1 2.768-2.768 2.77 2.77 0 0 1 2.779 2.768zM95.443 302.168a2.774 2.774 0 0 1-5.547 0 2.77 2.77 0 0 1 2.768-2.772 2.772 2.772 0 0 1 2.779 2.772zm-72.986-60.073a2.773 2.773 0 1 1-5.547 0 2.767 2.767 0 0 1 2.768-2.766 2.769 2.769 0 0 1 2.779 2.766zm471.18 99.225a6.902 6.902 0 0 1-6.903 6.901c-3.807 0-6.908-3.085-6.908-6.901a6.905 6.905 0 1 1 13.811 0zM363.381 84.937c0 3.82-3.092 6.912-6.899 6.912a6.914 6.914 0 0 1-6.913-6.912c0-3.801 3.101-6.89 6.913-6.89 3.807 0 6.899 3.089 6.899 6.89zM55.193 241.402c0 3.811-3.087 6.912-6.894 6.912a6.919 6.919 0 0 1-6.914-6.912c0-3.807 3.098-6.905 6.914-6.905 3.807.001 6.894 3.098 6.894 6.905zm61.751-25.153a2.773 2.773 0 1 1-5.547 0 2.767 2.767 0 0 1 2.768-2.766 2.768 2.768 0 0 1 2.779 2.766zm-21.501 24.264a4.353 4.353 0 0 1-4.346 4.357 4.36 4.36 0 0 1-4.357-4.357 4.358 4.358 0 0 1 4.357-4.352 4.352 4.352 0 0 1 4.346 4.352zM37.58 335.801c0 3.808-3.088 6.912-6.896 6.912a6.919 6.919 0 0 1-6.912-6.912c0-3.807 3.096-6.898 6.912-6.898a6.898 6.898 0 0 1 6.896 6.898zm450.453-97.046c0-6.595 5.357-11.945 11.949-11.945 6.595 0 11.943 5.35 11.943 11.945 0 6.595-5.349 11.936-11.943 11.936-6.591 0-11.949-5.341-11.949-11.936z"/></g><path fill="#D4EEF8" d="M192.544 150.24c-4.533 0-8.219-3.684-8.219-8.217 0-4.531 3.686-8.217 8.219-8.217 4.531 0 8.217 3.686 8.217 8.217 0 4.533-3.686 8.217-8.217 8.217zm0-13.802a5.592 5.592 0 0 0-5.587 5.585 5.594 5.594 0 0 0 5.587 5.587 5.593 5.593 0 0 0 5.585-5.587 5.59 5.59 0 0 0-5.585-5.585zM439.88 276.525c-4.533 0-8.22-3.687-8.22-8.218 0-4.53 3.687-8.217 8.22-8.217 4.53 0 8.217 3.687 8.217 8.217 0 4.532-3.687 8.218-8.217 8.218zm0-13.803a5.593 5.593 0 0 0-5.587 5.586 5.593 5.593 0 0 0 5.587 5.586 5.594 5.594 0 0 0 5.585-5.586 5.594 5.594 0 0 0-5.585-5.586zM67.852 209.784c-4.531 0-8.217-3.686-8.217-8.217s3.686-8.219 8.217-8.219c4.533 0 8.217 3.688 8.217 8.219s-3.685 8.217-8.217 8.217zm0-13.805a5.592 5.592 0 0 0-5.585 5.587 5.59 5.59 0 0 0 5.585 5.585 5.591 5.591 0 0 0 5.585-5.585 5.592 5.592 0 0 0-5.585-5.587z"/><linearGradient id="a" gradientUnits="userSpaceOnUse" x1="-59.796" y1="376.231" x2="-59.796" y2="276.004" gradientTransform="translate(344.06 -170.6) scale(1.3937)"><stop offset="0" stop-color="#e19c3e"/><stop offset=".3" stop-color="#c74d4e"/><stop offset=".6" stop-color="#c31c76"/><stop offset="1" stop-color="#6a479c"/></linearGradient><path fill="url(#a)" d="M289.256 212.969h-57.069c-23.192 0-42.063 18.87-42.063 42.063v57.069c0 23.192 18.87 42.063 42.063 42.063h57.069c23.192 0 42.063-18.87 42.063-42.063v-57.069c0-23.193-18.871-42.063-42.063-42.063zm27.859 99.133c0 15.384-12.472 27.855-27.859 27.855h-57.069c-15.388 0-27.859-12.472-27.859-27.855v-57.069c0-15.392 12.471-27.863 27.859-27.863h57.069c15.388 0 27.859 12.472 27.859 27.863v57.069z"/><linearGradient id="b" gradientUnits="userSpaceOnUse" x1="-59.796" y1="376.232" x2="-59.796" y2="275.998" gradientTransform="translate(344.06 -170.6) scale(1.3937)"><stop offset="0" stop-color="#e19c3e"/><stop offset=".3" stop-color="#c74d4e"/><stop offset=".6" stop-color="#c31c76"/><stop offset="1" stop-color="#6a479c"/></linearGradient><path fill="url(#b)" d="M260.723 247.042c-20.135 0-36.518 16.391-36.518 36.525 0 20.133 16.383 36.517 36.518 36.517 20.133 0 36.517-16.384 36.517-36.517-.001-20.134-16.385-36.525-36.517-36.525zm0 58.84c-12.327 0-22.318-9.989-22.318-22.314 0-12.326 9.991-22.318 22.318-22.318 12.325 0 22.314 9.992 22.314 22.318 0 12.325-9.989 22.314-22.314 22.314z"/><linearGradient id="c" gradientUnits="userSpaceOnUse" x1="-33.544" y1="376.218" x2="-33.544" y2="276.008" gradientTransform="translate(344.06 -170.6) scale(1.3937)"><stop offset="0" stop-color="#e19c3e"/><stop offset=".3" stop-color="#c74d4e"/><stop offset=".6" stop-color="#c31c76"/><stop offset="1" stop-color="#6a479c"/></linearGradient><path fill="url(#c)" d="M297.309 238.574a8.746 8.746 0 0 1 8.749 8.749 8.75 8.75 0 0 1-8.749 8.749c-4.83 0-8.747-3.921-8.747-8.749a8.747 8.747 0 0 1 8.747-8.749z"/></svg>