<svg xmlns="http://www.w3.org/2000/svg" width="512" height="512" viewBox="0 0 512 512"><linearGradient id="a" gradientUnits="userSpaceOnUse" x1="-63.403" y1="489.21" x2="-63.403" y2="125.766" gradientTransform="translate(344.06 -170.6) scale(1.3937)"><stop offset="0" stop-color="#e19c3e"/><stop offset=".3" stop-color="#c74d4e"/><stop offset=".6" stop-color="#c31c76"/><stop offset="1" stop-color="#6a479c"/></linearGradient><path fill="url(#a)" d="M359.171.704H152.222C68.123.704-.304 69.131-.304 153.229v206.949c0 84.099 68.427 152.525 152.525 152.525H359.17c84.099 0 152.525-68.427 152.525-152.525V153.229C511.696 69.131 443.27.704 359.171.704zm101.018 359.475c0 55.781-45.224 101.005-101.019 101.005H152.222c-55.794 0-101.019-45.224-101.019-101.005v-206.95c0-55.808 45.224-101.032 101.019-101.032h206.949c55.795 0 101.019 45.224 101.019 101.032v206.95h-.001z"/><linearGradient id="b" gradientUnits="userSpaceOnUse" x1="-63.402" y1="489.214" x2="-63.402" y2="125.744" gradientTransform="translate(344.06 -170.6) scale(1.3937)"><stop offset="0" stop-color="#e19c3e"/><stop offset=".3" stop-color="#c74d4e"/><stop offset=".6" stop-color="#c31c76"/><stop offset="1" stop-color="#6a479c"/></linearGradient><path fill="url(#b)" d="M255.696 124.26c-73.013 0-132.417 59.431-132.417 132.444s59.404 132.417 132.417 132.417 132.417-59.404 132.417-132.417S328.709 124.26 255.696 124.26zm0 213.368c-44.695 0-80.923-36.229-80.923-80.924s36.228-80.923 80.923-80.923 80.924 36.228 80.924 80.923-36.228 80.924-80.924 80.924z"/><linearGradient id="c" gradientUnits="userSpaceOnUse" x1="31.794" y1="489.15" x2="31.793" y2="125.784" gradientTransform="translate(344.06 -170.6) scale(1.3937)"><stop offset="0" stop-color="#e19c3e"/><stop offset=".3" stop-color="#c74d4e"/><stop offset=".6" stop-color="#c31c76"/><stop offset="1" stop-color="#6a479c"/></linearGradient><path fill="url(#c)" d="M388.371 93.555c17.53 0 31.724 14.193 31.724 31.723 0 17.504-14.193 31.724-31.724 31.724-17.518 0-31.724-14.22-31.724-31.724 0-17.53 14.207-31.723 31.724-31.723z"/></svg>