<svg xmlns="http://www.w3.org/2000/svg" width="512" height="512" viewBox="0 0 512 512"><circle fill="#F2FAFE" cx="256.402" cy="261.838" r="228.227"/><path fill="#475059" d="M392.979 494.045c0 10.046-8.145 18.188-18.189 18.188H159.067c-10.047 0-18.19-8.143-18.19-18.188V18.422c0-10.045 8.143-18.189 18.19-18.189h215.722c10.045 0 18.189 8.144 18.189 18.189v475.623z"/><path fill="#F7F8F8" d="M140.867 121.852H392.99v38.031H140.867z"/><path fill="#F7F8F8" d="M140.867 118.82H392.99v38.031H140.867zm0 297.749H392.99v38.032H140.867z"/><path fill="#8BD7F8" d="M140.867 159.882H392.99v259.697H140.867z"/><g fill="#7B7C7C"><path d="M288.891 40.263a3.03 3.03 0 0 1-3.029 3.031H249.39a3.03 3.03 0 1 1 0-6.06h36.472a3.029 3.029 0 0 1 3.029 3.029z"/><circle cx="227.885" cy="40.263" r="5.766"/></g><path fill="#6B6660" d="M140.877 66.012h252.102v5.512H140.877z"/><path fill="#75A8D3" d="M140.877 70.375h252.102v48.444H140.877z"/><path d="M167.393 104.429l-8.386-5.023 8.386-6.366m-8.116 6.131h16.235" fill="none" stroke="#FFF" stroke-linecap="round" stroke-miterlimit="10"/><circle fill="#F26436" cx="168.971" cy="139.585" r="11.665"/><path fill="#E3E3E3" d="M191.925 135.948h51.679v7.275h-51.679zm56.696 0h33.365v7.275h-33.365z"/><path fill="#6B6A69" d="M266.933 504.63c-11.504 0-20.863-9.359-20.863-20.864s9.359-20.863 20.863-20.863c11.505 0 20.864 9.358 20.864 20.863s-9.359 20.864-20.864 20.864zm0-40.223c-10.674 0-19.358 8.685-19.358 19.358 0 10.675 8.685 19.359 19.358 19.359 10.675 0 19.359-8.685 19.359-19.359 0-10.673-8.685-19.358-19.359-19.358z"/><path fill="none" stroke="#BCBEC0" stroke-miterlimit="10" d="M167.387 445.863s12.728-7.632 9.667-13.753c-3.243-6.483-9.667-1.481-9.667-1.481s-6.36-5.002-9.603 1.481c-3.061 6.121 9.603 13.753 9.603 13.753z"/><g fill="#D1D3D4"><circle cx="370.075" cy="430.574" r="1.788"/><circle cx="370.075" cy="437.326" r="1.788"/><circle cx="370.075" cy="444.075" r="1.788"/></g><path fill="none" stroke="#BCBEC0" stroke-miterlimit="10" d="M205.73 435.819c0 1.566-.125 2.478-.861 3.739-.219.376 2.446 4.464 2.175 4.799-.304.378-4.69-2.018-5.055-1.697-1.504 1.324-2.636 1.697-4.796 1.697a8.537 8.537 0 1 1 0-17.075 8.537 8.537 0 0 1 8.537 8.537z"/><circle fill="#75A8D3" cx="144.901" cy="248.673" r="47.024"/><circle fill="#FFF" cx="393.152" cy="318.932" r="47.023"/><circle fill="#FFF" stroke="#E6E7E8" stroke-miterlimit="10" cx="393.152" cy="318.932" r="34.206"/><g fill="#FFF"><path d="M270.741 80.706h-10.877c-4.418 0-8.017 3.597-8.017 8.018v10.878c0 4.42 3.599 8.018 8.017 8.018h10.877c4.422 0 8.021-3.598 8.021-8.018V88.724c0-4.421-3.599-8.018-8.021-8.018zm5.312 18.896a5.31 5.31 0 0 1-5.312 5.309h-10.877a5.306 5.306 0 0 1-5.308-5.309V88.724a5.307 5.307 0 0 1 5.308-5.31h10.877a5.31 5.31 0 0 1 5.312 5.31v10.878z"/><path d="M265.305 87.201c-3.84 0-6.96 3.125-6.96 6.961a6.967 6.967 0 0 0 6.96 6.961c3.836 0 6.96-3.124 6.96-6.961 0-3.836-3.124-6.961-6.96-6.961zm0 11.215a4.253 4.253 0 1 1-.002-8.506 4.253 4.253 0 0 1 .002 8.506z"/><circle cx="272.277" cy="87.254" r="1.668"/></g><g fill="#F15A29"><path d="M398.59 305.477h-10.878c-4.418 0-8.017 3.597-8.017 8.017v10.878c0 4.421 3.599 8.018 8.017 8.018h10.878c4.421 0 8.02-3.597 8.02-8.018v-10.878c-.001-4.421-3.599-8.017-8.02-8.017zm5.31 18.894a5.308 5.308 0 0 1-5.311 5.309h-10.878a5.306 5.306 0 0 1-5.308-5.309v-10.878a5.306 5.306 0 0 1 5.308-5.309h10.878a5.308 5.308 0 0 1 5.311 5.309v10.878z"/><path d="M393.152 311.971c-3.839 0-6.96 3.125-6.96 6.961 0 3.839 3.121 6.962 6.96 6.962 3.837 0 6.96-3.123 6.96-6.962 0-3.836-3.123-6.961-6.96-6.961zm0 11.215a4.254 4.254 0 1 1 0-8.508 4.254 4.254 0 0 1 0 8.508z"/><circle cx="400.126" cy="312.024" r="1.667"/></g><g fill="#FFF"><path d="M144.843 250.259s23.658-14.186 17.969-25.563c-6.026-12.052-17.969-2.754-17.969-2.754s-11.823-9.298-17.849 2.754c-5.689 11.377 17.849 25.563 17.849 25.563z"/><text transform="translate(131.073 274.312)" font-family="'MyriadPro-Regular'" font-size="18.062">323</text></g><path fill="#F3BA85" d="M247.228 324.668l22.539 12.719v-27.512h-22.539z"/><path fill="#FDD29D" d="M269.767 323.63s-26.416-10.548-28.883-23.95l-2.462-13.407s-8.457-4.932-8.457-16.206c0-11.269 3.876-7.748 3.876-7.748l11.271-33.464 24.654 3.522v91.253z"/><path fill="#D6D6D8" d="M247.228 324.668l22.539 87.01v-74.291z"/><path fill="#EF4136" d="M277.305 341.443l-7.538-4.056v73.412l8.193-26.95-5.282-35.403z"/><path fill="#375675" d="M247.355 323.63l-21.659 11.792 14.269 13.288-8.46 13.737 38.262 45.973z"/><path fill="#F3C094" d="M292.316 324.668l-22.549 12.719v-27.512h22.549z"/><path fill="#FED9A0" d="M269.767 323.63s26.428-10.548 28.89-23.95l2.461-13.407s8.458-4.932 8.458-16.206c0-11.269-3.869-7.748-3.869-7.748l-11.274-33.464-24.665 3.522v91.253z"/><path fill="#D6D6D8" d="M292.316 324.668l-22.549 87.01v-74.291z"/><path fill="#375675" d="M292.183 323.63l21.665 11.792-14.265 13.288 8.456 13.737-38.272 45.973z"/><path d="M269.767 249.108s-10.83-1.848-16.639-7.397l-5.815-5.547-5.014 23.777 1.58 11.623-1.58 2.113-2.907-5.546s-7.223-6.343-9.427-11.096c-2.199-4.756-5.9-26.314 4.139-37.2 10.044-10.883 17.086-14.955 24.398-16.222 7.305-1.267 13.912-.87 13.912-.87s6.081-4.125 13.471-1.071c7.402 3.051 24.575 22.075 24.575 22.075s3.165 12.149 2.636 20.077c-.526 7.925-3.168 18.756-5.546 21.402-2.376 2.642-2.376 8.45-2.376 8.45s-7.129-22.721-6.603-28.003c.527-5.284-4.492-6.341-4.492-6.341l-5.816-.263 5.554 7.661s-21.929-7.083-24.05-9.618c-2.109-2.533 8.193 12.259 8.193 12.259l-8.193-.263z"/><path fill="#375675" d="M363.285 419.579l-15.316-69.811-55.653-25.1-22.549 83.752-22.539-83.752-55.657 25.1-6.328 69.811z"/></svg>