<svg xmlns="http://www.w3.org/2000/svg" width="512" height="512" viewBox="0 0 512 512"><path fill="#6EBAE7" d="M357.227 49.926c-59.33.92-106.098 52.148-106.098 111.49v14.375C145.056 156.918 92.908 128.142 35.368 67.905 1.186 134.454 38.971 190.18 80.347 220.733c-27.895 0-51.266-3.591-69.258-19.781-1.789-.882-3.591 0-2.684 1.814 15.27 55.726 67.431 96.195 107.874 107.875-36.853 0-61.119 5.417-87.199-10.772-1.789-.907-3.604 0-2.684 1.776 19.768 54.844 59.304 71.941 116.87 71.941-28.777 21.569-67.431 43.14-140.254 44.929-2.709 0-4.498 3.591-1.827 5.38 27 22.502 93.511 39.586 187.022 39.586 153.761 0 278.707-136.65 278.707-305.668v-9.008c24.278-8.971 37.747-30.553 44.953-52.148 0-.882-.882-1.789-1.813-1.789l-51.216 17.979c-.907 0-1.827-1.789-.907-2.684 21.582-17.084 37.722-38.654 44.941-59.317 0 0-.895-.92-1.789-.92-24.292 9.878-47.663 19.781-65.643 25.161-2.708.907-6.286.907-8.97-.882-11.703-6.3-46.78-24.279-69.243-24.279"/></svg>