<svg xmlns="http://www.w3.org/2000/svg" width="512" height="512" viewBox="0 0 512 512"><circle fill="#F2FAFE" cx="256.253" cy="261.838" r="228.228"/><path fill="#475059" d="M392.83 494.046c0 10.045-8.146 18.188-18.19 18.188H158.917c-10.047 0-18.19-8.144-18.19-18.188V18.422c0-10.045 8.144-18.188 18.19-18.188H374.64c10.045 0 18.19 8.143 18.19 18.188v475.624z"/><path fill="#F7F8F8" d="M140.717 121.852H392.84v38.031H140.717z"/><path fill="#F7F8F8" d="M140.717 118.82H392.84v38.031H140.717z"/><path fill="#5FA9DD" d="M140.717 71.524H392.84v383.078H140.717z"/><g fill="#7B7C7C"><path d="M288.741 40.263a3.03 3.03 0 0 1-3.029 3.031H249.24a3.03 3.03 0 0 1-3.029-3.031 3.029 3.029 0 0 1 3.029-3.029h36.472a3.028 3.028 0 0 1 3.029 3.029z"/><circle cx="227.736" cy="40.263" r="5.766"/></g><path fill="#6B6660" d="M140.727 66.012H392.83v5.512H140.727z"/><path fill="#6B6A69" d="M266.783 504.63c-11.504 0-20.863-9.358-20.863-20.863s9.359-20.864 20.863-20.864c11.506 0 20.864 9.359 20.864 20.864s-9.358 20.863-20.864 20.863zm0-40.222c-10.674 0-19.358 8.684-19.358 19.358 0 10.674 8.685 19.358 19.358 19.358 10.675 0 19.359-8.685 19.359-19.358.001-10.674-8.684-19.358-19.359-19.358z"/><path fill="#8BD7F8" d="M301.741 194.354c-15.586.241-27.87 13.698-27.87 29.287v3.776c-27.865-4.958-41.563-12.518-56.678-28.341-8.981 17.481.945 32.122 11.815 40.147-7.327 0-13.467-.944-18.194-5.196-.469-.232-.942 0-.704.477 4.011 14.639 17.712 25.269 28.337 28.338-9.681 0-16.054 1.423-22.906-2.831-.47-.238-.946 0-.706.466 5.193 14.408 15.58 18.9 30.701 18.9-7.56 5.667-17.714 11.332-36.843 11.802-.711 0-1.182.944-.481 1.413 7.094 5.912 24.567 10.399 49.131 10.399 40.392 0 73.213-35.898 73.213-80.297v-2.366c6.378-2.356 9.916-8.026 11.81-13.698 0-.232-.232-.47-.477-.47l-13.454 4.723c-.238 0-.479-.47-.238-.704 5.67-4.488 9.909-10.154 11.805-15.583 0 0-.233-.241-.47-.241-6.38 2.595-12.52 5.196-17.244 6.609-.71.238-1.65.238-2.356-.231-3.075-1.657-12.287-6.379-18.191-6.379"/></svg>