<svg xmlns="http://www.w3.org/2000/svg" width="512" height="512" viewBox="0 0 512 512"><path fill="#485A93" d="M463.835 410.58H49.064c-11.643 0-21.256-9.613-21.256-21.245V113.151c0-11.631 9.613-21.233 21.256-21.233h414.771c11.62 0 21.233 9.602 21.233 21.233v276.184c0 12.133-9.613 21.245-21.233 21.245z"/><path fill="#485A93" d="M.298 389.837c6.207 18.362 23.356 31.861 43.703 31.861h424.36c20.417 0 37.963-13.23 43.937-31.861h-512z"/><path fill="#FFF" d="M50.067 120.245h412.228v253.41H50.067zm285.272 269.592H177.537l19.716 11.13h118.369z"/><path fill="#8AD7F8" d="M76.854 146.588h358.887v172.678H76.854z"/><path fill="#485A93" d="M231.028 190.618l70.863 40.926-70.863 40.915z"/></svg>