<svg xmlns="http://www.w3.org/2000/svg" width="512" height="512" viewBox="0 0 512 512"><path fill="#8AD7F8" d="M511.563 435.553H320.796v-20.947h169.821V98.018H20.51v316.588h175.048v20.947H-.437V77.071h512z"/><path fill="#3E7ABE" d="M255.563 436.515V248.989"/><path fill="#485A93" d="M245.09 248.989h20.947v187.525H245.09z"/><path fill="#485A93" d="M189.84 312.074l65.713-111.523 65.734 111.523z"/><path d="M125.988 122.799h36.237v36.247h-36.237zm-75.93 0h36.237v36.247H50.058zm151.871 0h36.237v36.247h-36.237zm146.972 0h36.237v36.247h-36.237zm-75.93 0h36.237v36.247h-36.237zm151.872 0h36.227v36.247h-36.227zM125.988 347.83h36.237v36.247h-36.237zm-75.93 0h36.237v36.247H50.058zm298.843 0h36.237v36.247h-36.237zm75.942 0h36.227v36.247h-36.227z" fill="#8AD7F8"/></svg>