<svg xmlns="http://www.w3.org/2000/svg" width="512" height="512" viewBox="0 0 512 512"><path fill="#D93829" d="M506.265 146.349s-5.305-37.961-20.298-54.718c-19.428-22.074-41.488-22.074-51.202-22.956-71.512-5.292-179.209-6.173-179.209-6.173s-107.696.882-179.184 6.173c-9.714.882-31.774 1.764-51.202 22.956-15.888 16.757-20.31 54.718-20.31 54.718s-5.292 45.029-5.292 90.058v41.489c0 45.017 5.292 89.163 5.292 89.163s5.304 37.961 20.31 54.718c19.428 22.074 45.016 21.18 56.494 23.825 40.607 4.422 173.892 5.304 173.892 5.304s107.697 0 179.209-6.173c9.714-.882 31.774-1.776 51.202-22.956 14.993-16.757 20.298-54.718 20.298-54.718s5.304-45.041 5.304-89.163v-41.489c-.001-45.029-5.304-90.058-5.304-90.058"/><path fill="#FFF" d="M193.783 167.541v191.556l167.718-93.561z"/></svg>