<svg xmlns="http://www.w3.org/2000/svg" width="512" height="512" viewBox="0 0 512 512"><path fill="#485A93" d="M423.704 55.94c-1.799-1.581-4.254-2.354-6.607-2.001L232.795 77.847a8.381 8.381 0 0 0-7.297 8.306v201.232c-11.483-11.113-27.875-18.107-46.067-18.107-34.634 0-62.83 25.236-62.83 56.238 0 31.003 28.195 56.223 62.83 56.223 34.651 0 62.813-25.236 62.813-56.223V154.547L409.8 132.791v100.591c-11.382-11.046-27.539-17.973-45.495-17.973-34.298 0-62.207 25.236-62.207 56.238 0 31.02 27.926 56.256 62.207 56.256 34.332 0 62.241-25.236 62.241-56.256V62.211a8.322 8.322 0 0 0-2.842-6.271z"/><path fill="#8AD7F8" d="M462.962 106.882v71.909c9.163 24.277 14.408 50.455 14.408 77.894 0 122.162-99.396 221.559-221.575 221.559-122.162 0-221.559-99.396-221.559-221.559 0-122.179 99.397-221.576 221.559-221.576 10.692 0 21.134 1.025 31.423 2.488l74.564-13.669C329.435 9.133 293.623.676 255.795.676 114.634.676-.197 115.524-.197 256.685s114.831 255.991 255.992 255.991c141.16 0 256.008-114.831 256.008-255.991 0-55.954-18.258-107.619-48.841-149.803z"/></svg>