<svg xmlns="http://www.w3.org/2000/svg" width="512" height="512" viewBox="0 0 512 512"><path fill="#8BD7F8" d="M267.554 135.097c3.663 1.948-4.722 4.155-4.563 7.587 6.474 12.54 19.848 13.226 25.83 25.831 7.188 15.127-3.673 44.844 6.845 57.745-2.197 16.407-5.963 29.327-12.159 43.295-3.292 7.429-9.274 16.648-6.075 30.385 1.707 7.336 9.711 12.205 9.878 22.788 25.747 15.795 61.529 21.536 82.807 41.773-.39 4.184.834 9.971-.761 12.92H112.581V363.75c22.649-16.602 51.847-26.646 79.013-38.741 3.385-17.9 18.55-23.688 15.183-42.544-.844-4.822-6.474-9.136-8.357-13.671-2.235-5.407-3.821-13.792-6.065-21.276-3.228-10.712-8.459-23.206 0-29.624 1.428-18.086-2.31-35.003 1.512-47.868 6.815-22.835 43.367-32.777 73.687-34.929z"/><path fill="#8AD7F8" d="M.15 377.421h97.229c-3.45-22.992 11.121-28.474 25.079-35.698 10.49-5.436 19.774-11.223 28.112-14.432-2.699-11.928-11.89-12.587-9.887-28.104.677-5.166 4.851-9.062 6.845-14.45 3.33-9.033 8.792-22.093 8.357-31.896-.186-4.035-2.885-6.687-3.803-11.39-2.282-11.853 2.124-27.519-1.512-37.99-6.01-17.289-31.479-30.384-50.91-25.07-11.575 3.172-27.62 13.68-31.135 25.831-3.441 11.853 1.187 26.767-1.521 37.99-.695 2.838-3.506 5.973-3.793 8.356-1.15 9.052 5.148 24.012 8.348 33.417 1.799 5.277 6.752 9.396 7.605 14.432 2.467 14.83-9.062 19.811-12.16 34.947C43.947 343.493 19.387 352.081.151 366.03m475.558 9.118c-3.812-28.474-35.782-31.72-58.506-44.064-2.801-1.521-5.843-4.434-9.859-6.836-4.822-2.875-9.052-3.302-10.647-6.074-3.061-5.38-3.812-18.838 0-24.31 4.823-6.919 16.417-5.5 22.798-12.159-2.718-11.195-7.04-23.818-9.117-38.742-2.615-18.744-1.196-36.376-9.878-47.858-17.539-23.197-58.923-15.313-66.093 12.15-2.949 11.278-1.539 25.756-3.793 39.501-2.105 12.837-6.149 23.855-9.117 34.188 4.916 8.144 18.688 5.045 23.549 12.92 3.376 5.481 2.625 18.81-.761 24.31-3.413 5.518-10.972 3.645-13.671 8.356 7.865 4.137 17.983 8.959 28.863 14.432 13.272 6.668 28.808 11.501 24.31 35.708 29.123 1.762 61.52.26 91.923.751"/><path fill="#485A93" d="M267.554 135.032c3.663 1.947-4.722 4.155-4.563 7.586 6.474 12.54 19.848 13.226 25.83 25.831 7.188 15.127-3.673 44.844 6.845 57.745-2.197 16.407-5.963 29.327-12.159 43.295-3.292 7.43-9.274 16.648-6.075 30.385 1.707 7.337 9.711 12.206 9.878 22.788 25.747 15.795 61.529 21.536 82.807 41.774-.39 4.183.834 9.971-.761 12.92H112.581v-13.671c22.649-16.603 51.847-26.647 79.013-38.741 3.385-17.9 18.55-23.688 15.183-42.544-.844-4.823-6.474-9.136-8.357-13.671-2.235-5.407-3.821-13.792-6.065-21.277-3.228-10.712-8.459-23.206 0-29.624 1.428-18.086-2.31-35.003 1.512-47.868 6.815-22.834 43.367-32.776 73.687-34.928z"/><g fill="#D4EEF8"><path d="M434.788 298.909h30.589v4.805h-30.589zm34.967 0h11.992v4.805h-11.992zM5.501 190.987h27.927v3.413H5.501z"/><path d="M17.753 178.726h3.414v27.936h-3.414zm426.552-5.139h27.926v3.422h-27.926z"/><path d="M456.557 161.335h3.413v27.936h-3.413zm26.655 173.811h27.927v3.422h-27.927z"/><path d="M495.465 322.895h3.413v27.927h-3.413zM23.94 301.321c0 6.594-5.352 11.927-11.927 11.927-6.576 0-11.937-5.333-11.937-11.927 0-6.586 5.361-11.928 11.937-11.928 6.575.001 11.927 5.342 11.927 11.928zm24.384-40.271a7.453 7.453 0 0 1-7.448 7.447c-4.1 0-7.448-3.339-7.448-7.447 0-4.109 3.348-7.448 7.448-7.448a7.454 7.454 0 0 1 7.448 7.448zm463.752 28.334a7.454 7.454 0 0 1-7.448 7.448c-4.1 0-7.447-3.339-7.447-7.448 0-4.108 3.348-7.447 7.447-7.447 4.108 0 7.448 3.338 7.448 7.447zM325.271 157.959a3.768 3.768 0 0 1-3.766 3.766 3.776 3.776 0 0 1-3.774-3.766 3.778 3.778 0 0 1 3.774-3.775 3.772 3.772 0 0 1 3.766 3.775zm72.316 0c0-5.528 4.489-10.026 10.017-10.026 5.537 0 10.026 4.499 10.026 10.026s-4.489 10.017-10.026 10.017c-5.528 0-10.017-4.489-10.017-10.017zm50.084 67.948c0-2.922 2.375-5.305 5.296-5.305a5.31 5.31 0 0 1 5.306 5.305 5.297 5.297 0 0 1-5.306 5.296 5.295 5.295 0 0 1-5.296-5.296z"/></g></svg>